SplineFontDB: 3.0
FontName: Hack-Regular-Patched
FullName: Hack Regular (Patched)
FamilyName: Hack
Weight: Regular
Copyright: Copyright \\(c\\) 2016 Christopher Simpkins / Copyright \\(c\\) 2003 by Bitstream, Inc. All Rights Reserved.
Version: 001.001
ItalicAngle: 0
UnderlinePosition: -265
UnderlineWidth: 90
Ascent: 1556
Descent: 492
InvalidEm: 0
sfntRevision: 0x000204dd
LayerCount: 2
Layer: 0 0 "Back" 1
Layer: 1 0 "Fore" 0
XUID: [1021 622 -1180208215 10750061]
FSType: 8
OS2Version: 3
OS2_WeightWidthSlopeOnly: 0
OS2_UseTypoMetrics: 1
CreationTime: 1452983724
ModificationTime: 1460690076
PfmFamily: 17
TTFWeight: 400
TTFWidth: 5
LineGap: 0
VLineGap: 0
Panose: 2 11 6 9 3 2 2 2 2 4
OS2TypoAscent: 1556
OS2TypoAOffset: 0
OS2TypoDescent: -492
OS2TypoDOffset: 0
OS2TypoLinegap: 410
OS2WinAscent: 1901
OS2WinAOffset: 0
OS2WinDescent: 483
OS2WinDOffset: 0
HheadAscent: 1901
HheadAOffset: 0
HheadDescent: -483
HheadDOffset: 0
OS2SubXSize: 1331
OS2SubYSize: 1228
OS2SubXOff: 0
OS2SubYOff: 153
OS2SupXSize: 1331
OS2SupYSize: 1228
OS2SupXOff: 0
OS2SupYOff: 716
OS2StrikeYSize: 102
OS2StrikeYPos: 530
OS2CapHeight: 1493
OS2XHeight: 1120
OS2Vendor: 'simp'
OS2CodePages: 2000019f.dfd70000
OS2UnicodeRanges: a50006ef.1000b8fb.00000020.00000000
Lookup: 1 0 0 "'aalt' Access All Alternates in Latin lookup 0" { "'aalt' Access All Alternates in Latin lookup 0 subtable"  } ['aalt' ('DFLT' <'dflt' > 'latn' <'MOL ' 'ROM ' 'dflt' > ) ]
Lookup: 3 0 0 "'aalt' Access All Alternates in Latin lookup 1" { "'aalt' Access All Alternates in Latin lookup 1 subtable"  } ['aalt' ('DFLT' <'dflt' > 'latn' <'MOL ' 'ROM ' 'dflt' > ) ]
Lookup: 1 0 0 "'locl' Localized Forms in Latin lookup 2" { "'locl' Localized Forms in Latin lookup 2 subtable"  } ['locl' ('latn' <'MOL ' > ) ]
Lookup: 1 0 0 "'locl' Localized Forms in Latin lookup 3" { "'locl' Localized Forms in Latin lookup 3 subtable"  } ['locl' ('latn' <'ROM ' > ) ]

StartChar: .notdef
Encoding: 65536 -1 0
Width: 1233
Flags: MW
HStem: -362 114<219 1014 219 1128> 1329 115<219 1014 219 219>
VStem: 104 115<-248 1329 -248 1444> 1014 114<-248 1329 1329 1329>
LayerCount: 2
Back
Fore
SplineSet
104 1444 m 1
 1128 1444 l 1
 1128 -362 l 1
 104 -362 l 1
 104 1444 l 1
1014 -248 m 1
 1014 1329 l 1
 219 1329 l 1
 219 -248 l 1
 1014 -248 l 1
EndSplineSet
EndChar

StartChar: Acircumflex
Encoding: 194 194 4
Width: 1233
Flags: MW
HStem: 0 21G<37 37 37 246 987 987 987 1196> 389 162<403 829 403 877 354 829> 1473 20G<494 739 739 739> 1832 20G<522 711 711 711>
LayerCount: 2
Back
Fore
SplineSet
311 1586 m 1
 522 1852 l 1
 711 1852 l 1
 922 1586 l 1
 782 1586 l 1
 616 1764 l 1
 451 1586 l 1
 311 1586 l 1
37 0 m 1
 494 1493 l 1
 739 1493 l 1
 1196 0 l 1
 987 0 l 1
 877 389 l 1
 354 389 l 1
 246 0 l 1
 37 0 l 1
403 551 m 1
 829 551 l 1
 616 1315 l 1
 403 551 l 1
EndSplineSet
EndChar

StartChar: Adieresis
Encoding: 196 196 5
Width: 1233
Flags: MW
HStem: 0 21G<37 37 37 246 987 987 987 1196> 389 162<403 829 403 877 354 829> 1473 20G<494 739 739 739> 1647 203<339 492 349 492 741 883>
VStem: 319 203<1677 1820 1667 1830> 711 202<1677 1820 1667 1830>
LayerCount: 2
Back
Fore
SplineSet
492 1647 m 2
 349 1647 l 2
 329 1647 319 1657 319 1677 c 2
 319 1820 l 2
 319 1840 329 1850 349 1850 c 2
 492 1850 l 2
 512 1850 522 1840 522 1820 c 2
 522 1677 l 2
 522 1657 512 1647 492 1647 c 2
883 1647 m 2
 741 1647 l 2
 721 1647 711 1657 711 1677 c 2
 711 1820 l 2
 711 1840 721 1850 741 1850 c 2
 883 1850 l 2
 903 1850 913 1840 913 1820 c 2
 913 1677 l 2
 913 1657 903 1647 883 1647 c 2
37 0 m 1
 494 1493 l 1
 739 1493 l 1
 1196 0 l 1
 987 0 l 1
 877 389 l 1
 354 389 l 1
 246 0 l 1
 37 0 l 1
403 551 m 1
 829 551 l 1
 616 1315 l 1
 403 551 l 1
EndSplineSet
EndChar

StartChar: Agrave
Encoding: 192 192 6
Width: 1233
Flags: MW
HStem: 0 21G<37 37 37 246 987 987 987 1196> 389 162<403 829 403 877 354 829> 1473 20G<494 739 739 739> 1829 20G<358 542 542 542>
LayerCount: 2
Back
Fore
SplineSet
585 1585 m 1
 358 1849 l 1
 542 1849 l 1
 739 1585 l 1
 585 1585 l 1
37 0 m 1
 494 1493 l 1
 739 1493 l 1
 1196 0 l 1
 987 0 l 1
 877 389 l 1
 354 389 l 1
 246 0 l 1
 37 0 l 1
403 551 m 1
 829 551 l 1
 616 1315 l 1
 403 551 l 1
EndSplineSet
EndChar

StartChar: Amacron
Encoding: 256 256 7
Width: 1233
Flags: MW
HStem: 0 21G<37 37 37 246 987 987 987 1196> 389 162<403 829 403 877 354 829> 1473 20G<494 739 739 739> 1652 148<317 915 317 915>
LayerCount: 2
Back
Fore
SplineSet
317 1652 m 1
 317 1800 l 1
 915 1800 l 1
 915 1652 l 1
 317 1652 l 1
37 0 m 1
 494 1493 l 1
 739 1493 l 1
 1196 0 l 1
 987 0 l 1
 877 389 l 1
 354 389 l 1
 246 0 l 1
 37 0 l 1
403 551 m 1
 829 551 l 1
 616 1315 l 1
 403 551 l 1
EndSplineSet
EndChar

StartChar: Aogonek
Encoding: 260 260 8
Width: 1233
Flags: MW
HStem: -395 123<1088 1128> 0 21G<37 246 37 37 983 987 987 987 1102 1102 1102 1196> 389 162<403 829 403 877 354 829> 1473 20G<494 739 739 739>
VStem: 875 139<-212 -189.5> 875 358<-280.5 -242 -375 -189.5>
LayerCount: 2
Back
Fore
SplineSet
1124 -272 m 0xf8
 1165 -272 1192 -262 1233 -242 c 1
 1233 -375 l 1
 1174 -391 1150 -395 1106 -395 c 0
 955 -395 875 -339 875 -222 c 0
 875 -157 901 -93 983 0 c 1
 987 0 l 1
 877 389 l 1
 354 389 l 1
 246 0 l 1
 37 0 l 1
 494 1493 l 1
 739 1493 l 1
 1196 0 l 1
 1102 0 l 1
 1038 -87 1014 -139 1014 -184 c 0
 1014 -240 1052 -272 1124 -272 c 0xf8
403 551 m 1
 829 551 l 1xf4
 616 1315 l 1
 403 551 l 1
EndSplineSet
EndChar

StartChar: Aring
Encoding: 197 197 9
Width: 1233
Flags: MW
HStem: 0 21G<37 37 37 246 987 987 987 1196> 389 162<403 829 403 877 354 829> 1778 123<594 634.5>
VStem: 342 123<1605 1647.5> 768 123<1605 1648.5>
LayerCount: 2
Back
Fore
SplineSet
37 0 m 1
 465 1399 l 1
 425 1422 395 1455 375 1492 c 0
 352 1533 342 1578 342 1625 c 0
 342 1704 373 1773 422 1822 c 0
 471 1871 540 1901 616 1901 c 0
 693 1901 763 1870 812 1821 c 0
 859 1774 891 1706 891 1625 c 0
 891 1577 880 1533 859 1494 c 0
 838 1455 808 1424 768 1399 c 1
 1196 0 l 1
 987 0 l 1
 877 389 l 1
 354 389 l 1
 246 0 l 1
 37 0 l 1
616 1475 m 0
 661 1475 697 1492 724 1519 c 0
 753 1548 768 1584 768 1626 c 0
 768 1671 751 1707 724 1734 c 0
 693 1765 654 1778 615 1778 c 0
 573 1778 538 1764 509 1735 c 0
 480 1706 465 1669 465 1626 c 0
 465 1584 480 1548 509 1519 c 0
 538 1490 574 1475 616 1475 c 0
403 551 m 1
 829 551 l 1
 616 1311 l 1
 403 551 l 1
EndSplineSet
EndChar

StartChar: Atilde
Encoding: 195 195 10
Width: 1233
Flags: MW
HStem: 0 21G<37 37 37 246 987 987 987 1196> 389 162<403 829 403 877 354 829> 1473 20G<494 739 739 739> 1587 219<287 486.5 287 486.5>
LayerCount: 2
Back
Fore
SplineSet
412 1587 m 1
 287 1587 l 1
 287 1651 302 1704 339 1747 c 0
 373 1786 419 1806 476 1806 c 0
 497 1806 519 1803 542 1798 c 0
 562 1793 586 1782 621 1763 c 2
 678 1733 l 2
 692 1724 705 1718 718 1714 c 0
 729 1710 739 1708 750 1708 c 0
 771 1708 788 1717 801 1734 c 0
 814 1751 821 1773 821 1800 c 2
 821 1806 l 1
 946 1806 l 1
 945 1740 928 1687 893 1647 c 0
 859 1607 814 1587 757 1587 c 0
 736 1587 715 1590 694 1595 c 0
 675 1600 653 1609 612 1630 c 2
 555 1663 l 2
 540 1672 526 1678 514 1683 c 0
 503 1687 492 1688 485 1688 c 0
 465 1688 445 1680 432 1663 c 0
 419 1646 412 1622 412 1593 c 2
 412 1587 l 1
37 0 m 1
 494 1493 l 1
 739 1493 l 1
 1196 0 l 1
 987 0 l 1
 877 389 l 1
 354 389 l 1
 246 0 l 1
 37 0 l 1
403 551 m 1
 829 551 l 1
 616 1315 l 1
 403 551 l 1
EndSplineSet
EndChar

StartChar: AE
Encoding: 198 198 11
Width: 1233
Flags: MW
HStem: 0 170<823 1180 823 1180> 383 168<328 637 328 637 285 637> 711 170<823 1130 823 1130> 1323 170<530 637 530 530 823 1161 823 823>
VStem: 637 186<170 383 383 383 551 711 881 1323> 637 493<0 881 383 881 711 881 711 1323 711 1323>
LayerCount: 2
Back
Fore
SplineSet
0 0 m 1xf4
 410 1493 l 1
 1161 1493 l 1
 1161 1323 l 1
 823 1323 l 1
 823 881 l 1
 1130 881 l 1
 1130 711 l 1
 823 711 l 1
 823 170 l 1
 1180 170 l 1
 1180 0 l 1
 637 0 l 1
 637 383 l 1
 285 383 l 1xf8
 184 0 l 1
 0 0 l 1xf4
328 551 m 1
 637 551 l 1
 637 1323 l 1
 530 1323 l 1
 328 551 l 1
EndSplineSet
EndChar

StartChar: B
Encoding: 66 66 12
Width: 1233
Flags: MW
HStem: 0 166<369 608 369 608> 713 164<369 604 604 608 369 604> 1327 166<369 604 369 369>
VStem: 166 203<166 166 166 713 877 1327> 881 204<1070.5 1151> 934 203<383 463.5 341.5 478.5>
LayerCount: 2
Back
Fore
SplineSet
166 0 m 1xf4
 166 1493 l 1
 608 1493 l 2
 760 1493 878 1460 961 1394 c 0
 1044 1328 1085 1234 1085 1113 c 0
 1085 1020 1061 949 1020 898 c 0
 977 847 912 812 823 799 c 1
 922 784 999 742 1054 674 c 0
 1109 606 1137 518 1137 409 c 0
 1137 274 1093 173 1004 104 c 0
 915 35 783 0 608 0 c 2
 166 0 l 1xf4
369 877 m 1xf8
 604 877 l 2xf4
 705 877 772 895 816 934 c 0
 859 971 881 1030 881 1111 c 0
 881 1191 860 1244 817 1277 c 0
 774 1310 703 1327 604 1327 c 2
 369 1327 l 1
 369 877 l 1xf8
369 166 m 1
 608 166 l 2
 725 166 808 187 859 228 c 0
 909 269 934 336 934 430 c 0
 934 527 908 599 855 645 c 0xf8
 802 690 719 713 608 713 c 2
 369 713 l 1
 369 166 l 1
EndSplineSet
EndChar

StartChar: C
Encoding: 67 67 13
Width: 1233
Flags: MW
HStem: -29 164<677.5 772> 1356 164<676.5 771>
VStem: 139 211<643 847.5 643 864.5>
LayerCount: 2
Back
Fore
SplineSet
742 -29 m 0
 555 -29 404 37 297 174 c 0
 192 310 139 503 139 744 c 0
 139 985 191 1179 298 1316 c 0
 405 1453 555 1520 742 1520 c 0
 806 1520 867 1512 915 1500 c 0
 963 1488 1025 1465 1073 1438 c 1
 1073 1231 l 1
 1024 1272 971 1303 914 1324 c 0
 857 1345 801 1356 741 1356 c 0
 612 1356 513 1305 448 1204 c 0
 383 1103 350 950 350 745 c 0
 350 541 383 388 448 287 c 0
 513 186 612 135 743 135 c 0
 803 135 859 146 916 167 c 0
 971 188 1024 219 1073 260 c 1
 1073 53 l 1
 1021 26 968 5 915 -9 c 0
 863 -22 802 -29 742 -29 c 0
EndSplineSet
EndChar

StartChar: Cacute
Encoding: 262 262 14
Width: 1233
Flags: MW
HStem: -29 164<674 771.5 674 772> 1356 164<676.5 771> 1356 496<762 771>
VStem: 139 211<643 847.5 643 864.5>
LayerCount: 2
Back
Fore
SplineSet
565 1588 m 1xd0
 762 1852 l 1
 948 1852 l 1
 719 1588 l 1
 565 1588 l 1xd0
742 -29 m 0
 551 -29 401 41 297 174 c 0
 192 310 139 503 139 744 c 0
 139 985 191 1179 298 1316 c 0
 402 1449 551 1520 742 1520 c 0
 802 1520 863 1513 915 1500 c 0
 966 1487 1022 1465 1073 1438 c 1
 1073 1231 l 1
 1024 1272 971 1303 914 1324 c 0
 857 1345 801 1356 741 1356 c 0
 612 1356 513 1305 448 1204 c 0
 383 1103 350 950 350 745 c 0
 350 541 383 388 448 287 c 0
 511 191 606 135 742 135 c 0
 801 135 859 146 916 167 c 0
 971 188 1024 219 1073 260 c 1
 1073 53 l 1
 1021 26 968 5 915 -9 c 0xb0
 863 -22 802 -29 742 -29 c 0
EndSplineSet
EndChar

StartChar: Ccaron
Encoding: 268 268 15
Width: 1233
Flags: MW
HStem: -29 164<674 771.5 674 772> 1356 164<676.5 771> 1356 496<401 771>
VStem: 139 211<643 847.5 643 864.5>
LayerCount: 2
Back
Fore
SplineSet
612 1586 m 1xd0
 401 1852 l 1
 541 1852 l 1
 706 1674 l 1
 872 1852 l 1
 1012 1852 l 1
 801 1586 l 1
 612 1586 l 1xd0
742 -29 m 0
 551 -29 401 41 297 174 c 0
 192 310 139 503 139 744 c 0
 139 985 191 1179 298 1316 c 0
 402 1449 551 1520 742 1520 c 0
 802 1520 863 1513 915 1500 c 0
 966 1487 1022 1465 1073 1438 c 1
 1073 1231 l 1
 1024 1272 971 1303 914 1324 c 0
 857 1345 801 1356 741 1356 c 0
 612 1356 513 1305 448 1204 c 0
 383 1103 350 950 350 745 c 0
 350 541 383 388 448 287 c 0
 511 191 606 135 742 135 c 0
 801 135 859 146 916 167 c 0xb0
 971 188 1024 219 1073 260 c 1
 1073 53 l 1
 1021 26 968 5 915 -9 c 0
 863 -22 802 -29 742 -29 c 0
EndSplineSet
EndChar

StartChar: Ccedilla
Encoding: 199 199 16
Width: 1233
Flags: MW
HStem: -395 123<655.5 667.5 634.5 711.5> -28 163 1356 164<676.5 771>
VStem: 139 211<643 847.5 643 864.5> 495 414<-245.5 -240 -240 -240>
LayerCount: 2
Back
Fore
SplineSet
741 1356 m 0
 612 1356 513 1305 448 1204 c 0
 383 1103 350 950 350 745 c 0
 350 541 383 388 448 287 c 0
 511 191 606 135 742 135 c 0
 801 135 859 146 916 167 c 0
 971 188 1024 219 1073 260 c 1
 1073 53 l 1
 1021 26 968 5 915 -9 c 0
 886 -16 854 -22 822 -25 c 1
 849 -58 870 -88 883 -115 c 0
 898 -146 909 -179 909 -219 c 0
 909 -272 889 -319 849 -350 c 0
 810 -379 753 -395 670 -395 c 0
 641 -395 612 -393 583 -389 c 0
 552 -385 523 -379 495 -371 c 1
 495 -240 l 1
 518 -251 542 -260 567 -265 c 0
 592 -270 623 -272 646 -272 c 0
 689 -272 720 -264 740 -248 c 0
 760 -232 770 -209 770 -180 c 0
 770 -159 763 -134 748 -105 c 0
 737 -84 722 -58 701 -28 c 1
 529 -17 393 51 297 174 c 0
 192 310 139 503 139 744 c 0
 139 985 191 1179 298 1316 c 0
 402 1449 551 1520 742 1520 c 0
 802 1520 863 1513 915 1500 c 0
 966 1487 1022 1465 1073 1438 c 1
 1073 1231 l 1
 1024 1272 971 1303 914 1324 c 0
 857 1345 801 1356 741 1356 c 0
EndSplineSet
EndChar

StartChar: Cdotaccent
Encoding: 266 266 17
Width: 1233
Flags: MW
HStem: -29 164<610 800.5 610 804> 1356 164<610.5 802> 1647 205<608 763 618 763>
VStem: 139 211<541.5 949.5 541.5 988> 588 205<1677 1822 1667 1832>
LayerCount: 2
Back
Fore
SplineSet
763 1647 m 2
 618 1647 l 2
 598 1647 588 1657 588 1677 c 2
 588 1822 l 2
 588 1842 598 1852 618 1852 c 2
 763 1852 l 2
 783 1852 793 1842 793 1822 c 2
 793 1677 l 2
 793 1657 783 1647 763 1647 c 2
744 -29 m 0
 360 -29 139 255 139 743 c 0
 139 1233 361 1520 745 1520 c 0
 864 1520 969 1494 1073 1438 c 1
 1073 1231 l 1
 976 1311 864 1356 740 1356 c 0
 481 1356 350 1154 350 745 c 0
 350 338 480 135 740 135 c 0
 861 135 976 179 1073 260 c 1
 1073 53 l 1
 969 -3 864 -29 744 -29 c 0
EndSplineSet
EndChar

StartChar: D
Encoding: 68 68 18
Width: 1233
Flags: MW
HStem: 0 166<340 436 436 440> 1327 166<340 436 340 340>
VStem: 137 203<166 166 166 1327> 893 213<635 857>
LayerCount: 2
Back
Fore
SplineSet
137 0 m 1
 137 1493 l 1
 440 1493 l 2
 668 1493 836 1432 944 1311 c 0
 1052 1190 1106 1001 1106 745 c 0
 1106 490 1052 303 944 182 c 0
 836 61 668 0 440 0 c 2
 137 0 l 1
340 166 m 1
 436 166 l 2
 606 166 725 208 792 292 c 0
 860 376 893 523 893 747 c 0
 893 967 861 1118 793 1202 c 0
 725 1287 603 1327 436 1327 c 2
 340 1327 l 1
 340 166 l 1
EndSplineSet
EndChar

StartChar: Eth
Encoding: 208 208 19
Width: 1233
Flags: MW
HStem: 0 166<340 436 340 436> 709 149<8 133 8 133 340 604> 1327 166<340 436 340 340>
VStem: 133 207<166 166 166 709 858 1327> 893 209<634.5 865>
LayerCount: 2
Back
Fore
SplineSet
133 0 m 1
 133 709 l 1
 8 709 l 1
 8 858 l 1
 133 858 l 1
 133 1493 l 1
 436 1493 l 2
 664 1493 832 1432 940 1311 c 0
 1048 1190 1102 1001 1102 746 c 0
 1102 491 1048 303 940 182 c 0
 829 58 660 0 436 0 c 2
 133 0 l 1
340 166 m 1
 436 166 l 2
 620 166 725 211 791 293 c 0
 860 380 893 521 893 748 c 0
 893 982 858 1115 792 1200 c 0
 721 1289 609 1327 436 1327 c 2
 340 1327 l 1
 340 858 l 1
 604 858 l 1
 604 709 l 1
 340 709 l 1
 340 166 l 1
EndSplineSet
EndChar

StartChar: Dcaron
Encoding: 270 270 20
Width: 1233
Flags: MW
HStem: 0 166<340 436 436 440> 1327 166<340 436 340 340> 1832 20G<233 373 373 373 704 844 844 844>
VStem: 137 203<166 166 166 1327> 893 213<527 966>
LayerCount: 2
Back
Fore
SplineSet
444 1586 m 1
 233 1852 l 1
 373 1852 l 1
 538 1674 l 1
 704 1852 l 1
 844 1852 l 1
 633 1586 l 1
 444 1586 l 1
137 0 m 1
 137 1493 l 1
 440 1493 l 2
 896 1493 1106 1256 1106 747 c 0
 1106 236 896 0 440 0 c 2
 137 0 l 1
340 166 m 1
 436 166 l 2
 777 166 893 308 893 746 c 0
 893 1186 776 1327 436 1327 c 2
 340 1327 l 1
 340 166 l 1
EndSplineSet
EndChar

StartChar: Dcroat
Encoding: 272 272 21
Width: 1233
Flags: MW
HStem: 0 166<340 436 340 436> 709 149<8 133 8 133 340 604> 1327 166<340 436 340 340>
VStem: 133 207<166 166 166 709 858 1327> 893 209<527 966>
LayerCount: 2
Back
Fore
SplineSet
133 0 m 1
 133 709 l 1
 8 709 l 1
 8 858 l 1
 133 858 l 1
 133 1493 l 1
 436 1493 l 2
 891 1493 1102 1257 1102 746 c 0
 1102 237 892 0 436 0 c 2
 133 0 l 1
340 166 m 1
 436 166 l 2
 777 166 893 308 893 746 c 0
 893 1186 776 1327 436 1327 c 2
 340 1327 l 1
 340 858 l 1
 604 858 l 1
 604 709 l 1
 340 709 l 1
 340 166 l 1
EndSplineSet
EndChar

StartChar: E
Encoding: 69 69 22
Width: 1233
Flags: MW
HStem: 0 170<399 1102 399 1102> 711 170<399 1053 399 1053> 1323 170<399 1083 399 399>
VStem: 197 202<170 711 881 1323>
LayerCount: 2
Back
Fore
SplineSet
197 0 m 1
 197 1493 l 1
 1083 1493 l 1
 1083 1323 l 1
 399 1323 l 1
 399 881 l 1
 1053 881 l 1
 1053 711 l 1
 399 711 l 1
 399 170 l 1
 1102 170 l 1
 1102 0 l 1
 197 0 l 1
EndSplineSet
EndChar

StartChar: Eacute
Encoding: 201 201 23
Width: 1233
Flags: MW
HStem: 0 170<399 1102 399 1102> 711 170<399 1053 399 1053> 1323 170<399 1083 399 399> 1836 20G<690 876 876 876>
VStem: 197 202<170 711 881 1323>
LayerCount: 2
Back
Fore
SplineSet
493 1592 m 1
 690 1856 l 1
 876 1856 l 1
 647 1592 l 1
 493 1592 l 1
197 0 m 1
 197 1493 l 1
 1083 1493 l 1
 1083 1323 l 1
 399 1323 l 1
 399 881 l 1
 1053 881 l 1
 1053 711 l 1
 399 711 l 1
 399 170 l 1
 1102 170 l 1
 1102 0 l 1
 197 0 l 1
EndSplineSet
EndChar

StartChar: Ecaron
Encoding: 282 282 24
Width: 1233
Flags: MW
HStem: 0 170<399 1102 399 1102> 711 170<399 1053 399 1053> 1323 170<399 1083 399 399> 1832 20G<347 487 487 487 818 958 958 958>
VStem: 197 202<170 711 881 1323>
LayerCount: 2
Back
Fore
SplineSet
558 1586 m 1
 347 1852 l 1
 487 1852 l 1
 652 1674 l 1
 818 1852 l 1
 958 1852 l 1
 747 1586 l 1
 558 1586 l 1
197 0 m 1
 197 1493 l 1
 1083 1493 l 1
 1083 1323 l 1
 399 1323 l 1
 399 881 l 1
 1053 881 l 1
 1053 711 l 1
 399 711 l 1
 399 170 l 1
 1102 170 l 1
 1102 0 l 1
 197 0 l 1
EndSplineSet
EndChar

StartChar: Ecircumflex
Encoding: 202 202 25
Width: 1233
Flags: MW
HStem: 0 170<399 1102 399 1102> 711 170<399 1053 399 1053> 1323 170<399 1083 399 399> 1832 20G<540 729 729 729>
VStem: 197 202<170 711 881 1323>
LayerCount: 2
Back
Fore
SplineSet
329 1586 m 1
 540 1852 l 1
 729 1852 l 1
 940 1586 l 1
 800 1586 l 1
 634 1764 l 1
 469 1586 l 1
 329 1586 l 1
197 0 m 1
 197 1493 l 1
 1083 1493 l 1
 1083 1323 l 1
 399 1323 l 1
 399 881 l 1
 1053 881 l 1
 1053 711 l 1
 399 711 l 1
 399 170 l 1
 1102 170 l 1
 1102 0 l 1
 197 0 l 1
EndSplineSet
EndChar

StartChar: Edieresis
Encoding: 203 203 26
Width: 1233
Flags: MW
HStem: 0 170<399 1102 399 1102> 711 170<399 1053 399 1053> 1323 170<399 1083 399 399> 1647 203<357 510 367 510 759 901>
VStem: 197 202<170 711 881 1323> 337 203<1677 1820 1667 1830> 729 202<1677 1820 1667 1830>
LayerCount: 2
Back
Fore
SplineSet
510 1647 m 2xfa
 367 1647 l 2
 347 1647 337 1657 337 1677 c 2
 337 1820 l 2
 337 1840 347 1850 367 1850 c 2
 510 1850 l 2
 530 1850 540 1840 540 1820 c 2
 540 1677 l 2
 540 1657 530 1647 510 1647 c 2xfa
901 1647 m 2
 759 1647 l 2
 739 1647 729 1657 729 1677 c 2
 729 1820 l 2
 729 1840 739 1850 759 1850 c 2
 901 1850 l 2
 921 1850 931 1840 931 1820 c 2
 931 1677 l 2
 931 1657 921 1647 901 1647 c 2
197 0 m 1
 197 1493 l 1
 1083 1493 l 1
 1083 1323 l 1
 399 1323 l 1
 399 881 l 1
 1053 881 l 1xf6
 1053 711 l 1
 399 711 l 1
 399 170 l 1
 1102 170 l 1
 1102 0 l 1
 197 0 l 1
EndSplineSet
EndChar

StartChar: Edotaccent
Encoding: 278 278 27
Width: 1233
Flags: MW
HStem: 0 170<399 1102 399 1102> 711 170<399 1053 399 1053> 1323 170<399 1083 399 399> 1647 205<551 706 561 706>
VStem: 197 202<170 711 881 1323> 531 205<1677 1822 1667 1832>
LayerCount: 2
Back
Fore
SplineSet
706 1647 m 2
 561 1647 l 2
 541 1647 531 1657 531 1677 c 2
 531 1822 l 2
 531 1842 541 1852 561 1852 c 2
 706 1852 l 2
 726 1852 736 1842 736 1822 c 2
 736 1677 l 2
 736 1657 726 1647 706 1647 c 2
197 0 m 1
 197 1493 l 1
 1083 1493 l 1
 1083 1323 l 1
 399 1323 l 1
 399 881 l 1
 1053 881 l 1
 1053 711 l 1
 399 711 l 1
 399 170 l 1
 1102 170 l 1
 1102 0 l 1
 197 0 l 1
EndSplineSet
EndChar

StartChar: Egrave
Encoding: 200 200 28
Width: 1233
Flags: MW
HStem: 0 170<399 1102 399 1102> 711 170<399 1053 399 1053> 1323 170<399 1083 399 399> 1836 20G<395 579 579 579>
VStem: 197 202<170 711 881 1323>
LayerCount: 2
Back
Fore
SplineSet
622 1592 m 1
 395 1856 l 1
 579 1856 l 1
 776 1592 l 1
 622 1592 l 1
197 0 m 1
 197 1493 l 1
 1083 1493 l 1
 1083 1323 l 1
 399 1323 l 1
 399 881 l 1
 1053 881 l 1
 1053 711 l 1
 399 711 l 1
 399 170 l 1
 1102 170 l 1
 1102 0 l 1
 197 0 l 1
EndSplineSet
EndChar

StartChar: Emacron
Encoding: 274 274 29
Width: 1233
Flags: MW
HStem: 0 170<399 1102 399 1102> 711 170<399 1053 399 1053> 1323 170<399 1083 399 399> 1652 148<335 933 335 933>
VStem: 197 202<170 711 881 1323>
LayerCount: 2
Back
Fore
SplineSet
335 1652 m 1
 335 1800 l 1
 933 1800 l 1
 933 1652 l 1
 335 1652 l 1
197 0 m 1
 197 1493 l 1
 1083 1493 l 1
 1083 1323 l 1
 399 1323 l 1
 399 881 l 1
 1053 881 l 1
 1053 711 l 1
 399 711 l 1
 399 170 l 1
 1102 170 l 1
 1102 0 l 1
 197 0 l 1
EndSplineSet
EndChar

StartChar: Eogonek
Encoding: 280 280 30
Width: 1233
Flags: MW
HStem: -395 123<938 979.5> 0 170<399 833 952 1102 952 952> 711 170<399 1053 399 1053> 1323 170<399 1083 399 399>
VStem: 197 202<170 711 881 1323> 725 139<-212 -188> 725 377<-280.5 0>
LayerCount: 2
Back
Fore
SplineSet
1102 0 m 1xfc
 952 0 l 1
 888 -87 864 -139 864 -184 c 0
 864 -240 902 -272 974 -272 c 0
 1015 -272 1057 -262 1098 -242 c 1
 1098 -375 l 1
 1042 -390 1004 -395 955 -395 c 0
 806 -395 725 -340 725 -221 c 0
 725 -155 751 -93 833 0 c 1
 197 0 l 1
 197 1493 l 1
 1083 1493 l 1
 1083 1323 l 1
 399 1323 l 1
 399 881 l 1
 1053 881 l 1
 1053 711 l 1
 399 711 l 1
 399 170 l 1
 1102 170 l 1xfa
 1102 0 l 1xfc
EndSplineSet
EndChar

StartChar: F
Encoding: 70 70 31
Width: 1233
Flags: MW
HStem: 0 21G<233 233 233 436> 693 170<436 1049 436 1049> 1323 170<436 1112 436 436>
VStem: 233 203<0 693 863 1323>
LayerCount: 2
Back
Fore
SplineSet
233 0 m 1
 233 1493 l 1
 1112 1493 l 1
 1112 1323 l 1
 436 1323 l 1
 436 863 l 1
 1049 863 l 1
 1049 693 l 1
 436 693 l 1
 436 0 l 1
 233 0 l 1
EndSplineSet
EndChar

StartChar: G
Encoding: 71 71 32
Width: 1233
Flags: MW
HStem: -29 164<636.5 724.5 636.5 740> 600 166<694 911 694 1104> 1356 164<641.5 736>
VStem: 102 211<637.5 847.5 637.5 868> 694 410<600 766 123 766> 911 193<199 600 600 600>
LayerCount: 2
Back
Fore
SplineSet
700 -29 m 0xf8
 509 -29 362 42 259 175 c 0
 155 311 102 503 102 744 c 0
 102 992 158 1184 262 1317 c 0
 366 1450 516 1520 703 1520 c 0
 770 1520 831 1511 887 1494 c 0
 946 1475 1001 1448 1053 1413 c 1xf4
 1053 1206 l 1
 996 1261 938 1297 887 1320 c 0
 828 1345 766 1356 706 1356 c 0
 577 1356 480 1308 412 1204 c 0
 345 1101 313 952 313 743 c 0
 313 532 345 385 409 285 c 0
 472 185 570 135 703 135 c 0
 746 135 785 140 820 151 c 0
 852 162 883 176 911 199 c 1
 911 600 l 1
 694 600 l 1
 694 766 l 1
 1104 766 l 1
 1104 123 l 1
 1050 73 989 35 922 10 c 0
 854 -16 780 -29 700 -29 c 0xf8
EndSplineSet
EndChar

StartChar: Gbreve
Encoding: 286 286 33
Width: 1233
Flags: MW
HStem: -29 164<637 726.5 637 740> 600 166<694 911 694 1104> 1356 164<641.5 733.5 606.5 736> 1589 131<601.5 712.5 601.5 752.5> 1589 242<343 752.5>
VStem: 102 211<637.5 847.5 637.5 864.5> 694 410<600 766 123 766> 911 193<199 600 600 600>
LayerCount: 2
Back
Fore
SplineSet
656 1589 m 0xed
 463 1589 358 1670 343 1831 c 1
 462 1831 l 1
 478 1759 545 1720 658 1720 c 0
 767 1720 831 1757 851 1831 c 1
 970 1831 l 1
 955 1671 849 1589 656 1589 c 0xed
700 -29 m 0
 509 -29 362 42 259 175 c 0
 155 311 102 503 102 744 c 0
 102 985 154 1179 261 1316 c 0
 362 1445 511 1520 702 1520 c 0
 765 1520 828 1513 887 1494 c 0
 946 1475 1005 1446 1053 1413 c 1
 1053 1206 l 1
 996 1261 938 1297 887 1320 c 0
 828 1345 766 1356 706 1356 c 0
 577 1356 480 1308 412 1204 c 0
 345 1101 313 952 313 743 c 0
 313 532 345 385 409 285 c 0
 476 181 571 135 703 135 c 0
 750 135 788 140 820 151 c 0
 852 162 883 176 911 199 c 1
 911 600 l 1
 694 600 l 1
 694 766 l 1
 1104 766 l 1xee
 1104 123 l 1xf6
 1050 73 989 35 922 10 c 0
 854 -16 780 -29 700 -29 c 0
EndSplineSet
EndChar

StartChar: Gcaron
Encoding: 486 486 34
Width: 1233
Flags: MW
HStem: -29 164<571.5 747.5 571.5 780.5> 600 166<694 911 694 1104> 1356 164<573.5 769 515 771> 1356 496<401 771>
VStem: 102 211<534.5 947 534.5 988> 694 410<600 766 123 766> 911 193<199 600 600 600>
LayerCount: 2
Back
Fore
SplineSet
612 1586 m 1xec
 401 1852 l 1
 541 1852 l 1
 706 1674 l 1
 872 1852 l 1
 1012 1852 l 1
 801 1586 l 1xea
 612 1586 l 1xec
700 -29 m 0
 324 -29 102 255 102 743 c 0
 102 1233 327 1520 703 1520 c 0
 835 1520 945 1485 1053 1413 c 1
 1053 1206 l 1
 945 1310 835 1356 707 1356 c 0
 440 1356 313 1155 313 739 c 0
 313 330 438 135 705 135 c 0
 790 135 855 155 911 199 c 1
 911 600 l 1
 694 600 l 1xdc
 694 766 l 1
 1104 766 l 1
 1104 123 l 1
 996 23 861 -29 700 -29 c 0
EndSplineSet
EndChar

StartChar: uni0122
Encoding: 290 290 35
Width: 1233
Flags: MW
HStem: -573 345<536 869 630 682> -29 164<571.5 747.5 571.5 780.5> 600 166<694 911 694 1104> 1356 164<573.5 769 515 771>
VStem: 102 211<534.5 947 534.5 988> 694 410<600 766 123 766> 911 193<199 600 600 600>
LayerCount: 2
Back
Fore
SplineSet
700 -29 m 0xfc
 324 -29 102 255 102 743 c 0
 102 1233 327 1520 703 1520 c 0
 835 1520 945 1485 1053 1413 c 1
 1053 1206 l 1
 945 1310 835 1356 707 1356 c 0
 440 1356 313 1155 313 739 c 0
 313 330 438 135 705 135 c 0
 790 135 855 155 911 199 c 1
 911 600 l 1xfa
 694 600 l 1
 694 766 l 1
 1104 766 l 1
 1104 123 l 1
 996 23 861 -29 700 -29 c 0xfc
536 -573 m 1
 630 -228 l 1
 869 -228 l 1
 682 -573 l 1
 536 -573 l 1
EndSplineSet
EndChar

StartChar: Gdotaccent
Encoding: 288 288 36
Width: 1233
Flags: MW
HStem: -29 164<571.5 747.5 571.5 780.5> 600 166<694 911 694 1104> 1356 164<573.5 769 515 771> 1647 205<608 763 618 763>
VStem: 102 211<534.5 947 534.5 988> 588 205<1677 1822 1667 1832> 694 410<600 766 123 766> 911 193<199 600 600 600>
LayerCount: 2
Back
Fore
SplineSet
763 1647 m 2xfa
 618 1647 l 2
 598 1647 588 1657 588 1677 c 2
 588 1822 l 2
 588 1842 598 1852 618 1852 c 2
 763 1852 l 2
 783 1852 793 1842 793 1822 c 2xfd
 793 1677 l 2
 793 1657 783 1647 763 1647 c 2xfa
700 -29 m 0
 324 -29 102 255 102 743 c 0
 102 1233 327 1520 703 1520 c 0
 835 1520 945 1485 1053 1413 c 1
 1053 1206 l 1
 945 1310 835 1356 707 1356 c 0
 440 1356 313 1155 313 739 c 0
 313 330 438 135 705 135 c 0
 790 135 855 155 911 199 c 1
 911 600 l 1
 694 600 l 1
 694 766 l 1
 1104 766 l 1
 1104 123 l 1
 996 23 861 -29 700 -29 c 0
EndSplineSet
EndChar

StartChar: H
Encoding: 72 72 37
Width: 1233
Flags: MW
HStem: 0 21G<137 137 137 340 893 893 893 1096> 711 170<340 893 340 893> 1473 20G<137 340 340 340 893 1096 1096 1096>
VStem: 137 203<0 711 881 1493> 893 203<0 711 711 711 881 1493 0 1493>
LayerCount: 2
Back
Fore
SplineSet
137 0 m 1
 137 1493 l 1
 340 1493 l 1
 340 881 l 1
 893 881 l 1
 893 1493 l 1
 1096 1493 l 1
 1096 0 l 1
 893 0 l 1
 893 711 l 1
 340 711 l 1
 340 0 l 1
 137 0 l 1
EndSplineSet
EndChar

StartChar: Hbar
Encoding: 294 294 38
Width: 1233
Flags: MW
HStem: 0 21G<137 137 137 339 893 893 893 1095> 711 170<339 893 339 893> 1105 164<3 137 3 137 339 893 1095 1230> 1473 20G<137 339 339 339 893 1095 1095 1095>
VStem: 137 202<0 711 881 1105 1269 1493> 893 202<0 711 711 711 881 1105 0 1105 1269 1493>
LayerCount: 2
Back
Fore
SplineSet
137 0 m 1
 137 1105 l 1
 3 1105 l 1
 3 1269 l 1
 137 1269 l 1
 137 1493 l 1
 339 1493 l 1
 339 1269 l 1
 893 1269 l 1
 893 1493 l 1
 1095 1493 l 1
 1095 1269 l 1
 1230 1269 l 1
 1230 1105 l 1
 1095 1105 l 1
 1095 0 l 1
 893 0 l 1
 893 711 l 1
 339 711 l 1
 339 0 l 1
 137 0 l 1
339 881 m 1
 893 881 l 1
 893 1105 l 1
 339 1105 l 1
 339 881 l 1
EndSplineSet
EndChar

StartChar: I
Encoding: 73 73 39
Width: 1233
Flags: MW
HStem: 0 170<201 514 201 514 717 1030> 1323 170<201 514 201 1030 717 717 717 1030>
VStem: 514 203<170 1323 170 1323>
LayerCount: 2
Back
Fore
SplineSet
201 0 m 1
 201 170 l 1
 514 170 l 1
 514 1323 l 1
 201 1323 l 1
 201 1493 l 1
 1030 1493 l 1
 1030 1323 l 1
 717 1323 l 1
 717 170 l 1
 1030 170 l 1
 1030 0 l 1
 201 0 l 1
EndSplineSet
EndChar

StartChar: Iacute
Encoding: 205 205 40
Width: 1233
Flags: MW
HStem: 0 170<201 514 201 514 717 1030> 1323 170<201 514 201 1030 717 717 717 1030> 1836 20G<691 877 877 877>
VStem: 514 203<170 1323 170 1323>
LayerCount: 2
Back
Fore
SplineSet
494 1592 m 1
 691 1856 l 1
 877 1856 l 1
 648 1592 l 1
 494 1592 l 1
201 0 m 1
 201 170 l 1
 514 170 l 1
 514 1323 l 1
 201 1323 l 1
 201 1493 l 1
 1030 1493 l 1
 1030 1323 l 1
 717 1323 l 1
 717 170 l 1
 1030 170 l 1
 1030 0 l 1
 201 0 l 1
EndSplineSet
EndChar

StartChar: Icircumflex
Encoding: 206 206 41
Width: 1233
Flags: MW
HStem: 0 170<201 514 201 514 717 1030> 1323 170<201 514 201 1030 717 717 717 1030> 1832 20G<521 710 710 710>
VStem: 514 203<170 1323 170 1323>
LayerCount: 2
Back
Fore
SplineSet
310 1586 m 1
 521 1852 l 1
 710 1852 l 1
 921 1586 l 1
 781 1586 l 1
 615 1764 l 1
 450 1586 l 1
 310 1586 l 1
201 0 m 1
 201 170 l 1
 514 170 l 1
 514 1323 l 1
 201 1323 l 1
 201 1493 l 1
 1030 1493 l 1
 1030 1323 l 1
 717 1323 l 1
 717 170 l 1
 1030 170 l 1
 1030 0 l 1
 201 0 l 1
EndSplineSet
EndChar

StartChar: Idieresis
Encoding: 207 207 42
Width: 1233
Flags: MW
HStem: 0 170<201 514 201 514 717 1030> 1323 170<201 514 201 1030 717 717 717 1030> 1647 203<339 492 349 492 741 883>
VStem: 319 203<1677 1820 1667 1830> 514 203<170 1323 170 1323> 711 202<1677 1820 1667 1830>
LayerCount: 2
Back
Fore
SplineSet
492 1647 m 2xe8
 349 1647 l 2
 329 1647 319 1657 319 1677 c 2
 319 1820 l 2
 319 1840 329 1850 349 1850 c 2
 492 1850 l 2
 512 1850 522 1840 522 1820 c 2
 522 1677 l 2
 522 1657 512 1647 492 1647 c 2xe8
883 1647 m 2
 741 1647 l 2
 721 1647 711 1657 711 1677 c 2
 711 1820 l 2
 711 1840 721 1850 741 1850 c 2
 883 1850 l 2
 903 1850 913 1840 913 1820 c 2xf4
 913 1677 l 2
 913 1657 903 1647 883 1647 c 2
201 0 m 1
 201 170 l 1
 514 170 l 1
 514 1323 l 1
 201 1323 l 1
 201 1493 l 1
 1030 1493 l 1
 1030 1323 l 1
 717 1323 l 1
 717 170 l 1
 1030 170 l 1
 1030 0 l 1
 201 0 l 1
EndSplineSet
EndChar

StartChar: Idotaccent
Encoding: 304 304 43
Width: 1233
Flags: MW
HStem: 0 170<201 514 201 514 717 1030> 1323 170<201 514 201 1030 717 717 717 1030> 1647 205<533 688 543 688>
VStem: 514 203<170 1323 170 1323>
LayerCount: 2
Back
Fore
SplineSet
688 1647 m 2
 543 1647 l 2
 523 1647 513 1657 513 1677 c 2
 513 1822 l 2
 513 1842 523 1852 543 1852 c 2
 688 1852 l 2
 708 1852 718 1842 718 1822 c 2
 718 1677 l 2
 718 1657 708 1647 688 1647 c 2
201 0 m 1
 201 170 l 1
 514 170 l 1
 514 1323 l 1
 201 1323 l 1
 201 1493 l 1
 1030 1493 l 1
 1030 1323 l 1
 717 1323 l 1
 717 170 l 1
 1030 170 l 1
 1030 0 l 1
 201 0 l 1
EndSplineSet
EndChar

StartChar: Igrave
Encoding: 204 204 44
Width: 1233
Flags: MW
HStem: 0 170<201 514 201 514 717 1030> 1323 170<201 514 201 1030 717 717 717 1030> 1836 20G<372 556 556 556>
VStem: 514 203<170 1323 170 1323>
LayerCount: 2
Back
Fore
SplineSet
599 1592 m 1
 372 1856 l 1
 556 1856 l 1
 753 1592 l 1
 599 1592 l 1
201 0 m 1
 201 170 l 1
 514 170 l 1
 514 1323 l 1
 201 1323 l 1
 201 1493 l 1
 1030 1493 l 1
 1030 1323 l 1
 717 1323 l 1
 717 170 l 1
 1030 170 l 1
 1030 0 l 1
 201 0 l 1
EndSplineSet
EndChar

StartChar: Imacron
Encoding: 298 298 45
Width: 1233
Flags: MW
HStem: 0 170<201 514 201 514 717 1030> 1323 170<201 514 201 1030 717 717 717 1030> 1652 148<335 933 335 933>
VStem: 514 203<170 1323 170 1323>
LayerCount: 2
Back
Fore
SplineSet
335 1652 m 1
 335 1800 l 1
 933 1800 l 1
 933 1652 l 1
 335 1652 l 1
201 0 m 1
 201 170 l 1
 514 170 l 1
 514 1323 l 1
 201 1323 l 1
 201 1493 l 1
 1030 1493 l 1
 1030 1323 l 1
 717 1323 l 1
 717 170 l 1
 1030 170 l 1
 1030 0 l 1
 201 0 l 1
EndSplineSet
EndChar

StartChar: Iogonek
Encoding: 302 302 46
Width: 1233
Flags: MW
HStem: -395 123<703 744.5> 0 170<201 514 201 598 201 514 717 1030> 1323 170<201 514 201 1030 717 1030 717 717>
VStem: 490 139<-212 -188> 490 373<-280.5 -242 -375 -188> 514 203<170 1323>
LayerCount: 2
Back
Fore
SplineSet
1030 1323 m 1xe4
 717 1323 l 1
 717 170 l 1
 1030 170 l 1
 1030 0 l 1
 717 0 l 1
 653 -87 629 -139 629 -184 c 0
 629 -240 667 -272 739 -272 c 0
 780 -272 822 -262 863 -242 c 1
 863 -375 l 1
 807 -390 769 -395 720 -395 c 0xe4
 571 -395 490 -340 490 -221 c 0
 490 -155 516 -93 598 0 c 1
 201 0 l 1
 201 170 l 1
 514 170 l 1xf0
 514 1323 l 1xe8
 201 1323 l 1
 201 1493 l 1
 1030 1493 l 1
 1030 1323 l 1xe4
EndSplineSet
EndChar

StartChar: Itilde
Encoding: 296 296 47
Width: 1233
Flags: MW
HStem: 0 170<201 514 201 514 717 1030> 1323 170<201 514 201 1030 717 717 717 1030> 1633 219<287 486.5 287 486.5>
VStem: 514 203<170 1323 170 1323>
LayerCount: 2
Back
Fore
SplineSet
412 1633 m 1
 287 1633 l 1
 287 1697 302 1750 339 1793 c 0
 373 1832 419 1852 476 1852 c 0
 497 1852 519 1849 542 1844 c 0
 562 1839 586 1828 621 1809 c 2
 678 1779 l 2
 692 1770 705 1764 718 1760 c 0
 729 1756 739 1754 750 1754 c 0
 771 1754 788 1763 801 1780 c 0
 814 1797 821 1819 821 1846 c 2
 821 1852 l 1
 946 1852 l 1
 945 1786 928 1733 893 1693 c 0
 859 1653 814 1633 757 1633 c 0
 736 1633 715 1636 694 1641 c 0
 675 1646 653 1655 612 1676 c 2
 555 1709 l 2
 540 1718 526 1724 514 1729 c 0
 503 1733 492 1734 485 1734 c 0
 465 1734 445 1726 432 1709 c 0
 419 1692 412 1668 412 1639 c 2
 412 1633 l 1
201 0 m 1
 201 170 l 1
 514 170 l 1
 514 1323 l 1
 201 1323 l 1
 201 1493 l 1
 1030 1493 l 1
 1030 1323 l 1
 717 1323 l 1
 717 170 l 1
 1030 170 l 1
 1030 0 l 1
 201 0 l 1
EndSplineSet
EndChar

StartChar: J
Encoding: 74 74 48
Width: 1233
Flags: MW
HStem: -29 164<467.5 543.5 464.5 583.5> 1323 170<373 754 373 956>
VStem: 754 202<487 1323 1323 1323>
LayerCount: 2
Back
Fore
SplineSet
502 -29 m 0
 433 -29 368 -22 307 -7 c 0
 242 8 176 31 109 61 c 1
 109 297 l 1
 170 243 232 203 297 176 c 0
 363 149 430 135 499 135 c 0
 588 135 659 158 698 210 c 0
 735 259 754 352 754 487 c 2
 754 1323 l 1
 373 1323 l 1
 373 1493 l 1
 956 1493 l 1
 956 487 l 2
 956 295 923 170 850 89 c 0
 777 8 665 -29 502 -29 c 0
EndSplineSet
EndChar

StartChar: K
Encoding: 75 75 49
Width: 1233
Flags: MW
HStem: 0 21G<137 137 137 340 981 981 981 1225> 1473 20G<137 340 340 340 971 1208 1208 1208>
VStem: 137 203<0 584 829 1493>
LayerCount: 2
Back
Fore
SplineSet
137 0 m 1
 137 1493 l 1
 340 1493 l 1
 340 829 l 1
 971 1493 l 1
 1208 1493 l 1
 627 883 l 1
 1225 0 l 1
 981 0 l 1
 494 748 l 1
 340 584 l 1
 340 0 l 1
 137 0 l 1
EndSplineSet
EndChar

StartChar: uni0136
Encoding: 310 310 50
Width: 1233
Flags: MW
HStem: -544 345<514 847 608 660> 0 21G<137 137 137 340 981 981 981 1225> 1473 20G<137 340 340 340 971 1208 1208 1208>
VStem: 137 203<0 584 829 1493>
LayerCount: 2
Back
Fore
SplineSet
137 0 m 1
 137 1493 l 1
 340 1493 l 1
 340 829 l 1
 971 1493 l 1
 1208 1493 l 1
 627 883 l 1
 1225 0 l 1
 981 0 l 1
 494 748 l 1
 340 584 l 1
 340 0 l 1
 137 0 l 1
514 -544 m 1
 608 -199 l 1
 847 -199 l 1
 660 -544 l 1
 514 -544 l 1
EndSplineSet
EndChar

StartChar: L
Encoding: 76 76 51
Width: 1233
Flags: MW
HStem: 0 170<418 1139 418 1139> 1473 20G<215 418 418 418>
VStem: 215 203<170 1493 170 1493 170 1493>
LayerCount: 2
Back
Fore
SplineSet
215 0 m 1
 215 1493 l 1
 418 1493 l 1
 418 170 l 1
 1139 170 l 1
 1139 0 l 1
 215 0 l 1
EndSplineSet
EndChar

StartChar: Lacute
Encoding: 313 313 52
Width: 1233
Flags: MW
HStem: 0 170<418 1139 418 1139> 1473 20G<215 418 418 418> 1836 20G<412 598 598 598>
VStem: 215 203<170 1493 170 1493 170 1493 170 1592>
LayerCount: 2
Back
Fore
SplineSet
215 1592 m 1
 412 1856 l 1
 598 1856 l 1
 369 1592 l 1
 215 1592 l 1
215 0 m 1
 215 1493 l 1
 418 1493 l 1
 418 170 l 1
 1139 170 l 1
 1139 0 l 1
 215 0 l 1
EndSplineSet
EndChar

StartChar: Lcaron
Encoding: 317 317 53
Width: 1233
Flags: MW
HStem: 0 170<418 1139 418 1139> 1115 378<215 649 215 803>
VStem: 215 203<170 1493 170 1493 170 1493>
LayerCount: 2
Back
Fore
SplineSet
215 0 m 1
 215 1493 l 1
 418 1493 l 1
 418 170 l 1
 1139 170 l 1
 1139 0 l 1
 215 0 l 1
649 1115 m 1
 718 1491 l 1
 916 1491 l 1
 803 1115 l 1
 649 1115 l 1
EndSplineSet
EndChar

StartChar: uni013B
Encoding: 315 315 54
Width: 1233
Flags: MW
HStem: -544 345<510 843 604 656> 0 170<418 1139 418 1139> 1473 20G<215 418 418 418>
VStem: 215 203<170 1493 170 1493 170 1493>
LayerCount: 2
Back
Fore
SplineSet
215 0 m 1
 215 1493 l 1
 418 1493 l 1
 418 170 l 1
 1139 170 l 1
 1139 0 l 1
 215 0 l 1
510 -544 m 1
 604 -199 l 1
 843 -199 l 1
 656 -544 l 1
 510 -544 l 1
EndSplineSet
EndChar

StartChar: Lslash
Encoding: 321 321 55
Width: 1233
Flags: MW
HStem: 0 170<418 1139 418 1139> 1473 20G<215 418 418 418>
VStem: 215 203<170 571 571 571 877 1493>
LayerCount: 2
Back
Fore
SplineSet
215 0 m 1
 215 571 l 1
 70 465 l 1
 -10 575 l 1
 215 733 l 1
 215 1493 l 1
 418 1493 l 1
 418 877 l 1
 733 1096 l 1
 811 985 l 1
 418 711 l 1
 418 170 l 1
 1139 170 l 1
 1139 0 l 1
 215 0 l 1
EndSplineSet
EndChar

StartChar: M
Encoding: 77 77 56
Width: 1233
Flags: MW
HStem: 0 21G<86 86 86 272 958 958 958 1145> 1473 20G<86 356 356 356 874 1145 1145 1145>
VStem: 86 186<0 1319 0 1493 0 1493> 958 187<0 1319 1319 1319>
LayerCount: 2
Back
Fore
SplineSet
86 0 m 1
 86 1493 l 1
 356 1493 l 1
 614 733 l 1
 874 1493 l 1
 1145 1493 l 1
 1145 0 l 1
 958 0 l 1
 958 1319 l 1
 692 532 l 1
 539 532 l 1
 272 1319 l 1
 272 0 l 1
 86 0 l 1
EndSplineSet
EndChar

StartChar: N
Encoding: 78 78 57
Width: 1233
Flags: MW
HStem: 0 21G<139 139 139 334 838 838 838 1094> 1473 20G<139 395 395 395 899 1094 1094 1094>
VStem: 139 195<0 1229 0 1493> 899 195<264 1493 0 1493>
LayerCount: 2
Back
Fore
SplineSet
139 0 m 1
 139 1493 l 1
 395 1493 l 1
 899 264 l 1
 899 1493 l 1
 1094 1493 l 1
 1094 0 l 1
 838 0 l 1
 334 1229 l 1
 334 0 l 1
 139 0 l 1
EndSplineSet
EndChar

StartChar: Nacute
Encoding: 323 323 58
Width: 1233
Flags: MW
HStem: 0 21G<139 139 139 334 838 838 838 1094> 1473 20G<139 395 395 395 899 1094 1094 1094> 1836 20G<731 917 917 917>
VStem: 139 195<0 1229 0 1493> 899 195<264 1493 0 1493>
LayerCount: 2
Back
Fore
SplineSet
534 1592 m 1
 731 1856 l 1
 917 1856 l 1
 688 1592 l 1
 534 1592 l 1
139 0 m 1
 139 1493 l 1
 395 1493 l 1
 899 264 l 1
 899 1493 l 1
 1094 1493 l 1
 1094 0 l 1
 838 0 l 1
 334 1229 l 1
 334 0 l 1
 139 0 l 1
EndSplineSet
EndChar

StartChar: Ncaron
Encoding: 327 327 59
Width: 1233
Flags: MW
HStem: 0 21G<139 139 139 334 838 838 838 1094> 1473 20G<139 395 395 395 899 1094 1094 1094> 1832 20G<347 487 487 487 818 958 958 958>
VStem: 139 195<0 1229 0 1493> 899 195<264 1493 0 1493>
LayerCount: 2
Back
Fore
SplineSet
558 1586 m 1
 347 1852 l 1
 487 1852 l 1
 652 1674 l 1
 818 1852 l 1
 958 1852 l 1
 747 1586 l 1
 558 1586 l 1
139 0 m 1
 139 1493 l 1
 395 1493 l 1
 899 264 l 1
 899 1493 l 1
 1094 1493 l 1
 1094 0 l 1
 838 0 l 1
 334 1229 l 1
 334 0 l 1
 139 0 l 1
EndSplineSet
EndChar

StartChar: uni0145
Encoding: 325 325 60
Width: 1233
Flags: MW
HStem: -544 345<450 783 544 596> 0 21G<139 139 139 334 838 838 838 1094> 1473 20G<139 395 395 395 899 1094 1094 1094>
VStem: 139 195<0 1229 0 1493> 899 195<264 1493 0 1493>
LayerCount: 2
Back
Fore
SplineSet
139 0 m 1
 139 1493 l 1
 395 1493 l 1
 899 264 l 1
 899 1493 l 1
 1094 1493 l 1
 1094 0 l 1
 838 0 l 1
 334 1229 l 1
 334 0 l 1
 139 0 l 1
450 -544 m 1
 544 -199 l 1
 783 -199 l 1
 596 -544 l 1
 450 -544 l 1
EndSplineSet
EndChar

StartChar: Eng
Encoding: 330 330 61
Width: 1233
Flags: MW
HStem: -426 156<536 703 536 703 703 741> 0 21G<147 349 147 147 882 882> 1358 135 1358 164<628.5 724.5>
VStem: 147 202<0 937> 882 203<0 999>
LayerCount: 2
Back
Fore
SplineSet
536 -426 m 1xdc
 536 -270 l 1
 703 -270 l 2
 823 -270 882 -195 882 0 c 2
 882 1009 l 2
 882 1249 807 1358 642 1358 c 0
 453 1358 349 1209 349 937 c 2
 349 0 l 1xec
 147 0 l 1
 147 1493 l 1
 331 1493 l 1
 349 1295 l 1
 421 1444 544 1522 713 1522 c 0
 961 1522 1085 1348 1085 999 c 2
 1085 -20 l 2
 1085 -281 962 -426 741 -426 c 2
 536 -426 l 1xdc
EndSplineSet
EndChar

StartChar: Ntilde
Encoding: 209 209 62
Width: 1233
Flags: MW
HStem: 0 21G<139 139 139 334 838 838 838 1094> 1473 20G<139 395 395 395 899 1094 1094 1094> 1633 219<287 486.5 287 486.5>
VStem: 139 195<0 1229 0 1493> 899 195<264 1493 0 1493>
LayerCount: 2
Back
Fore
SplineSet
412 1633 m 1
 287 1633 l 1
 287 1697 302 1750 339 1793 c 0
 373 1832 419 1852 476 1852 c 0
 497 1852 519 1849 542 1844 c 0
 562 1839 586 1828 621 1809 c 2
 678 1779 l 2
 692 1770 705 1764 718 1760 c 0
 729 1756 739 1754 750 1754 c 0
 771 1754 788 1763 801 1780 c 0
 814 1797 821 1819 821 1846 c 2
 821 1852 l 1
 946 1852 l 1
 945 1786 928 1733 893 1693 c 0
 859 1653 814 1633 757 1633 c 0
 736 1633 715 1636 694 1641 c 0
 675 1646 653 1655 612 1676 c 2
 555 1709 l 2
 540 1718 526 1724 514 1729 c 0
 503 1733 492 1734 485 1734 c 0
 465 1734 445 1726 432 1709 c 0
 419 1692 412 1668 412 1639 c 2
 412 1633 l 1
139 0 m 1
 139 1493 l 1
 395 1493 l 1
 899 264 l 1
 899 1493 l 1
 1094 1493 l 1
 1094 0 l 1
 838 0 l 1
 334 1229 l 1
 334 0 l 1
 139 0 l 1
EndSplineSet
EndChar

StartChar: O
Encoding: 79 79 63
Width: 1233
Flags: MW
HStem: -29 164<565 667.5 565 698> 1356 164<565 667.5>
VStem: 117 211<636 854.5 636 875.5> 905 211<634.5 855>
LayerCount: 2
Back
Fore
SplineSet
616 -29 m 0
 447 -29 322 35 240 162 c 0
 158 289 117 483 117 745 c 0
 117 1006 158 1201 241 1328 c 0
 324 1456 445 1520 616 1520 c 0
 780 1520 908 1461 993 1328 c 0
 1075 1200 1116 1006 1116 745 c 0
 1116 485 1075 291 993 163 c 0
 908 30 780 -29 616 -29 c 0
616 135 m 0
 719 135 793 182 838 276 c 0
 883 368 905 524 905 745 c 0
 905 965 883 1122 838 1215 c 0
 793 1309 719 1356 616 1356 c 0
 514 1356 441 1309 396 1215 c 0
 351 1120 328 964 328 745 c 0
 328 527 351 371 396 276 c 0
 441 182 514 135 616 135 c 0
EndSplineSet
Substitution2: "Single Substitution lookup 16 subtable" ordmasculine
Substitution2: "'aalt' Access All Alternates in Latin lookup 0 subtable" ordmasculine
EndChar

StartChar: Oacute
Encoding: 211 211 64
Width: 1233
Flags: MW
HStem: -29 164<565 667.5 565 698> 1356 164<565 667.5> 1356 500<565 887>
VStem: 117 211<636 854.5 636 875.5> 905 211<634.5 855>
LayerCount: 2
Back
Fore
SplineSet
504 1592 m 1xd8
 701 1856 l 1
 887 1856 l 1
 658 1592 l 1
 504 1592 l 1xd8
616 -29 m 0
 447 -29 322 35 240 162 c 0
 158 289 117 483 117 745 c 0
 117 1006 158 1201 241 1328 c 0
 324 1456 445 1520 616 1520 c 0
 780 1520 908 1461 993 1328 c 0
 1075 1200 1116 1006 1116 745 c 0
 1116 485 1075 291 993 163 c 0
 908 30 780 -29 616 -29 c 0
616 135 m 0
 719 135 793 182 838 276 c 0
 883 368 905 524 905 745 c 0
 905 965 883 1122 838 1215 c 0
 793 1309 719 1356 616 1356 c 0
 514 1356 441 1309 396 1215 c 0
 351 1120 328 964 328 745 c 0
 328 527 351 371 396 276 c 0xb8
 441 182 514 135 616 135 c 0
EndSplineSet
EndChar

StartChar: Ocircumflex
Encoding: 212 212 65
Width: 1233
Flags: MW
HStem: -29 164<565 667.5 565 698> 1356 164<565 667.5> 1356 496<565 667.5>
VStem: 117 211<636 854.5 636 875.5> 905 211<634.5 855>
LayerCount: 2
Back
Fore
SplineSet
329 1586 m 1xd8
 540 1852 l 1
 729 1852 l 1
 940 1586 l 1
 800 1586 l 1
 634 1764 l 1
 469 1586 l 1
 329 1586 l 1xd8
616 -29 m 0
 447 -29 322 35 240 162 c 0
 158 289 117 483 117 745 c 0
 117 1006 158 1201 241 1328 c 0
 324 1456 445 1520 616 1520 c 0
 780 1520 908 1461 993 1328 c 0
 1075 1200 1116 1006 1116 745 c 0
 1116 485 1075 291 993 163 c 0
 908 30 780 -29 616 -29 c 0
616 135 m 0
 719 135 793 182 838 276 c 0
 883 368 905 524 905 745 c 0
 905 965 883 1122 838 1215 c 0
 793 1309 719 1356 616 1356 c 0
 514 1356 441 1309 396 1215 c 0
 351 1120 328 964 328 745 c 0
 328 527 351 371 396 276 c 0xb8
 441 182 514 135 616 135 c 0
EndSplineSet
EndChar

StartChar: Odieresis
Encoding: 214 214 66
Width: 1233
Flags: MW
HStem: -29 164<565 667.5 565 698> 1356 164<565 667.5> 1647 203<339 492 349 492 741 883>
VStem: 117 211<636 854.5 636 875.5> 319 203<1677 1820 1667 1830> 711 202<1677 1820 1667 1830> 905 211<634.5 855>
LayerCount: 2
Back
Fore
SplineSet
492 1647 m 2xf2
 349 1647 l 2
 329 1647 319 1657 319 1677 c 2
 319 1820 l 2
 319 1840 329 1850 349 1850 c 2
 492 1850 l 2
 512 1850 522 1840 522 1820 c 2
 522 1677 l 2
 522 1657 512 1647 492 1647 c 2xf2
883 1647 m 2
 741 1647 l 2
 721 1647 711 1657 711 1677 c 2
 711 1820 l 2
 711 1840 721 1850 741 1850 c 2
 883 1850 l 2
 903 1850 913 1840 913 1820 c 2
 913 1677 l 2
 913 1657 903 1647 883 1647 c 2
616 -29 m 0
 447 -29 322 35 240 162 c 0
 158 289 117 483 117 745 c 0
 117 1006 158 1201 241 1328 c 0xec
 324 1456 445 1520 616 1520 c 0
 780 1520 908 1461 993 1328 c 0
 1075 1200 1116 1006 1116 745 c 0
 1116 485 1075 291 993 163 c 0
 908 30 780 -29 616 -29 c 0
616 135 m 0
 719 135 793 182 838 276 c 0
 883 368 905 524 905 745 c 0
 905 965 883 1122 838 1215 c 0
 793 1309 719 1356 616 1356 c 0
 514 1356 441 1309 396 1215 c 0
 351 1120 328 964 328 745 c 0
 328 527 351 371 396 276 c 0
 441 182 514 135 616 135 c 0
EndSplineSet
EndChar

StartChar: Ograve
Encoding: 210 210 67
Width: 1233
Flags: MW
HStem: -29 164<565 667.5 565 698> 1356 164<565 667.5> 1356 500<565 566 382 667.5>
VStem: 117 211<636 854.5 636 875.5> 905 211<634.5 855>
LayerCount: 2
Back
Fore
SplineSet
609 1592 m 1xd8
 382 1856 l 1
 566 1856 l 1
 763 1592 l 1
 609 1592 l 1xd8
616 -29 m 0
 447 -29 322 35 240 162 c 0
 158 289 117 483 117 745 c 0
 117 1006 158 1201 241 1328 c 0
 324 1456 445 1520 616 1520 c 0
 780 1520 908 1461 993 1328 c 0
 1075 1200 1116 1006 1116 745 c 0
 1116 485 1075 291 993 163 c 0
 908 30 780 -29 616 -29 c 0
616 135 m 0
 719 135 793 182 838 276 c 0
 883 368 905 524 905 745 c 0
 905 965 883 1122 838 1215 c 0
 793 1309 719 1356 616 1356 c 0
 514 1356 441 1309 396 1215 c 0
 351 1120 328 964 328 745 c 0
 328 527 351 371 396 276 c 0xb8
 441 182 514 135 616 135 c 0
EndSplineSet
EndChar

StartChar: Ohorn
Encoding: 416 416 68
Width: 1233
Flags: MW
HStem: -29 164<454 556.5 454 672.5> 1184 139<1005 1008 962 1076.5> 1184 373<1038 1076.5> 1356 164<454 556.5>
VStem: 6 211<636 854.5 636 1005.5> 794 211<634.5 836.5 485 855> 1068 123<1397 1438.5 1339.5 1453.5>
LayerCount: 2
Back
Fore
SplineSet
1038 1557 m 1xae
 1171 1557 l 1
 1186 1501 1191 1463 1191 1414 c 0
 1191 1265 1136 1184 1017 1184 c 0
 993 1184 969 1188 944 1196 c 1
 985 1079 1005 928 1005 745 c 0
 1005 225 841 -29 504 -29 c 0
 169 -29 6 221 6 744 c 0
 6 1267 169 1520 505 1520 c 0
 652 1520 765 1472 845 1376 c 1
 905 1337 944 1323 980 1323 c 0xde
 1036 1323 1068 1361 1068 1433 c 0
 1068 1474 1058 1516 1038 1557 c 1xae
727 276 m 0xae
 772 368 794 524 794 745 c 0
 794 965 772 1122 727 1215 c 0
 682 1309 608 1356 505 1356 c 0
 403 1356 330 1309 285 1215 c 0
 240 1120 217 964 217 745 c 0
 217 527 240 371 285 276 c 0
 330 182 403 135 505 135 c 0
 608 135 682 182 727 276 c 0xae
EndSplineSet
EndChar

StartChar: Ohungarumlaut
Encoding: 336 336 69
Width: 1233
Flags: MW
HStem: -29 164<565 667.5 565 783.5> 1356 164<565 667.5> 1595 264<344 727 344 727 663 727 541 817 663 663>
VStem: 117 211<636 854.5 636 1005.5> 905 211<634.5 855>
LayerCount: 2
Back
Fore
SplineSet
344 1595 m 1
 541 1859 l 1
 727 1859 l 1
 498 1595 l 1
 344 1595 l 1
663 1595 m 1
 860 1859 l 1
 1046 1859 l 1
 817 1595 l 1
 663 1595 l 1
615 -29 m 0
 280 -29 117 221 117 744 c 0
 117 1267 280 1520 616 1520 c 0
 953 1520 1116 1266 1116 745 c 0
 1116 225 952 -29 615 -29 c 0
616 135 m 0
 719 135 793 182 838 276 c 0
 883 368 905 524 905 745 c 0
 905 965 883 1122 838 1215 c 0
 793 1309 719 1356 616 1356 c 0
 514 1356 441 1309 396 1215 c 0
 351 1120 328 964 328 745 c 0
 328 527 351 371 396 276 c 0
 441 182 514 135 616 135 c 0
EndSplineSet
EndChar

StartChar: Omacron
Encoding: 332 332 70
Width: 1233
Flags: MW
HStem: -29 164<565 667.5 565 783.5> 1356 164<565 667.5> 1652 148<317 915 317 915>
VStem: 117 211<636 854.5 636 1005.5> 905 211<634.5 855>
LayerCount: 2
Back
Fore
SplineSet
317 1652 m 1
 317 1800 l 1
 915 1800 l 1
 915 1652 l 1
 317 1652 l 1
615 -29 m 0
 280 -29 117 221 117 744 c 0
 117 1267 280 1520 616 1520 c 0
 953 1520 1116 1266 1116 745 c 0
 1116 225 952 -29 615 -29 c 0
616 135 m 0
 719 135 793 182 838 276 c 0
 883 368 905 524 905 745 c 0
 905 965 883 1122 838 1215 c 0
 793 1309 719 1356 616 1356 c 0
 514 1356 441 1309 396 1215 c 0
 351 1120 328 964 328 745 c 0
 328 527 351 371 396 276 c 0
 441 182 514 135 616 135 c 0
EndSplineSet
EndChar

StartChar: Oslash
Encoding: 216 216 71
Width: 1233
Flags: MW
HStem: -70 21G<111 111> -29 164<589 671.5 589 701.5> 1356 164<559 643> 1539 20G<1100 1100>
VStem: 117 211<684 818.5 657 875.5> 905 211<627 782.5>
LayerCount: 2
Back
Fore
SplineSet
111 -70 m 1
 8 0 l 1
 186 252 l 1
 163 304 149 364 136 456 c 0
 124 540 117 628 117 740 c 0
 117 1011 157 1199 241 1328 c 0
 326 1460 450 1520 615 1520 c 0
 695 1520 759 1506 818 1479 c 0
 875 1452 922 1412 961 1358 c 1
 1100 1559 l 1
 1200 1485 l 1
 1032 1247 l 1
 1060 1192 1080 1118 1095 1037 c 0
 1108 960 1116 859 1116 744 c 0
 1116 485 1075 291 993 163 c 0
 913 38 791 -29 612 -29 c 0
 536 -29 469 -17 405 12 c 0
 345 39 295 79 254 133 c 1
 111 -70 l 1
338 471 m 1
 842 1190 l 1
 825 1246 795 1287 760 1314 c 0
 721 1343 671 1356 615 1356 c 0
 503 1356 437 1304 394 1208 c 0
 349 1107 328 951 328 686 c 0
 328 628 328 598 331 556 c 0
 332 537 331 518 338 471 c 1
617 135 m 0
 726 135 795 186 838 277 c 0
 881 365 905 506 905 748 c 0
 905 817 903 878 900 923 c 0
 897 967 893 1001 885 1036 c 1
 371 303 l 1
 391 251 423 210 467 180 c 0
 512 149 561 135 617 135 c 0
EndSplineSet
EndChar

StartChar: Oslashacute
Encoding: 510 510 72
Width: 1233
Flags: MW
HStem: -70 21G<111 111> -29 164<561 669.5 561 783> 1356 164<558.5 675.5> 1356 500<558.5 877>
VStem: 117 211<640 806 631.5 1004.5> 905 211<628.5 821.5>
LayerCount: 2
Back
Fore
SplineSet
494 1592 m 1xec
 691 1856 l 1
 877 1856 l 1
 648 1592 l 1
 494 1592 l 1xec
111 -70 m 1
 8 0 l 1
 186 252 l 1
 143 348 117 536 117 744 c 0
 117 1265 279 1520 614 1520 c 0
 769 1520 884 1466 961 1358 c 1
 1100 1559 l 1
 1200 1485 l 1
 1032 1247 l 1
 1088 1139 1116 964 1116 744 c 0
 1116 224 953 -29 613 -29 c 0
 454 -29 335 25 254 133 c 1
 111 -70 l 1
338 471 m 1
 842 1190 l 1
 810 1294 736 1356 615 1356 c 0
 502 1356 438 1303 395 1210 c 0
 346 1101 328 930 328 682 c 0
 328 581 331 516 338 471 c 1
619 135 m 0
 720 135 793 182 838 277 c 0
 881 366 905 502 905 755 c 0
 905 888 898 976 885 1036 c 1
 371 303 l 1xdc
 414 195 503 135 619 135 c 0
EndSplineSet
EndChar

StartChar: Otilde
Encoding: 213 213 73
Width: 1233
Flags: MW
HStem: -29 164<565 667.5 565 698> 1356 164<565 667.5> 1633 219<287 486.5 287 486.5>
VStem: 117 211<636 854.5 636 875.5> 905 211<634.5 855>
LayerCount: 2
Back
Fore
SplineSet
412 1633 m 1
 287 1633 l 1
 287 1697 302 1750 339 1793 c 0
 373 1832 419 1852 476 1852 c 0
 497 1852 519 1849 542 1844 c 0
 562 1839 586 1828 621 1809 c 2
 678 1779 l 2
 692 1770 705 1764 718 1760 c 0
 729 1756 739 1754 750 1754 c 0
 771 1754 788 1763 801 1780 c 0
 814 1797 821 1819 821 1846 c 2
 821 1852 l 1
 946 1852 l 1
 945 1786 928 1733 893 1693 c 0
 859 1653 814 1633 757 1633 c 0
 736 1633 715 1636 694 1641 c 0
 675 1646 653 1655 612 1676 c 2
 555 1709 l 2
 540 1718 526 1724 514 1729 c 0
 503 1733 492 1734 485 1734 c 0
 465 1734 445 1726 432 1709 c 0
 419 1692 412 1668 412 1639 c 2
 412 1633 l 1
616 -29 m 0
 447 -29 322 35 240 162 c 0
 158 289 117 483 117 745 c 0
 117 1006 158 1201 241 1328 c 0
 324 1456 445 1520 616 1520 c 0
 780 1520 908 1461 993 1328 c 0
 1075 1200 1116 1006 1116 745 c 0
 1116 485 1075 291 993 163 c 0
 908 30 780 -29 616 -29 c 0
616 135 m 0
 719 135 793 182 838 276 c 0
 883 368 905 524 905 745 c 0
 905 965 883 1122 838 1215 c 0
 793 1309 719 1356 616 1356 c 0
 514 1356 441 1309 396 1215 c 0
 351 1120 328 964 328 745 c 0
 328 527 351 371 396 276 c 0
 441 182 514 135 616 135 c 0
EndSplineSet
EndChar

StartChar: OE
Encoding: 338 338 74
Width: 1233
Flags: MW
HStem: 0 170<590 612 612 651 848 1217> 711 170<848 1176 848 1176> 1323 170<531 1206 612 651 848 1206 848 848>
VStem: 72 202<625 867.5 625 894.5> 651 197<170 711 881 1323>
LayerCount: 2
Back
Fore
SplineSet
1217 0 m 1
 612 0 l 2
 401 0 275 60 196 167 c 0
 111 283 72 468 72 747 c 0
 72 1042 116 1219 195 1327 c 0
 275 1436 405 1493 612 1493 c 2
 1206 1493 l 1
 1206 1323 l 1
 848 1323 l 1
 848 881 l 1
 1176 881 l 1
 1176 711 l 1
 848 711 l 1
 848 170 l 1
 1217 170 l 1
 1217 0 l 1
590 170 m 2
 651 170 l 1
 651 1323 l 1
 590 1323 l 2
 472 1323 390 1285 344 1208 c 0
 299 1132 274 990 274 745 c 0
 274 505 297 362 344 285 c 0
 390 208 472 170 590 170 c 2
EndSplineSet
EndChar

StartChar: P
Encoding: 80 80 75
Width: 1233
Flags: MW
HStem: 0 21G<172 172 172 374> 600 166<374 608 374 608> 1327 166<374 608 374 374>
VStem: 172 202<0 600 766 1327> 905 211<1002.5 1091.5>
LayerCount: 2
Back
Fore
SplineSet
172 0 m 1
 172 1493 l 1
 608 1493 l 2
 774 1493 900 1455 987 1380 c 0
 1076 1301 1116 1187 1116 1046 c 0
 1116 899 1073 788 988 713 c 0
 904 638 777 600 608 600 c 2
 374 600 l 1
 374 0 l 1
 172 0 l 1
374 766 m 1
 608 766 l 2
 708 766 779 795 827 840 c 0
 879 889 905 958 905 1047 c 0
 905 1136 879 1205 827 1254 c 0
 776 1303 703 1327 608 1327 c 2
 374 1327 l 1
 374 766 l 1
EndSplineSet
EndChar

StartChar: Thorn
Encoding: 222 222 76
Width: 1233
Flags: MW
HStem: 0 21G<201 201 201 403> 367 165<403 637 637 657 403 637> 1057 166<403 637 403 657> 1473 20G<201 403 403 403>
VStem: 201 202<0 367 532 1057 1223 1493> 952 213<751.5 837>
LayerCount: 2
Back
Fore
SplineSet
201 0 m 1
 201 1493 l 1
 403 1493 l 1
 403 1223 l 1
 657 1223 l 2
 830 1223 958 1188 1041 1118 c 0
 1124 1048 1165 940 1165 794 c 0
 1165 645 1122 540 1041 472 c 0
 958 402 830 367 657 367 c 2
 403 367 l 1
 403 0 l 1
 201 0 l 1
403 532 m 1
 637 532 l 2
 742 532 821 554 874 598 c 0
 926 642 952 708 952 795 c 0
 952 879 927 948 874 992 c 0
 826 1032 748 1057 637 1057 c 2
 403 1057 l 1
 403 532 l 1
EndSplineSet
EndChar

StartChar: Q
Encoding: 81 81 77
Width: 1233
Flags: MW
HStem: -270 21G<889 889 889 1125> -29 164<565 618.5> -27 21G<652.5 655> 1356 164<565 667.5>
VStem: 117 211<636 854.5 636 875.5> 905 211<647.5 855>
LayerCount: 2
Back
Fore
SplineSet
889 -270 m 1xdc
 655 -27 l 2
 650 -27 644 -27 635 -28 c 0
 626 -29 620 -29 617 -29 c 0
 450 -29 326 30 241 163 c 0
 156 296 117 489 117 745 c 0
 117 1006 158 1201 241 1328 c 0
 324 1456 445 1520 616 1520 c 0
 780 1520 908 1461 993 1328 c 0
 1075 1200 1116 1006 1116 745 c 0
 1116 550 1093 392 1048 272 c 0
 1004 155 935 68 840 20 c 1
 1125 -270 l 1
 889 -270 l 1xdc
616 135 m 0xbc
 719 135 793 182 838 276 c 0
 883 368 905 524 905 745 c 0
 905 965 883 1122 838 1215 c 0
 793 1309 719 1356 616 1356 c 0
 514 1356 441 1309 396 1215 c 0
 351 1120 328 964 328 745 c 0
 328 527 351 371 396 276 c 0
 441 182 514 135 616 135 c 0xbc
EndSplineSet
EndChar

StartChar: R
Encoding: 82 82 78
Width: 1233
Flags: MW
HStem: 0 21G<143 143 143 346 1016 1016 1016 1233> 631 166<346 539 346 567> 1327 166<346 559 346 346>
VStem: 143 203<0 631 797 1327> 854 213<1015.5 1102.5>
LayerCount: 2
Back
Fore
SplineSet
143 0 m 1
 143 1493 l 1
 559 1493 l 2
 723 1493 849 1456 936 1382 c 0
 1024 1307 1067 1200 1067 1065 c 0
 1067 960 1040 883 987 820 c 0
 934 757 858 719 760 705 c 1
 813 692 860 665 893 630 c 0
 930 591 971 525 1030 408 c 2
 1233 0 l 1
 1016 0 l 1
 838 377 l 2
 786 488 740 554 700 585 c 0
 659 617 602 631 539 631 c 2
 346 631 l 1
 346 0 l 1
 143 0 l 1
346 797 m 1
 567 797 l 2
 664 797 736 819 783 862 c 0
 830 905 854 972 854 1059 c 0
 854 1146 830 1212 779 1259 c 0
 731 1302 659 1327 559 1327 c 2
 346 1327 l 1
 346 797 l 1
EndSplineSet
EndChar

StartChar: Racute
Encoding: 340 340 79
Width: 1233
Flags: MW
HStem: 0 21G<143 143 143 346 1016 1016 1016 1233> 631 166<346 539 346 567> 1327 166<346 559 346 346> 1836 20G<631 817 817 817>
VStem: 143 203<0 631 797 1327> 854 213<969.5 1146.5>
LayerCount: 2
Back
Fore
SplineSet
434 1592 m 1
 631 1856 l 1
 817 1856 l 1
 588 1592 l 1
 434 1592 l 1
143 0 m 1
 143 1493 l 1
 559 1493 l 2
 886 1493 1067 1337 1067 1069 c 0
 1067 856 953 734 760 705 c 1
 869 675 920 626 1030 408 c 2
 1233 0 l 1
 1016 0 l 1
 838 377 l 2
 734 596 667 631 539 631 c 2
 346 631 l 1
 346 0 l 1
 143 0 l 1
346 797 m 1
 567 797 l 2
 758 797 854 883 854 1056 c 0
 854 1237 751 1327 559 1327 c 2
 346 1327 l 1
 346 797 l 1
EndSplineSet
EndChar

StartChar: Rcaron
Encoding: 344 344 80
Width: 1233
Flags: MW
HStem: 0 21G<143 143 143 346 1016 1016 1016 1233> 631 166<346 539 346 567> 1327 166<346 559 346 346> 1832 20G<257 397 397 397 728 868 868 868>
VStem: 143 203<0 631 797 1327> 854 213<969.5 1146.5>
LayerCount: 2
Back
Fore
SplineSet
468 1586 m 1
 257 1852 l 1
 397 1852 l 1
 562 1674 l 1
 728 1852 l 1
 868 1852 l 1
 657 1586 l 1
 468 1586 l 1
143 0 m 1
 143 1493 l 1
 559 1493 l 2
 886 1493 1067 1337 1067 1069 c 0
 1067 856 953 734 760 705 c 1
 869 675 920 626 1030 408 c 2
 1233 0 l 1
 1016 0 l 1
 838 377 l 2
 734 596 667 631 539 631 c 2
 346 631 l 1
 346 0 l 1
 143 0 l 1
346 797 m 1
 567 797 l 2
 758 797 854 883 854 1056 c 0
 854 1237 751 1327 559 1327 c 2
 346 1327 l 1
 346 797 l 1
EndSplineSet
EndChar

StartChar: uni0156
Encoding: 342 342 81
Width: 1233
Flags: MW
HStem: -544 345<522 855 616 668> 0 21G<143 143 143 346 1016 1016 1016 1233> 631 166<346 539 346 567> 1327 166<346 559 346 346>
VStem: 143 203<0 631 797 1327> 854 213<969.5 1146.5>
LayerCount: 2
Back
Fore
SplineSet
143 0 m 1
 143 1493 l 1
 559 1493 l 2
 886 1493 1067 1337 1067 1069 c 0
 1067 856 953 734 760 705 c 1
 869 675 920 626 1030 408 c 2
 1233 0 l 1
 1016 0 l 1
 838 377 l 2
 734 596 667 631 539 631 c 2
 346 631 l 1
 346 0 l 1
 143 0 l 1
346 797 m 1
 567 797 l 2
 758 797 854 883 854 1056 c 0
 854 1237 751 1327 559 1327 c 2
 346 1327 l 1
 346 797 l 1
522 -544 m 1
 616 -199 l 1
 855 -199 l 1
 668 -544 l 1
 522 -544 l 1
EndSplineSet
EndChar

StartChar: S
Encoding: 83 83 82
Width: 1233
Flags: MW
HStem: -29 164<548.5 631 546.5 666.5> 1356 164<596.5 659.5 555 673>
VStem: 139 193<1071 1143 1071 1147> 905 193<357.5 437.5>
LayerCount: 2
Back
Fore
SplineSet
584 -29 m 0
 513 -29 440 -22 371 -7 c 0
 302 8 226 33 158 61 c 1
 158 276 l 1
 235 227 307 192 376 169 c 0
 444 146 512 135 581 135 c 0
 681 135 763 158 820 203 c 0
 879 250 905 315 905 400 c 0
 905 475 886 526 847 565 c 0
 804 609 743 634 643 657 c 2
 535 682 l 2
 400 713 300 756 233 824 c 0
 170 887 139 972 139 1079 c 0
 139 1215 187 1324 274 1401 c 0
 359 1477 479 1520 631 1520 c 0
 688 1520 748 1514 812 1501 c 0
 874 1488 941 1469 1012 1442 c 1
 1012 1237 l 1
 948 1278 888 1306 828 1326 c 0
 766 1346 704 1356 642 1356 c 0
 551 1356 470 1335 414 1290 c 0
 358 1245 332 1181 332 1105 c 0
 332 1037 352 993 387 960 c 0
 428 921 490 895 590 872 c 2
 696 848 l 2
 837 816 936 765 1001 694 c 0
 1066 625 1098 530 1098 410 c 0
 1098 258 1048 152 967 83 c 0
 879 8 749 -29 584 -29 c 0
EndSplineSet
EndChar

StartChar: Sacute
Encoding: 346 346 83
Width: 1233
Flags: MW
HStem: -29 164<512.5 685 512.5 751.5> 1356 164<545.5 688 482.5 702.5> 1356 500<701 702.5>
VStem: 139 193<1041.5 1183 1041.5 1211.5> 905 193<315 472>
LayerCount: 2
Back
Fore
SplineSet
504 1592 m 1xd8
 701 1856 l 1
 887 1856 l 1
 658 1592 l 1
 504 1592 l 1xd8
586 -29 m 0
 439 -29 302 1 158 61 c 1
 158 276 l 1
 311 179 442 135 583 135 c 0
 787 135 905 225 905 405 c 0
 905 539 839 611 643 657 c 2
 535 682 l 2
 255 746 139 869 139 1077 c 0
 139 1346 334 1520 631 1520 c 0
 745 1520 872 1494 1012 1442 c 1
 1012 1237 l 1
 889 1316 765 1356 640 1356 c 0
 451 1356 332 1265 332 1101 c 0
 332 982 395 915 590 872 c 2
 696 848 l 2
 979 784 1098 644 1098 411 c 0xb8
 1098 124 917 -29 586 -29 c 0
EndSplineSet
EndChar

StartChar: Scaron
Encoding: 352 352 84
Width: 1233
Flags: MW
HStem: -29 164<548.5 632 548.5 665.5> 1356 164<592 659.5 555 673> 1356 496<327 673>
VStem: 139 193<1077.5 1145 1077.5 1147.5> 905 193<353 437>
LayerCount: 2
Back
Fore
SplineSet
538 1586 m 1xd8
 327 1852 l 1
 467 1852 l 1
 632 1674 l 1
 798 1852 l 1
 938 1852 l 1
 727 1586 l 1
 538 1586 l 1xd8
584 -29 m 0
 508 -29 435 -22 371 -7 c 0
 300 8 226 33 158 61 c 1
 158 276 l 1
 235 227 307 192 376 169 c 0
 448 145 515 135 582 135 c 0
 682 135 763 158 820 203 c 0
 873 246 905 307 905 399 c 0
 905 475 883 529 847 566 c 0
 806 609 736 636 643 657 c 2
 535 682 l 2
 400 713 300 756 233 824 c 0
 172 887 139 967 139 1079 c 0
 139 1216 189 1325 274 1401 c 0
 359 1477 479 1520 631 1520 c 0
 688 1520 748 1514 812 1501 c 0
 874 1488 941 1469 1012 1442 c 1
 1012 1237 l 1
 945 1280 884 1307 828 1326 c 0
 766 1346 704 1356 642 1356 c 0
 542 1356 465 1331 414 1290 c 0
 361 1247 332 1185 332 1105 c 0
 332 1050 344 1000 387 960 c 0
 426 923 489 895 590 872 c 2
 696 848 l 2xb8
 825 819 930 770 1001 694 c 0
 1066 625 1098 530 1098 410 c 0
 1098 258 1048 152 967 83 c 0
 879 7 747 -29 584 -29 c 0
EndSplineSet
EndChar

StartChar: Scedilla
Encoding: 350 350 85
Width: 1233
Flags: MW
HStem: -395 123<555.5 567.5 534.5 611.5> -29 21G<546 584 584 602> 1356 164<592 659.5 555 673>
VStem: 139 193<1077.5 1145 1077.5 1147.5> 395 414<-245.5 -240 -240 -240> 905 193<353 437>
LayerCount: 2
Back
Fore
SplineSet
1001 694 m 0
 1066 625 1098 530 1098 410 c 0
 1098 258 1048 152 967 83 c 0
 904 30 820 -4 717 -20 c 1
 746 -55 770 -88 783 -115 c 0
 798 -146 809 -179 809 -219 c 0
 809 -272 789 -319 749 -350 c 0
 710 -379 653 -395 570 -395 c 0
 541 -395 512 -393 483 -389 c 0
 452 -385 423 -379 395 -371 c 1
 395 -240 l 1
 418 -251 442 -260 467 -265 c 0
 492 -270 523 -272 546 -272 c 0
 589 -272 620 -264 640 -248 c 0
 660 -232 670 -209 670 -180 c 0
 670 -159 663 -134 648 -105 c 0
 637 -82 621 -58 602 -29 c 1
 584 -29 l 2
 508 -29 435 -22 371 -7 c 0
 300 8 226 33 158 61 c 1
 158 276 l 1
 235 227 307 192 376 169 c 0
 448 145 515 135 582 135 c 0
 682 135 763 158 820 203 c 0
 873 246 905 307 905 399 c 0
 905 475 883 529 847 566 c 0
 806 609 736 636 643 657 c 2
 535 682 l 2
 400 713 300 756 233 824 c 0
 172 887 139 967 139 1079 c 0
 139 1216 189 1325 274 1401 c 0
 359 1477 479 1520 631 1520 c 0
 688 1520 748 1514 812 1501 c 0
 874 1488 941 1469 1012 1442 c 1
 1012 1237 l 1
 945 1280 884 1307 828 1326 c 0
 766 1346 704 1356 642 1356 c 0
 542 1356 465 1331 414 1290 c 0
 361 1247 332 1185 332 1105 c 0
 332 1050 344 1000 387 960 c 0
 426 923 489 895 590 872 c 2
 696 848 l 2
 825 819 930 770 1001 694 c 0
EndSplineSet
Substitution2: "'locl' Localized Forms in Latin lookup 3 subtable" uni0218
Substitution2: "'locl' Localized Forms in Latin lookup 2 subtable" uni0218
Substitution2: "'aalt' Access All Alternates in Latin lookup 0 subtable" uni0218
EndChar

StartChar: uni0218
Encoding: 536 536 86
Width: 1233
Flags: MW
HStem: -542 345<408 741 502 554> -29 164<512.5 685 512.5 751.5> 1356 164<545.5 688 482.5 702.5>
VStem: 139 193<1041.5 1183 1041.5 1211.5> 905 193<315 472>
LayerCount: 2
Back
Fore
SplineSet
586 -29 m 0
 439 -29 302 1 158 61 c 1
 158 276 l 1
 311 179 442 135 583 135 c 0
 787 135 905 225 905 405 c 0
 905 539 839 611 643 657 c 2
 535 682 l 2
 255 746 139 869 139 1077 c 0
 139 1346 334 1520 631 1520 c 0
 745 1520 872 1494 1012 1442 c 1
 1012 1237 l 1
 889 1316 765 1356 640 1356 c 0
 451 1356 332 1265 332 1101 c 0
 332 982 395 915 590 872 c 2
 696 848 l 2
 979 784 1098 644 1098 411 c 0
 1098 124 917 -29 586 -29 c 0
408 -542 m 1
 502 -197 l 1
 741 -197 l 1
 554 -542 l 1
 408 -542 l 1
EndSplineSet
EndChar

StartChar: T
Encoding: 84 84 87
Width: 1233
Flags: MW
HStem: 0 21G<516 516 516 719> 1323 170<47 516 47 1186 719 719 719 1186>
VStem: 516 203<0 1323 0 1323>
LayerCount: 2
Back
Fore
SplineSet
516 0 m 1
 516 1323 l 1
 47 1323 l 1
 47 1493 l 1
 1186 1493 l 1
 1186 1323 l 1
 719 1323 l 1
 719 0 l 1
 516 0 l 1
EndSplineSet
EndChar

StartChar: Tbar
Encoding: 358 358 88
Width: 1233
Flags: MW
HStem: 0 21G<516 516 516 719> 577 170<251 516 251 516 719 984> 1323 170<47 516 47 1186 719 719 719 1186>
VStem: 516 203<0 577 0 577 747 1323>
LayerCount: 2
Back
Fore
SplineSet
516 0 m 1
 516 577 l 1
 251 577 l 1
 251 747 l 1
 516 747 l 1
 516 1323 l 1
 47 1323 l 1
 47 1493 l 1
 1186 1493 l 1
 1186 1323 l 1
 719 1323 l 1
 719 747 l 1
 984 747 l 1
 984 577 l 1
 719 577 l 1
 719 0 l 1
 516 0 l 1
EndSplineSet
EndChar

StartChar: Tcaron
Encoding: 356 356 89
Width: 1233
Flags: MW
HStem: 0 21G<516 516 516 719> 1323 170<47 516 47 1186 719 719 719 1186> 1832 20G<317 457 457 457 788 928 928 928>
VStem: 516 203<0 1323 0 1323>
LayerCount: 2
Back
Fore
SplineSet
528 1586 m 1
 317 1852 l 1
 457 1852 l 1
 622 1674 l 1
 788 1852 l 1
 928 1852 l 1
 717 1586 l 1
 528 1586 l 1
516 0 m 1
 516 1323 l 1
 47 1323 l 1
 47 1493 l 1
 1186 1493 l 1
 1186 1323 l 1
 719 1323 l 1
 719 0 l 1
 516 0 l 1
EndSplineSet
EndChar

StartChar: uni021A
Encoding: 538 538 90
Width: 1233
Flags: MW
HStem: -395 123<540.5 586 517.5 649> 0 21G<516 582 516 516 700 719 700 700> 1323 170<47 516 47 1186 719 1186 719 719>
VStem: 395 414<-276.5 -240 -240 -240> 516 203<0 1323 0 1323> 670 139<-210.5 -183.5 -276.5 -161.5>
LayerCount: 2
Back
Fore
SplineSet
719 1323 m 1xe4
 719 0 l 1
 700 0 l 1
 776 -84 809 -147 809 -220 c 0
 809 -333 729 -395 569 -395 c 0
 512 -395 454 -387 395 -371 c 1
 395 -240 l 1
 436 -263 493 -272 542 -272 c 0
 630 -272 670 -239 670 -182 c 0
 670 -141 647 -91 582 0 c 1xe8
 516 0 l 1
 516 1323 l 1xf0
 47 1323 l 1
 47 1493 l 1
 1186 1493 l 1
 1186 1323 l 1
 719 1323 l 1xe4
EndSplineSet
EndChar

StartChar: U
Encoding: 85 85 91
Width: 1233
Flags: MW
HStem: -29 164<587.5 645 587.5 655.5> 1473 20G<147 350 350 350 883 1085 1085 1085>
VStem: 147 203<573 1493> 883 202<485 573 573 1493>
LayerCount: 2
Back
Fore
SplineSet
616 -29 m 0
 544 -29 483 -19 427 0 c 0
 375 19 316 49 273 88 c 0
 232 125 200 173 177 249 c 0
 156 316 147 409 147 573 c 2
 147 1493 l 1
 350 1493 l 1
 350 481 l 2
 350 408 352 357 356 326 c 0
 360 295 367 271 377 254 c 0
 398 215 429 185 470 165 c 0
 510 145 559 135 616 135 c 0
 674 135 723 145 763 165 c 0
 804 186 835 215 856 254 c 0
 867 274 873 293 877 325 c 0
 881 356 883 407 883 479 c 2
 883 1493 l 1
 1085 1493 l 1
 1085 573 l 2
 1085 397 1073 309 1057 249 c 0
 1038 182 1004 129 959 88 c 0
 915 48 858 19 806 0 c 0
 757 -17 695 -29 616 -29 c 0
EndSplineSet
EndChar

StartChar: Uacute
Encoding: 218 218 92
Width: 1233
Flags: MW
HStem: -29 164<587.5 645 587.5 655.5> 1473 20G<147 350 350 350 883 1085 1085 1085> 1836 20G<672 858 858 858>
VStem: 147 203<573 1493> 883 202<485 573 573 1493>
LayerCount: 2
Back
Fore
SplineSet
475 1592 m 1
 672 1856 l 1
 858 1856 l 1
 629 1592 l 1
 475 1592 l 1
616 -29 m 0
 544 -29 483 -19 427 0 c 0
 375 19 316 49 273 88 c 0
 232 125 200 173 177 249 c 0
 156 316 147 409 147 573 c 2
 147 1493 l 1
 350 1493 l 1
 350 481 l 2
 350 408 352 357 356 326 c 0
 360 295 367 271 377 254 c 0
 398 215 429 185 470 165 c 0
 510 145 559 135 616 135 c 0
 674 135 723 145 763 165 c 0
 804 186 835 215 856 254 c 0
 867 274 873 293 877 325 c 0
 881 356 883 407 883 479 c 2
 883 1493 l 1
 1085 1493 l 1
 1085 573 l 2
 1085 397 1073 309 1057 249 c 0
 1038 182 1004 129 959 88 c 0
 915 48 858 19 806 0 c 0
 757 -17 695 -29 616 -29 c 0
EndSplineSet
EndChar

StartChar: Ucircumflex
Encoding: 219 219 93
Width: 1233
Flags: MW
HStem: -29 164<587.5 645 587.5 655.5> 1473 20G<147 350 350 350 883 1085 1085 1085> 1832 20G<522 711 711 711>
VStem: 147 203<573 1493> 883 202<485 573 573 1493>
LayerCount: 2
Back
Fore
SplineSet
311 1586 m 1
 522 1852 l 1
 711 1852 l 1
 922 1586 l 1
 782 1586 l 1
 616 1764 l 1
 451 1586 l 1
 311 1586 l 1
616 -29 m 0
 544 -29 483 -19 427 0 c 0
 375 19 316 49 273 88 c 0
 232 125 200 173 177 249 c 0
 156 316 147 409 147 573 c 2
 147 1493 l 1
 350 1493 l 1
 350 481 l 2
 350 408 352 357 356 326 c 0
 360 295 367 271 377 254 c 0
 398 215 429 185 470 165 c 0
 510 145 559 135 616 135 c 0
 674 135 723 145 763 165 c 0
 804 186 835 215 856 254 c 0
 867 274 873 293 877 325 c 0
 881 356 883 407 883 479 c 2
 883 1493 l 1
 1085 1493 l 1
 1085 573 l 2
 1085 397 1073 309 1057 249 c 0
 1038 182 1004 129 959 88 c 0
 915 48 858 19 806 0 c 0
 757 -17 695 -29 616 -29 c 0
EndSplineSet
EndChar

StartChar: Udieresis
Encoding: 220 220 94
Width: 1233
Flags: MW
HStem: -29 164<587.5 645 587.5 655.5> 1473 20G<147 350 350 350 883 1085 1085 1085> 1647 203<339 492 349 492 741 883>
VStem: 147 203<573 1493> 711 202<1677 1820 1667 1830> 883 202<485 573 573 1493>
LayerCount: 2
Back
Fore
SplineSet
492 1647 m 2xf4
 349 1647 l 2
 329 1647 319 1657 319 1677 c 2
 319 1820 l 2
 319 1840 329 1850 349 1850 c 2
 492 1850 l 2
 512 1850 522 1840 522 1820 c 2
 522 1677 l 2
 522 1657 512 1647 492 1647 c 2xf4
883 1647 m 2
 741 1647 l 2
 721 1647 711 1657 711 1677 c 2
 711 1820 l 2
 711 1840 721 1850 741 1850 c 2
 883 1850 l 2
 903 1850 913 1840 913 1820 c 2
 913 1677 l 2
 913 1657 903 1647 883 1647 c 2
616 -29 m 0
 544 -29 483 -19 427 0 c 0
 375 19 316 49 273 88 c 0
 232 125 200 173 177 249 c 0
 156 316 147 409 147 573 c 2
 147 1493 l 1
 350 1493 l 1
 350 481 l 2
 350 408 352 357 356 326 c 0xf8
 360 295 367 271 377 254 c 0
 398 215 429 185 470 165 c 0xf4
 510 145 559 135 616 135 c 0
 674 135 723 145 763 165 c 0xf8
 804 186 835 215 856 254 c 0
 867 274 873 293 877 325 c 0
 881 356 883 407 883 479 c 2
 883 1493 l 1
 1085 1493 l 1
 1085 573 l 2
 1085 397 1073 309 1057 249 c 0
 1038 182 1004 129 959 88 c 0
 915 48 858 19 806 0 c 0
 757 -17 695 -29 616 -29 c 0
EndSplineSet
EndChar

StartChar: Ugrave
Encoding: 217 217 95
Width: 1233
Flags: MW
HStem: -29 164<587.5 645 587.5 655.5> 1473 20G<147 350 350 350 883 1085 1085 1085> 1832 20G<377 561 561 561>
VStem: 147 203<573 1493> 883 202<485 573 573 1493>
LayerCount: 2
Back
Fore
SplineSet
604 1588 m 1
 377 1852 l 1
 561 1852 l 1
 758 1588 l 1
 604 1588 l 1
616 -29 m 0
 544 -29 483 -19 427 0 c 0
 375 19 316 49 273 88 c 0
 232 125 200 173 177 249 c 0
 156 316 147 409 147 573 c 2
 147 1493 l 1
 350 1493 l 1
 350 481 l 2
 350 408 352 357 356 326 c 0
 360 295 367 271 377 254 c 0
 398 215 429 185 470 165 c 0
 510 145 559 135 616 135 c 0
 674 135 723 145 763 165 c 0
 804 186 835 215 856 254 c 0
 867 274 873 293 877 325 c 0
 881 356 883 407 883 479 c 2
 883 1493 l 1
 1085 1493 l 1
 1085 573 l 2
 1085 397 1073 309 1057 249 c 0
 1038 182 1004 129 959 88 c 0
 915 48 858 19 806 0 c 0
 757 -17 695 -29 616 -29 c 0
EndSplineSet
EndChar

StartChar: Uhorn
Encoding: 431 431 96
Width: 1233
Flags: MW
HStem: -29 164<450 514> 1188 139<1032.5 1041 1003.5 1109.5> 1188 373<1071 1109.5> 1473 20G<9 212 212 212 745 947 947 947>
VStem: 9 203<573 1493> 745 202<489 573 573 1213 1342 1493> 1101 123<1401 1442.5 1343.5 1457.5>
LayerCount: 2
Back
Fore
SplineSet
1071 1561 m 1xde
 1204 1561 l 1
 1219 1505 1224 1467 1224 1418 c 0
 1224 1269 1169 1188 1050 1188 c 0xae
 1015 1188 983 1194 947 1213 c 1
 947 573 l 2
 947 405 937 316 918 248 c 0
 876 108 774 35 669 0 c 0
 611 -19 548 -29 480 -29 c 0
 335 -29 216 15 136 87 c 0
 88 131 57 186 38 250 c 0
 19 313 9 409 9 573 c 2
 9 1493 l 1
 212 1493 l 1
 212 481 l 2
 212 408 214 357 218 326 c 0
 226 269 253 201 332 164 c 0
 371 145 422 135 478 135 c 0
 591 135 682 178 719 254 c 0
 727 270 735 294 739 325 c 0
 743 356 745 407 745 479 c 2
 745 1493 l 1
 947 1493 l 1
 947 1342 l 1
 972 1332 994 1327 1013 1327 c 0
 1069 1327 1101 1365 1101 1437 c 0
 1101 1478 1091 1520 1071 1561 c 1xde
EndSplineSet
EndChar

StartChar: Uhungarumlaut
Encoding: 368 368 97
Width: 1233
Flags: MW
HStem: -29 164<588 652> 1473 20G<147 350 350 350 883 1085 1085 1085> 1588 264<344 727 344 727 663 727 541 817 663 663>
VStem: 147 203<573 1493> 883 202<489 573 573 1493>
LayerCount: 2
Back
Fore
SplineSet
344 1588 m 1
 541 1852 l 1
 727 1852 l 1
 498 1588 l 1
 344 1588 l 1
663 1588 m 1
 860 1852 l 1
 1046 1852 l 1
 817 1588 l 1
 663 1588 l 1
618 -29 m 0
 473 -29 354 15 274 87 c 0
 226 131 195 186 176 250 c 0
 157 313 147 409 147 573 c 2
 147 1493 l 1
 350 1493 l 1
 350 481 l 2
 350 408 352 357 356 326 c 0
 364 269 391 201 470 164 c 0
 509 145 560 135 616 135 c 0
 729 135 820 178 857 254 c 0
 865 270 873 294 877 325 c 0
 881 356 883 407 883 479 c 2
 883 1493 l 1
 1085 1493 l 1
 1085 573 l 2
 1085 405 1075 316 1056 248 c 0
 1014 108 912 35 807 0 c 0
 749 -19 686 -29 618 -29 c 0
EndSplineSet
EndChar

StartChar: Umacron
Encoding: 362 362 98
Width: 1233
Flags: MW
HStem: -29 164<588 652> 1473 20G<147 350 350 350 883 1085 1085 1085> 1652 148<317 915 317 915>
VStem: 147 203<573 1493> 883 202<489 573 573 1493>
LayerCount: 2
Back
Fore
SplineSet
317 1652 m 1
 317 1800 l 1
 915 1800 l 1
 915 1652 l 1
 317 1652 l 1
618 -29 m 0
 473 -29 354 15 274 87 c 0
 226 131 195 186 176 250 c 0
 157 313 147 409 147 573 c 2
 147 1493 l 1
 350 1493 l 1
 350 481 l 2
 350 408 352 357 356 326 c 0
 364 269 391 201 470 164 c 0
 509 145 560 135 616 135 c 0
 729 135 820 178 857 254 c 0
 865 270 873 294 877 325 c 0
 881 356 883 407 883 479 c 2
 883 1493 l 1
 1085 1493 l 1
 1085 573 l 2
 1085 405 1075 316 1056 248 c 0
 1014 108 912 35 807 0 c 0
 749 -19 686 -29 618 -29 c 0
EndSplineSet
EndChar

StartChar: Uogonek
Encoding: 370 370 99
Width: 1233
Flags: MW
HStem: -411 123<661 702.5> 1473 20G<147 350 350 350 883 1085 1085 1085>
VStem: 147 203<573 1493> 448 139<-228 -205.5> 448 373<-296.5 -258 -391 -205.5> 883 202<489 573 573 1493>
LayerCount: 2
Back
Fore
SplineSet
883 1493 m 1xec
 1085 1493 l 1
 1085 573 l 2
 1085 405 1075 316 1056 248 c 0
 1014 108 912 35 807 0 c 0
 764 -15 718 -24 667 -27 c 1
 608 -108 587 -157 587 -200 c 0
 587 -256 625 -288 697 -288 c 0
 738 -288 780 -278 821 -258 c 1
 821 -391 l 1
 765 -406 727 -411 678 -411 c 0
 529 -411 448 -356 448 -237 c 0
 448 -174 471 -112 548 -25 c 1
 433 -14 341 27 274 87 c 0
 226 131 195 186 176 250 c 0
 157 313 147 409 147 573 c 2
 147 1493 l 1
 350 1493 l 1
 350 481 l 2
 350 408 352 357 356 326 c 0
 364 269 391 201 470 164 c 0xf4
 509 145 560 135 616 135 c 0
 729 135 820 178 857 254 c 0
 865 270 873 294 877 325 c 0
 881 356 883 407 883 479 c 2
 883 1493 l 1xec
EndSplineSet
EndChar

StartChar: Uring
Encoding: 366 366 100
Width: 1233
Flags: MW
HStem: -29 164<588 652> 1352 141 1778 123<583.5 668>
VStem: 147 203<573 1493> 352 123<1584 1669.5 1584 1703> 778 123<1585 1669> 883 202<489 573 573 1493>
LayerCount: 2
Back
Fore
SplineSet
627 1352 m 0xfa
 473 1352 352 1474 352 1627 c 0
 352 1779 473 1901 627 1901 c 0
 782 1901 901 1779 901 1627 c 0
 901 1474 782 1352 627 1352 c 0xfa
626 1475 m 0
 710 1475 778 1543 778 1627 c 0
 778 1711 710 1778 626 1778 c 0
 541 1778 475 1712 475 1627 c 0
 475 1541 541 1475 626 1475 c 0
618 -29 m 0
 473 -29 354 15 274 87 c 0
 226 131 195 186 176 250 c 0
 157 313 147 409 147 573 c 2
 147 1493 l 1
 350 1493 l 1
 350 481 l 2
 350 408 352 357 356 326 c 0
 364 269 391 201 470 164 c 0
 509 145 560 135 616 135 c 0
 729 135 820 178 857 254 c 0
 865 270 873 294 877 325 c 0
 881 356 883 407 883 479 c 2xfc
 883 1493 l 1
 1085 1493 l 1
 1085 573 l 2
 1085 405 1075 316 1056 248 c 0
 1014 108 912 35 807 0 c 0
 749 -19 686 -29 618 -29 c 0
EndSplineSet
EndChar

StartChar: Utilde
Encoding: 360 360 101
Width: 1233
Flags: MW
HStem: -29 164<588 652> 1473 20G<147 350 350 350 883 1085 1085 1085> 1633 121<740.5 770.5 740.5 815> 1734 118<463.5 495.5>
VStem: 147 203<573 1493> 883 202<489 573 573 1493>
LayerCount: 2
Back
Fore
SplineSet
412 1633 m 1xec
 287 1633 l 1
 287 1769 357 1852 482 1852 c 0
 535 1852 570 1836 621 1809 c 2
 678 1779 l 2
 707 1762 731 1754 750 1754 c 0
 791 1754 821 1790 821 1846 c 2
 821 1852 l 1
 946 1852 l 1
 941 1721 877 1633 753 1633 c 0
 710 1633 673 1644 612 1676 c 2
 555 1709 l 2
 522 1728 505 1734 486 1734 c 0
 441 1734 412 1699 412 1639 c 2
 412 1633 l 1xec
618 -29 m 0xdc
 473 -29 354 15 274 87 c 0
 226 131 195 186 176 250 c 0
 157 313 147 409 147 573 c 2
 147 1493 l 1
 350 1493 l 1
 350 481 l 2
 350 408 352 357 356 326 c 0xec
 364 269 391 201 470 164 c 0
 509 145 560 135 616 135 c 0
 729 135 820 178 857 254 c 0xdc
 865 270 873 294 877 325 c 0xec
 881 356 883 407 883 479 c 2
 883 1493 l 1
 1085 1493 l 1xdc
 1085 573 l 2
 1085 405 1075 316 1056 248 c 0
 1014 108 912 35 807 0 c 0xec
 749 -19 686 -29 618 -29 c 0xdc
EndSplineSet
EndChar

StartChar: V
Encoding: 86 86 102
Width: 1233
Flags: MW
HStem: 0 21G<494 494 494 739> 1473 20G<57 266 266 266 967 1176 1176 1176>
LayerCount: 2
Back
Fore
SplineSet
494 0 m 1
 57 1493 l 1
 266 1493 l 1
 616 170 l 1
 967 1493 l 1
 1176 1493 l 1
 739 0 l 1
 494 0 l 1
EndSplineSet
EndChar

StartChar: W
Encoding: 87 87 103
Width: 1233
Flags: MW
HStem: 0 21G<223 223 223 414 819 819 819 1010> 1473 20G<0 197 197 197 1036 1233 1233 1233>
LayerCount: 2
Back
Fore
SplineSet
223 0 m 1
 0 1493 l 1
 197 1493 l 1
 340 281 l 1
 510 1083 l 1
 721 1083 l 1
 893 279 l 1
 1036 1493 l 1
 1233 1493 l 1
 1010 0 l 1
 819 0 l 1
 616 887 l 1
 414 0 l 1
 223 0 l 1
EndSplineSet
EndChar

StartChar: Wacute
Encoding: 7810 7810 104
Width: 1233
Flags: MW
HStem: 0 21G<223 223 223 414 819 819 819 1010> 1473 20G<0 197 197 197 1036 1233 1233 1233> 1836 20G<672 858 858 858>
LayerCount: 2
Back
Fore
SplineSet
475 1592 m 1
 672 1856 l 1
 858 1856 l 1
 629 1592 l 1
 475 1592 l 1
223 0 m 1
 0 1493 l 1
 197 1493 l 1
 340 281 l 1
 510 1083 l 1
 721 1083 l 1
 893 279 l 1
 1036 1493 l 1
 1233 1493 l 1
 1010 0 l 1
 819 0 l 1
 616 887 l 1
 414 0 l 1
 223 0 l 1
EndSplineSet
EndChar

StartChar: Wcircumflex
Encoding: 372 372 105
Width: 1233
Flags: MW
HStem: 0 21G<223 223 223 414 819 819 819 1010> 1473 20G<0 197 197 197 1036 1233 1233 1233> 1832 20G<522 711 711 711>
LayerCount: 2
Back
Fore
SplineSet
311 1586 m 1
 522 1852 l 1
 711 1852 l 1
 922 1586 l 1
 782 1586 l 1
 616 1764 l 1
 451 1586 l 1
 311 1586 l 1
223 0 m 1
 0 1493 l 1
 197 1493 l 1
 340 281 l 1
 510 1083 l 1
 721 1083 l 1
 893 279 l 1
 1036 1493 l 1
 1233 1493 l 1
 1010 0 l 1
 819 0 l 1
 616 887 l 1
 414 0 l 1
 223 0 l 1
EndSplineSet
EndChar

StartChar: Wdieresis
Encoding: 7812 7812 106
Width: 1233
Flags: MW
HStem: 0 21G<223 223 223 414 819 819 819 1010> 1473 20G<0 197 197 197 1036 1233 1233 1233> 1650 202<341.5 491 350 491 742 882>
VStem: 319 203<1681 1821 1672.5 1829.5> 711 202<1681 1821 1672.5 1829.5>
LayerCount: 2
Back
Fore
SplineSet
491 1650 m 2
 350 1650 l 2
 333 1650 319 1664 319 1681 c 2
 319 1821 l 2
 319 1838 333 1852 350 1852 c 2
 491 1852 l 2
 508 1852 522 1838 522 1821 c 2
 522 1681 l 2
 522 1664 508 1650 491 1650 c 2
882 1650 m 2
 742 1650 l 2
 725 1650 711 1664 711 1681 c 2
 711 1821 l 2
 711 1838 725 1852 742 1852 c 2
 882 1852 l 2
 899 1852 913 1838 913 1821 c 2
 913 1681 l 2
 913 1664 899 1650 882 1650 c 2
223 0 m 1
 0 1493 l 1
 197 1493 l 1
 340 281 l 1
 510 1083 l 1
 721 1083 l 1
 893 279 l 1
 1036 1493 l 1
 1233 1493 l 1
 1010 0 l 1
 819 0 l 1
 616 887 l 1
 414 0 l 1
 223 0 l 1
EndSplineSet
EndChar

StartChar: Wgrave
Encoding: 7808 7808 107
Width: 1233
Flags: MW
HStem: 0 21G<223 223 223 414 819 819 819 1010> 1473 20G<0 197 197 197 1036 1233 1233 1233> 1832 20G<377 561 561 561>
LayerCount: 2
Back
Fore
SplineSet
604 1588 m 1
 377 1852 l 1
 561 1852 l 1
 758 1588 l 1
 604 1588 l 1
223 0 m 1
 0 1493 l 1
 197 1493 l 1
 340 281 l 1
 510 1083 l 1
 721 1083 l 1
 893 279 l 1
 1036 1493 l 1
 1233 1493 l 1
 1010 0 l 1
 819 0 l 1
 616 887 l 1
 414 0 l 1
 223 0 l 1
EndSplineSet
EndChar

StartChar: X
Encoding: 88 88 108
Width: 1233
Flags: MW
HStem: 0 21G<18 18 18 236 997 997 997 1214> 1473 20G<86 303 303 303 965 1182 1182 1182>
LayerCount: 2
Back
Fore
SplineSet
18 0 m 1
 518 791 l 1
 86 1493 l 1
 303 1493 l 1
 631 930 l 1
 965 1493 l 1
 1182 1493 l 1
 735 791 l 1
 1214 0 l 1
 997 0 l 1
 631 643 l 1
 236 0 l 1
 18 0 l 1
EndSplineSet
EndChar

StartChar: Y
Encoding: 89 89 109
Width: 1233
Flags: MW
HStem: 0 21G<514 514 514 717> 1473 20G<37 252 252 252 979 1196 1196 1196>
VStem: 514 203<0 670 0 670>
LayerCount: 2
Back
Fore
SplineSet
514 0 m 1
 514 670 l 1
 37 1493 l 1
 252 1493 l 1
 616 834 l 1
 979 1493 l 1
 1196 1493 l 1
 717 670 l 1
 717 0 l 1
 514 0 l 1
EndSplineSet
EndChar

StartChar: Yacute
Encoding: 221 221 110
Width: 1233
Flags: MW
HStem: 0 21G<514 514 514 717> 1473 20G<37 252 252 252 979 1196 1196 1196> 1832 20G<672 858 858 858>
VStem: 514 203<0 670 0 670>
LayerCount: 2
Back
Fore
SplineSet
475 1588 m 1
 672 1852 l 1
 858 1852 l 1
 629 1588 l 1
 475 1588 l 1
514 0 m 1
 514 670 l 1
 37 1493 l 1
 252 1493 l 1
 616 834 l 1
 979 1493 l 1
 1196 1493 l 1
 717 670 l 1
 717 0 l 1
 514 0 l 1
EndSplineSet
EndChar

StartChar: Ycircumflex
Encoding: 374 374 111
Width: 1233
Flags: MW
HStem: 0 21G<514 514 514 717> 1473 20G<37 252 252 252 979 1196 1196 1196> 1832 20G<522 711 711 711>
VStem: 514 203<0 670 0 670>
LayerCount: 2
Back
Fore
SplineSet
311 1586 m 1
 522 1852 l 1
 711 1852 l 1
 922 1586 l 1
 782 1586 l 1
 616 1764 l 1
 451 1586 l 1
 311 1586 l 1
514 0 m 1
 514 670 l 1
 37 1493 l 1
 252 1493 l 1
 616 834 l 1
 979 1493 l 1
 1196 1493 l 1
 717 670 l 1
 717 0 l 1
 514 0 l 1
EndSplineSet
EndChar

StartChar: Ydieresis
Encoding: 376 376 112
Width: 1233
Flags: MW
HStem: 0 21G<514 514 514 717> 1473 20G<37 252 252 252 979 1196 1196 1196> 1649 203<339 492 349 492 741 883>
VStem: 319 203<1679 1822 1669 1832> 514 203<0 670 0 670> 711 202<1679 1822 1669 1832>
LayerCount: 2
Back
Fore
SplineSet
492 1649 m 2xe8
 349 1649 l 2
 329 1649 319 1659 319 1679 c 2
 319 1822 l 2
 319 1842 329 1852 349 1852 c 2
 492 1852 l 2
 512 1852 522 1842 522 1822 c 2
 522 1679 l 2
 522 1659 512 1649 492 1649 c 2xe8
883 1649 m 2
 741 1649 l 2
 721 1649 711 1659 711 1679 c 2
 711 1822 l 2xf4
 711 1842 721 1852 741 1852 c 2
 883 1852 l 2
 903 1852 913 1842 913 1822 c 2
 913 1679 l 2
 913 1659 903 1649 883 1649 c 2
514 0 m 1
 514 670 l 1
 37 1493 l 1
 252 1493 l 1
 616 834 l 1
 979 1493 l 1
 1196 1493 l 1
 717 670 l 1
 717 0 l 1
 514 0 l 1
EndSplineSet
EndChar

StartChar: Ygrave
Encoding: 7922 7922 113
Width: 1233
Flags: MW
HStem: 0 21G<514 514 514 717> 1473 20G<37 252 252 252 979 1196 1196 1196> 1832 20G<377 561 561 561>
VStem: 514 203<0 670 0 670>
LayerCount: 2
Back
Fore
SplineSet
604 1588 m 1
 377 1852 l 1
 561 1852 l 1
 758 1588 l 1
 604 1588 l 1
514 0 m 1
 514 670 l 1
 37 1493 l 1
 252 1493 l 1
 616 834 l 1
 979 1493 l 1
 1196 1493 l 1
 717 670 l 1
 717 0 l 1
 514 0 l 1
EndSplineSet
EndChar

StartChar: Z
Encoding: 90 90 114
Width: 1233
Flags: MW
HStem: 0 170<321 1123 321 1123> 1323 170<132 869 132 1101>
LayerCount: 2
Back
Fore
SplineSet
110 0 m 1
 110 154 l 1
 869 1323 l 1
 132 1323 l 1
 132 1493 l 1
 1101 1493 l 1
 1101 1339 l 1
 321 170 l 1
 1123 170 l 1
 1123 0 l 1
 110 0 l 1
EndSplineSet
EndChar

StartChar: Zacute
Encoding: 377 377 115
Width: 1233
Flags: MW
HStem: 0 170<321 1123 321 1123> 1323 170<132 869 132 1101> 1832 20G<653 839 839 839>
LayerCount: 2
Back
Fore
SplineSet
456 1588 m 1
 653 1852 l 1
 839 1852 l 1
 610 1588 l 1
 456 1588 l 1
110 0 m 1
 110 154 l 1
 869 1323 l 1
 132 1323 l 1
 132 1493 l 1
 1101 1493 l 1
 1101 1339 l 1
 321 170 l 1
 1123 170 l 1
 1123 0 l 1
 110 0 l 1
EndSplineSet
EndChar

StartChar: Zcaron
Encoding: 381 381 116
Width: 1233
Flags: MW
HStem: 0 170<321 1123 321 1123> 1323 170<132 869 132 1101> 1832 20G<265 405 405 405 736 876 876 876>
LayerCount: 2
Back
Fore
SplineSet
476 1586 m 1
 265 1852 l 1
 405 1852 l 1
 570 1674 l 1
 736 1852 l 1
 876 1852 l 1
 665 1586 l 1
 476 1586 l 1
110 0 m 1
 110 154 l 1
 869 1323 l 1
 132 1323 l 1
 132 1493 l 1
 1101 1493 l 1
 1101 1339 l 1
 321 170 l 1
 1123 170 l 1
 1123 0 l 1
 110 0 l 1
EndSplineSet
EndChar

StartChar: Zdotaccent
Encoding: 379 379 117
Width: 1233
Flags: MW
HStem: 0 170<321 1123 321 1123> 1323 170<132 869 132 1101> 1647 205<537 692 547 692>
VStem: 517 205<1677 1822 1667 1832>
LayerCount: 2
Back
Fore
SplineSet
692 1647 m 2
 547 1647 l 2
 527 1647 517 1657 517 1677 c 2
 517 1822 l 2
 517 1842 527 1852 547 1852 c 2
 692 1852 l 2
 712 1852 722 1842 722 1822 c 2
 722 1677 l 2
 722 1657 712 1647 692 1647 c 2
110 0 m 1
 110 154 l 1
 869 1323 l 1
 132 1323 l 1
 132 1493 l 1
 1101 1493 l 1
 1101 1339 l 1
 321 170 l 1
 1123 170 l 1
 1123 0 l 1
 110 0 l 1
EndSplineSet
EndChar

StartChar: a
Encoding: 97 97 118
Width: 1233
Flags: MW
HStem: -29 154<512.5 553.5> 0 21G<936 1121 936 936> 563 144<630 644 644 877> 991 156<566.5 644>
VStem: 136 184<302.5 374.5 302.5 388.5> 877 185<522 563 563 563 410 736 410 778.5>
LayerCount: 2
Back
Fore
SplineSet
513 -29 m 0xbc
 397 -29 305 3 238 68 c 0
 174 129 136 210 136 327 c 0
 136 450 178 545 262 610 c 0
 345 675 467 707 630 707 c 2
 877 707 l 1
 877 736 l 2
 877 821 854 890 809 931 c 0
 765 971 692 991 596 991 c 0
 533 991 469 982 405 964 c 0
 340 946 278 920 218 885 c 1
 218 1069 l 1
 274 1090 345 1113 414 1128 c 0
 475 1141 536 1147 597 1147 c 0x7c
 692 1147 767 1133 834 1105 c 0
 895 1078 953 1037 992 984 c 0
 1020 945 1037 901 1046 860 c 0
 1057 811 1062 738 1062 639 c 2
 1062 410 l 2
 1065 333 1064 277 1071 226 c 0
 1078 170 1087 116 1094 91 c 0
 1103 50 1118 7 1121 0 c 1
 936 0 l 1
 929 16 918 50 909 87 c 0
 902 116 896 149 893 170 c 1
 854 103 788 50 729 19 c 0
 665 -14 594 -29 513 -29 c 0xbc
551 125 m 0xbc
 652 125 731 160 789 231 c 0
 848 303 877 400 877 522 c 2
 877 563 l 1
 644 563 l 2
 537 563 457 544 402 507 c 0
 345 468 320 412 320 337 c 0
 320 268 342 217 381 181 c 0
 420 146 474 125 551 125 c 0xbc
EndSplineSet
Substitution2: "Single Substitution lookup 16 subtable" ordfeminine
Substitution2: "'aalt' Access All Alternates in Latin lookup 0 subtable" ordfeminine
EndChar

StartChar: aacute
Encoding: 225 225 119
Width: 1233
Flags: MW
HStem: -29 154<512.5 553.5> 0 21G<936 1121 936 936> 563 144<630 644 644 877> 991 156<566.5 644> 1653 20G<759 957 957 957>
VStem: 136 184<302.5 374.5 302.5 388.5> 877 185<522 563 563 563 410 736 410 778.5>
LayerCount: 2
Back
Fore
SplineSet
478 1297 m 1xbe
 759 1673 l 1
 957 1673 l 1
 632 1297 l 1
 478 1297 l 1xbe
513 -29 m 0
 397 -29 305 3 238 68 c 0
 174 129 136 210 136 327 c 0
 136 450 178 545 262 610 c 0
 345 675 467 707 630 707 c 2
 877 707 l 1
 877 736 l 2
 877 821 854 890 809 931 c 0
 765 971 692 991 596 991 c 0
 533 991 469 982 405 964 c 0x7e
 340 946 278 920 218 885 c 1
 218 1069 l 1
 274 1090 345 1113 414 1128 c 0
 475 1141 536 1147 597 1147 c 0
 692 1147 767 1133 834 1105 c 0
 895 1078 953 1037 992 984 c 0
 1020 945 1037 901 1046 860 c 0
 1057 811 1062 738 1062 639 c 2
 1062 410 l 2
 1065 333 1064 277 1071 226 c 0
 1078 170 1087 116 1094 91 c 0
 1103 50 1118 7 1121 0 c 1
 936 0 l 1
 929 16 918 50 909 87 c 0
 902 116 896 149 893 170 c 1
 854 103 788 50 729 19 c 0
 665 -14 594 -29 513 -29 c 0
551 125 m 0
 652 125 731 160 789 231 c 0
 848 303 877 400 877 522 c 2
 877 563 l 1
 644 563 l 2xbe
 537 563 457 544 402 507 c 0
 345 468 320 412 320 337 c 0
 320 268 342 217 381 181 c 0
 420 146 474 125 551 125 c 0
EndSplineSet
EndChar

StartChar: abreve
Encoding: 259 259 120
Width: 1233
Flags: MW
HStem: -29 154<512.5 553.5> 0 21G<936 1121 936 936> 563 144<630 644 644 877> 991 156<566.5 644> 1296 137<557.5 675.5 557.5 716> 1296 287<306 716>
VStem: 136 184<302.5 374.5 302.5 388.5> 877 185<522 563 563 563 410 736 410 778.5>
LayerCount: 2
Back
Fore
SplineSet
619 1296 m 0xb7
 426 1296 321 1392 306 1583 c 1
 425 1583 l 1
 440 1487 497 1433 618 1433 c 0
 733 1433 795 1482 814 1583 c 1
 933 1583 l 1
 918 1392 813 1296 619 1296 c 0xb7
513 -29 m 0
 397 -29 305 3 238 68 c 0
 174 129 136 210 136 327 c 0
 136 450 178 545 262 610 c 0
 345 675 467 707 630 707 c 2
 877 707 l 1
 877 736 l 2x77
 877 821 854 890 809 931 c 0
 765 971 692 991 596 991 c 0
 533 991 469 982 405 964 c 0
 340 946 278 920 218 885 c 1
 218 1069 l 1
 274 1090 345 1113 414 1128 c 0
 475 1141 536 1147 597 1147 c 0
 692 1147 767 1133 834 1105 c 0
 895 1078 953 1037 992 984 c 0
 1020 945 1037 901 1046 860 c 0
 1057 811 1062 738 1062 639 c 2
 1062 410 l 2
 1065 333 1064 277 1071 226 c 0
 1078 170 1087 116 1094 91 c 0
 1103 50 1118 7 1121 0 c 1
 936 0 l 1
 929 16 918 50 909 87 c 0
 902 116 896 149 893 170 c 1
 854 103 788 50 729 19 c 0
 665 -14 594 -29 513 -29 c 0
551 125 m 0
 652 125 731 160 789 231 c 0xb7
 848 303 877 400 877 522 c 2
 877 563 l 1
 644 563 l 2
 537 563 457 544 402 507 c 0xbb
 345 468 320 412 320 337 c 0xb7
 320 268 342 217 381 181 c 0
 420 146 474 125 551 125 c 0
EndSplineSet
EndChar

StartChar: acircumflex
Encoding: 226 226 121
Width: 1233
Flags: MW
HStem: -29 154<512.5 553.5> 0 21G<936 1121 936 936> 563 144<630 644 644 877> 991 156<566.5 644> 1653 20G<546 693 693 693>
VStem: 136 184<302.5 374.5 302.5 388.5> 877 185<522 563 563 563 410 736 410 778.5>
LayerCount: 2
Back
Fore
SplineSet
300 1297 m 1xbe
 546 1673 l 1
 693 1673 l 1
 939 1297 l 1
 800 1297 l 1
 619 1542 l 1
 439 1297 l 1
 300 1297 l 1xbe
513 -29 m 0
 397 -29 305 3 238 68 c 0
 174 129 136 210 136 327 c 0
 136 450 178 545 262 610 c 0
 345 675 467 707 630 707 c 2
 877 707 l 1
 877 736 l 2x7e
 877 821 854 890 809 931 c 0
 765 971 692 991 596 991 c 0
 533 991 469 982 405 964 c 0
 340 946 278 920 218 885 c 1
 218 1069 l 1
 274 1090 345 1113 414 1128 c 0
 475 1141 536 1147 597 1147 c 0
 692 1147 767 1133 834 1105 c 0
 895 1078 953 1037 992 984 c 0
 1020 945 1037 901 1046 860 c 0
 1057 811 1062 738 1062 639 c 2
 1062 410 l 2
 1065 333 1064 277 1071 226 c 0
 1078 170 1087 116 1094 91 c 0
 1103 50 1118 7 1121 0 c 1
 936 0 l 1
 929 16 918 50 909 87 c 0
 902 116 896 149 893 170 c 1
 854 103 788 50 729 19 c 0
 665 -14 594 -29 513 -29 c 0
551 125 m 0
 652 125 731 160 789 231 c 0xbe
 848 303 877 400 877 522 c 2
 877 563 l 1
 644 563 l 2
 537 563 457 544 402 507 c 0
 345 468 320 412 320 337 c 0
 320 268 342 217 381 181 c 0
 420 146 474 125 551 125 c 0
EndSplineSet
EndChar

StartChar: adieresis
Encoding: 228 228 122
Width: 1233
Flags: MW
HStem: -29 154<512.5 553.5> 0 21G<936 1121 936 936> 563 144<630 644 644 877> 991 156<566.5 644> 1350 202<342 495 352 495 744 886>
VStem: 136 184<302.5 374.5 302.5 388.5> 322 203<1380 1522 1370 1532> 714 202<1380 1522 1370 1532> 877 185<522 563 563 563 410 736 410 778.5>
LayerCount: 2
Back
Fore
SplineSet
495 1350 m 2xbe80
 352 1350 l 2
 332 1350 322 1360 322 1380 c 2
 322 1522 l 2
 322 1542 332 1552 352 1552 c 2
 495 1552 l 2
 515 1552 525 1542 525 1522 c 2
 525 1380 l 2
 525 1360 515 1350 495 1350 c 2xbe80
886 1350 m 2
 744 1350 l 2
 724 1350 714 1360 714 1380 c 2
 714 1522 l 2
 714 1542 724 1552 744 1552 c 2
 886 1552 l 2
 906 1552 916 1542 916 1522 c 2x7e80
 916 1380 l 2
 916 1360 906 1350 886 1350 c 2
513 -29 m 0
 397 -29 305 3 238 68 c 0
 174 129 136 210 136 327 c 0
 136 450 178 545 262 610 c 0
 345 675 467 707 630 707 c 2
 877 707 l 1
 877 736 l 2
 877 821 854 890 809 931 c 0
 765 971 692 991 596 991 c 0
 533 991 469 982 405 964 c 0
 340 946 278 920 218 885 c 1
 218 1069 l 1
 274 1090 345 1113 414 1128 c 0
 475 1141 536 1147 597 1147 c 0
 692 1147 767 1133 834 1105 c 0
 895 1078 953 1037 992 984 c 0
 1020 945 1037 901 1046 860 c 0
 1057 811 1062 738 1062 639 c 2
 1062 410 l 2
 1065 333 1064 277 1071 226 c 0xbf
 1078 170 1087 116 1094 91 c 0
 1103 50 1118 7 1121 0 c 1
 936 0 l 1
 929 16 918 50 909 87 c 0
 902 116 896 149 893 170 c 1
 854 103 788 50 729 19 c 0
 665 -14 594 -29 513 -29 c 0
551 125 m 0
 652 125 731 160 789 231 c 0
 848 303 877 400 877 522 c 2
 877 563 l 1
 644 563 l 2
 537 563 457 544 402 507 c 0
 345 468 320 412 320 337 c 0
 320 268 342 217 381 181 c 0
 420 146 474 125 551 125 c 0
EndSplineSet
EndChar

StartChar: agrave
Encoding: 224 224 123
Width: 1233
Flags: MW
HStem: -29 154<512.5 553.5> 0 21G<936 1121 936 936> 563 144<630 644 644 877> 991 156<566.5 644> 1653 20G<282 480 480 480>
VStem: 136 184<302.5 374.5 302.5 388.5> 877 185<522 563 563 563 410 736 410 778.5>
LayerCount: 2
Back
Fore
SplineSet
607 1297 m 1xbe
 282 1673 l 1
 480 1673 l 1
 761 1297 l 1
 607 1297 l 1xbe
513 -29 m 0
 397 -29 305 3 238 68 c 0
 174 129 136 210 136 327 c 0
 136 450 178 545 262 610 c 0
 345 675 467 707 630 707 c 2
 877 707 l 1
 877 736 l 2
 877 821 854 890 809 931 c 0
 765 971 692 991 596 991 c 0
 533 991 469 982 405 964 c 0x7e
 340 946 278 920 218 885 c 1
 218 1069 l 1
 274 1090 345 1113 414 1128 c 0
 475 1141 536 1147 597 1147 c 0
 692 1147 767 1133 834 1105 c 0
 895 1078 953 1037 992 984 c 0
 1020 945 1037 901 1046 860 c 0
 1057 811 1062 738 1062 639 c 2
 1062 410 l 2
 1065 333 1064 277 1071 226 c 0
 1078 170 1087 116 1094 91 c 0
 1103 50 1118 7 1121 0 c 1
 936 0 l 1
 929 16 918 50 909 87 c 0
 902 116 896 149 893 170 c 1
 854 103 788 50 729 19 c 0
 665 -14 594 -29 513 -29 c 0
551 125 m 0
 652 125 731 160 789 231 c 0
 848 303 877 400 877 522 c 2
 877 563 l 1
 644 563 l 2xbe
 537 563 457 544 402 507 c 0
 345 468 320 412 320 337 c 0
 320 268 342 217 381 181 c 0
 420 146 474 125 551 125 c 0
EndSplineSet
EndChar

StartChar: amacron
Encoding: 257 257 124
Width: 1233
Flags: MW
HStem: -29 154<512.5 553.5> 0 21G<936 1121 936 936> 563 144<630 644 644 877> 991 156<566.5 644> 1348 148<320 918 320 918>
VStem: 136 184<302.5 374.5 302.5 388.5> 877 185<522 563 563 563 410 736 410 778.5>
LayerCount: 2
Back
Fore
SplineSet
320 1348 m 1xbe
 320 1496 l 1
 918 1496 l 1
 918 1348 l 1
 320 1348 l 1xbe
513 -29 m 0
 397 -29 305 3 238 68 c 0
 174 129 136 210 136 327 c 0
 136 450 178 545 262 610 c 0
 345 675 467 707 630 707 c 2
 877 707 l 1
 877 736 l 2
 877 821 854 890 809 931 c 0
 765 971 692 991 596 991 c 0
 533 991 469 982 405 964 c 0x7e
 340 946 278 920 218 885 c 1
 218 1069 l 1
 274 1090 345 1113 414 1128 c 0
 475 1141 536 1147 597 1147 c 0
 692 1147 767 1133 834 1105 c 0
 895 1078 953 1037 992 984 c 0
 1020 945 1037 901 1046 860 c 0
 1057 811 1062 738 1062 639 c 2
 1062 410 l 2
 1065 333 1064 277 1071 226 c 0
 1078 170 1087 116 1094 91 c 0
 1103 50 1118 7 1121 0 c 1
 936 0 l 1
 929 16 918 50 909 87 c 0
 902 116 896 149 893 170 c 1
 854 103 788 50 729 19 c 0
 665 -14 594 -29 513 -29 c 0
551 125 m 0
 652 125 731 160 789 231 c 0
 848 303 877 400 877 522 c 2
 877 563 l 1
 644 563 l 2xbe
 537 563 457 544 402 507 c 0
 345 468 320 412 320 337 c 0
 320 268 342 217 381 181 c 0
 420 146 474 125 551 125 c 0
EndSplineSet
EndChar

StartChar: aogonek
Encoding: 261 261 125
Width: 1233
Flags: MW
HStem: -392 123<1042 1083.5> -29 154<512.5 553.5> 0 21G<1054 1121 1054 1054> 563 144<630 644 644 877> 991 156<566.5 644>
VStem: 136 184<302.5 374.5 302.5 388.5> 829 139<-209 -185> 829 373<-277.5 -239 -372 -185> 877 185<522 563 563 563 410 736 410 778.5>
LayerCount: 2
Back
Fore
SplineSet
1078 -269 m 0xdc80
 1119 -269 1161 -259 1202 -239 c 1
 1202 -372 l 1
 1146 -387 1108 -392 1059 -392 c 0
 910 -392 829 -337 829 -218 c 0
 829 -152 855 -92 935 1 c 1
 928 18 918 51 909 87 c 0
 902 116 896 149 893 170 c 1
 854 103 788 50 729 19 c 0
 665 -14 594 -29 513 -29 c 0xdc80
 397 -29 305 3 238 68 c 0
 174 129 136 210 136 327 c 0
 136 450 178 545 262 610 c 0
 345 675 467 707 630 707 c 2
 877 707 l 1xbe
 877 736 l 2
 877 821 854 890 809 931 c 0
 765 971 692 991 596 991 c 0
 533 991 469 982 405 964 c 0
 340 946 278 920 218 885 c 1
 218 1069 l 1
 274 1090 345 1113 414 1128 c 0
 475 1141 536 1147 597 1147 c 0
 692 1147 767 1133 834 1105 c 0
 895 1078 953 1037 992 984 c 0
 1020 945 1037 901 1046 860 c 0
 1057 811 1062 738 1062 639 c 2
 1062 410 l 2
 1065 333 1064 277 1071 226 c 0
 1078 170 1087 116 1094 91 c 0
 1103 50 1118 7 1121 0 c 1
 1054 0 l 1
 991 -85 968 -137 968 -181 c 0
 968 -237 1006 -269 1078 -269 c 0xdc80
877 522 m 2
 877 563 l 1
 644 563 l 2
 537 563 457 544 402 507 c 0
 345 468 320 412 320 337 c 0xdd
 320 268 342 217 381 181 c 0
 420 146 474 125 551 125 c 0
 652 125 731 160 789 231 c 0
 848 303 877 400 877 522 c 2
EndSplineSet
EndChar

StartChar: aring
Encoding: 229 229 126
Width: 1233
Flags: MW
HStem: -29 154<512.5 553.5> 0 21G<936 1121 936 936> 563 144<630 644 644 877> 991 156<566.5 644> 1249 123<598 640.5 598 657.5> 1675 123<597 639.5>
VStem: 136 184<302.5 374.5 302.5 388.5> 345 123<1502.5 1545.5 1502.5 1562.5> 771 123<1502.5 1545> 877 185<522 563 563 563 410 736 410 778.5>
LayerCount: 2
Back
Fore
SplineSet
619 1249 m 0xbf40
 543 1249 478 1276 425 1329 c 0
 372 1382 345 1447 345 1524 c 0
 345 1601 372 1666 425 1719 c 0
 478 1772 542 1798 619 1798 c 0
 697 1798 762 1772 815 1719 c 0
 868 1666 894 1601 894 1524 c 0
 894 1447 868 1382 815 1329 c 0
 762 1276 696 1249 619 1249 c 0xbf40
619 1372 m 0
 662 1372 698 1387 727 1416 c 0
 756 1445 771 1481 771 1524 c 0
 771 1566 756 1602 727 1631 c 0
 698 1660 661 1675 618 1675 c 0x7f40
 576 1675 541 1661 512 1632 c 0
 483 1603 468 1567 468 1524 c 0
 468 1481 483 1445 512 1416 c 0
 541 1387 577 1372 619 1372 c 0
513 -29 m 0
 397 -29 305 3 238 68 c 0
 174 129 136 210 136 327 c 0
 136 450 178 545 262 610 c 0
 345 675 467 707 630 707 c 2
 877 707 l 1
 877 736 l 2
 877 821 854 890 809 931 c 0
 765 971 692 991 596 991 c 0
 533 991 469 982 405 964 c 0
 340 946 278 920 218 885 c 1
 218 1069 l 1
 274 1090 345 1113 414 1128 c 0
 475 1141 536 1147 597 1147 c 0
 692 1147 767 1133 834 1105 c 0
 895 1078 953 1037 992 984 c 0
 1020 945 1037 901 1046 860 c 0
 1057 811 1062 738 1062 639 c 2xbf80
 1062 410 l 2
 1065 333 1064 277 1071 226 c 0
 1078 170 1087 116 1094 91 c 0
 1103 50 1118 7 1121 0 c 1
 936 0 l 1
 929 16 918 50 909 87 c 0
 902 116 896 149 893 170 c 1
 854 103 788 50 729 19 c 0
 665 -14 594 -29 513 -29 c 0
551 125 m 0
 652 125 731 160 789 231 c 0
 848 303 877 400 877 522 c 2
 877 563 l 1
 644 563 l 2
 537 563 457 544 402 507 c 0
 345 468 320 412 320 337 c 0
 320 268 342 217 381 181 c 0
 420 146 474 125 551 125 c 0
EndSplineSet
EndChar

StartChar: atilde
Encoding: 227 227 127
Width: 1233
Flags: MW
HStem: -29 154<512.5 553.5> 0 21G<936 1121 936 936> 563 144<630 644 644 877> 991 156<566.5 644> 1339 282<290 496 290 496 453 786> 1474 20G<477.5 495.5>
VStem: 136 184<302.5 374.5 302.5 388.5> 877 185<522 563 563 563 410 736 410 778.5>
LayerCount: 2
Back
Fore
SplineSet
414 1339 m 1xbb
 290 1339 l 1
 291 1429 309 1498 342 1547 c 0
 376 1596 423 1621 483 1621 c 0
 509 1621 533 1616 555 1607 c 0
 575 1598 598 1583 624 1560 c 2
 681 1505 l 2
 696 1492 711 1481 719 1476 c 0
 732 1468 738 1466 749 1466 c 0
 774 1466 793 1478 805 1503 c 0
 816 1527 823 1566 824 1621 c 1
 949 1621 l 1
 948 1531 930 1462 897 1413 c 0
 863 1364 816 1339 756 1339 c 0
 730 1339 706 1344 684 1353 c 0x7b
 664 1362 641 1377 615 1400 c 2
 558 1455 l 2
 541 1471 528 1480 520 1485 c 0
 508 1492 501 1494 490 1494 c 0
 465 1494 446 1482 434 1457 c 0
 421 1431 415 1392 414 1339 c 1xbb
513 -29 m 0
 397 -29 305 3 238 68 c 0
 174 129 136 210 136 327 c 0
 136 450 178 545 262 610 c 0
 345 675 467 707 630 707 c 2
 877 707 l 1
 877 736 l 2
 877 821 854 890 809 931 c 0
 765 971 692 991 596 991 c 0
 533 991 469 982 405 964 c 0
 340 946 278 920 218 885 c 1
 218 1069 l 1
 274 1090 345 1113 414 1128 c 0
 475 1141 536 1147 597 1147 c 0
 692 1147 767 1133 834 1105 c 0
 895 1078 953 1037 992 984 c 0xbb
 1020 945 1037 901 1046 860 c 0
 1057 811 1062 738 1062 639 c 2
 1062 410 l 2xb7
 1065 333 1064 277 1071 226 c 0
 1078 170 1087 116 1094 91 c 0
 1103 50 1118 7 1121 0 c 1
 936 0 l 1
 929 16 918 50 909 87 c 0xbb
 902 116 896 149 893 170 c 1
 854 103 788 50 729 19 c 0
 665 -14 594 -29 513 -29 c 0
551 125 m 0
 652 125 731 160 789 231 c 0
 848 303 877 400 877 522 c 2
 877 563 l 1
 644 563 l 2
 537 563 457 544 402 507 c 0
 345 468 320 412 320 337 c 0
 320 268 342 217 381 181 c 0
 420 146 474 125 551 125 c 0
EndSplineSet
EndChar

StartChar: ae
Encoding: 230 230 128
Width: 1233
Flags: MW
HStem: -29 154<348.5 392 885.5 943> 514 143<437.5 494 494 543 709 1036> 993 154<355 388.5 852 903.5>
VStem: 41 164<282.5 349 282.5 360.5> 543 164<442 458.5 377.5 514 377.5 514> 1036 164<514 709 514 761>
LayerCount: 2
Back
Fore
SplineSet
358 -29 m 0
 255 -29 177 0 123 57 c 0
 66 117 41 201 41 304 c 0
 41 417 70 505 141 568 c 0
 208 627 305 657 432 657 c 2
 549 657 l 1
 549 745 l 2
 549 825 533 886 500 929 c 0
 467 972 420 993 357 993 c 0
 318 993 273 985 234 972 c 0
 194 959 147 938 106 911 c 1
 106 1079 l 1
 157 1102 205 1120 249 1131 c 0
 292 1142 334 1147 376 1147 c 0
 437 1147 487 1137 528 1116 c 0
 569 1095 602 1063 627 1020 c 1
 649 1061 682 1092 726 1114 c 0
 770 1136 822 1147 882 1147 c 0
 995 1147 1080 1109 1128 1029 c 0
 1176 950 1200 808 1200 604 c 2
 1200 514 l 1
 709 514 l 1
 708 503 708 493 708 482 c 0
 708 478 707 474 707 443 c 0
 707 312 726 241 758 196 c 0
 794 145 848 125 923 125 c 0
 973 125 1020 134 1064 151 c 0
 1107 168 1145 194 1178 227 c 1
 1178 55 l 1
 1139 27 1096 5 1057 -8 c 0
 1018 -21 969 -29 917 -29 c 0
 849 -29 785 -15 736 12 c 0
 686 39 650 79 629 131 c 1
 603 78 568 38 524 11 c 0
 479 -16 426 -29 358 -29 c 0
709 657 m 1
 1036 657 l 1
 1036 709 l 2
 1036 813 1022 884 998 927 c 0
 975 967 935 993 872 993 c 0
 814 993 772 970 747 925 c 0
 722 880 709 805 709 700 c 2
 709 657 l 1
375 125 m 0
 438 125 481 147 506 192 c 0
 529 235 543 306 543 442 c 2
 543 514 l 1
 494 514 l 2
 381 514 305 499 265 469 c 0
 225 438 205 385 205 313 c 0
 205 252 220 206 250 174 c 0
 280 141 322 125 375 125 c 0
EndSplineSet
EndChar

StartChar: b
Encoding: 98 98 129
Width: 1233
Flags: MW
HStem: -29 156<642 694.5 605 744.5> 0 21G<193 359 193 193> 991 156<645.5 693.5> 1536 20G<193 377 377 377>
VStem: 193 184<141 141 488 630 977 1556> 918 194<488 630>
LayerCount: 2
Back
Fore
SplineSet
676 -29 m 0xbc
 608 -29 555 -16 500 15 c 0
 449 44 408 86 377 141 c 1
 359 0 l 1
 193 0 l 1
 193 1556 l 1
 377 1556 l 1
 377 977 l 1
 406 1032 446 1074 499 1103 c 0
 550 1132 611 1147 680 1147 c 0
 808 1147 917 1097 996 993 c 0
 1073 889 1112 742 1112 561 c 0
 1112 378 1073 234 996 129 c 0
 920 25 813 -29 676 -29 c 0xbc
650 127 m 0x7c
 739 127 805 163 850 236 c 0
 895 309 918 417 918 559 c 0
 918 701 895 809 850 882 c 0
 805 955 738 991 649 991 c 0xbc
 560 991 492 955 446 882 c 0
 400 809 377 701 377 559 c 0
 377 417 400 310 446 237 c 0
 492 164 560 127 650 127 c 0x7c
EndSplineSet
EndChar

StartChar: c
Encoding: 99 99 130
Width: 1233
Flags: MW
HStem: -29 156<662.5 744> 991 156<660 743.5 629.5 748.5>
VStem: 164 194<496 628.5 496 654.5>
LayerCount: 2
Back
Fore
SplineSet
712 -29 m 0
 545 -29 406 24 310 127 c 0
 213 231 164 376 164 559 c 0
 164 750 218 893 311 992 c 0
 410 1096 546 1147 713 1147 c 0
 774 1147 824 1141 875 1126 c 0
 926 1112 977 1090 1030 1061 c 1
 1030 868 l 1
 981 911 933 943 884 962 c 0
 834 981 779 991 718 991 c 0
 602 991 513 954 451 879 c 0
 389 804 358 697 358 560 c 0
 358 432 384 320 451 240 c 0
 514 165 604 127 721 127 c 0
 788 127 842 138 889 157 c 0
 949 180 989 209 1030 248 c 1
 1030 57 l 1
 985 30 929 7 878 -8 c 0
 831 -21 776 -29 712 -29 c 0
EndSplineSet
EndChar

StartChar: cacute
Encoding: 263 263 131
Width: 1233
Flags: MW
HStem: -29 156<662.5 744> 991 156<660 743.5 629.5 748.5> 1653 20G<815 1013 1013 1013>
VStem: 164 194<496 628.5 496 654.5>
LayerCount: 2
Back
Fore
SplineSet
534 1297 m 1
 815 1673 l 1
 1013 1673 l 1
 688 1297 l 1
 534 1297 l 1
712 -29 m 0
 545 -29 406 24 310 127 c 0
 214 230 164 376 164 559 c 0
 164 750 218 893 311 992 c 0
 410 1096 546 1147 713 1147 c 0
 774 1147 824 1141 875 1126 c 0
 926 1112 977 1090 1030 1061 c 1
 1030 868 l 1
 981 911 933 943 884 962 c 0
 834 981 779 991 718 991 c 0
 602 991 513 954 451 879 c 0
 389 804 358 697 358 560 c 0
 358 432 384 320 451 240 c 0
 514 165 604 127 721 127 c 0
 788 127 842 138 889 157 c 0
 949 180 989 209 1030 248 c 1
 1030 57 l 1
 985 30 929 7 878 -8 c 0
 831 -21 776 -29 712 -29 c 0
EndSplineSet
EndChar

StartChar: ccaron
Encoding: 269 269 132
Width: 1233
Flags: MW
HStem: -29 156<662.5 744> 991 156<660 743.5 629.5 748.5> 1653 20G<356 495 495 495 856 995 995 995>
VStem: 164 194<496 628.5 496 654.5>
LayerCount: 2
Back
Fore
SplineSet
602 1297 m 1
 356 1673 l 1
 495 1673 l 1
 675 1428 l 1
 856 1673 l 1
 995 1673 l 1
 749 1297 l 1
 602 1297 l 1
712 -29 m 0
 545 -29 406 24 310 127 c 0
 214 230 164 376 164 559 c 0
 164 750 218 893 311 992 c 0
 410 1096 546 1147 713 1147 c 0
 774 1147 824 1141 875 1126 c 0
 926 1112 977 1090 1030 1061 c 1
 1030 868 l 1
 981 911 933 943 884 962 c 0
 834 981 779 991 718 991 c 0
 602 991 513 954 451 879 c 0
 389 804 358 697 358 560 c 0
 358 432 384 320 451 240 c 0
 514 165 604 127 721 127 c 0
 788 127 842 138 889 157 c 0
 949 180 989 209 1030 248 c 1
 1030 57 l 1
 985 30 929 7 878 -8 c 0
 831 -21 776 -29 712 -29 c 0
EndSplineSet
EndChar

StartChar: ccedilla
Encoding: 231 231 133
Width: 1233
Flags: MW
HStem: -395 123<628.5 640.5 607.5 684.5> -28 155 991 156<660 743.5 629.5 748.5>
VStem: 164 194<496 628.5 496 654.5> 468 414<-245.5 -240 -240 -240>
LayerCount: 2
Back
Fore
SplineSet
718 991 m 0
 602 991 513 954 451 879 c 0
 389 804 358 697 358 560 c 0
 358 432 384 320 451 240 c 0
 514 165 604 127 721 127 c 0
 788 127 842 138 889 157 c 0
 949 180 989 209 1030 248 c 1
 1030 57 l 1
 985 30 929 7 878 -8 c 0
 851 -15 825 -21 794 -24 c 1
 821 -56 841 -86 856 -115 c 0
 871 -146 882 -179 882 -219 c 0
 882 -272 862 -319 822 -350 c 0
 783 -379 726 -395 643 -395 c 0
 614 -395 585 -393 556 -389 c 0
 525 -385 496 -379 468 -371 c 1
 468 -240 l 1
 491 -251 515 -260 540 -265 c 0
 565 -270 596 -272 619 -272 c 0
 662 -272 693 -264 713 -248 c 0
 733 -232 743 -209 743 -180 c 0
 743 -159 736 -134 721 -105 c 0
 710 -84 695 -58 674 -28 c 1
 525 -20 399 32 310 127 c 0
 214 230 164 376 164 559 c 0
 164 750 218 893 311 992 c 0
 410 1096 546 1147 713 1147 c 0
 774 1147 824 1141 875 1126 c 0
 926 1112 977 1090 1030 1061 c 1
 1030 868 l 1
 981 911 933 943 884 962 c 0
 834 981 779 991 718 991 c 0
EndSplineSet
EndChar

StartChar: cdotaccent
Encoding: 267 267 134
Width: 1233
Flags: MW
HStem: -29 156<601.5 771.5> 991 156<601 771 543.5 779> 1348 204<577 732 587 732>
VStem: 164 194<420.5 698.5 420.5 743> 557 205<1378 1522 1368 1532>
LayerCount: 2
Back
Fore
SplineSet
732 1348 m 2
 587 1348 l 2
 567 1348 557 1358 557 1378 c 2
 557 1522 l 2
 557 1542 567 1552 587 1552 c 2
 732 1552 l 2
 752 1552 762 1542 762 1522 c 2
 762 1378 l 2
 762 1358 752 1348 732 1348 c 2
717 -29 m 0
 370 -29 164 191 164 559 c 0
 164 927 370 1147 717 1147 c 0
 825 1147 926 1121 1030 1061 c 1
 1030 868 l 1
 933 955 841 991 717 991 c 0
 485 991 358 838 358 559 c 0
 358 282 486 127 717 127 c 0
 846 127 942 164 1030 248 c 1
 1030 57 l 1
 931 0 826 -29 717 -29 c 0
EndSplineSet
EndChar

StartChar: d
Encoding: 100 100 135
Width: 1233
Flags: MW
HStem: -29 156<543 592.5> 0 21G<876 1042 876 876> 991 156<541.5 593 494.5 633.5> 1536 20G<858 1042 1042 1042>
VStem: 123 194<488 630 488 650.5> 858 184<141 141 488 630 977 1556 0 1556>
LayerCount: 2
Back
Fore
SplineSet
559 -29 m 0xbc
 418 -29 311 30 239 129 c 0
 162 234 123 382 123 562 c 0
 123 739 160 888 239 992 c 0
 318 1096 430 1147 559 1147 c 0
 627 1147 686 1133 737 1104 c 0
 788 1075 829 1032 858 977 c 1
 858 1556 l 1
 1042 1556 l 1
 1042 0 l 1
 876 0 l 1
 858 141 l 1
 827 88 791 46 736 15 c 0x7c
 685 -14 626 -29 559 -29 c 0xbc
585 127 m 0xbc
 675 127 743 164 789 237 c 0
 835 310 858 417 858 559 c 0
 858 701 835 809 789 882 c 0
 746 950 681 991 586 991 c 0
 497 991 430 955 385 882 c 0
 340 809 317 701 317 559 c 0
 317 417 340 309 385 236 c 0
 432 160 501 127 585 127 c 0xbc
EndSplineSet
EndChar

StartChar: eth
Encoding: 240 240 136
Width: 1233
Flags: MW
HStem: -29 156<570.5 662 570.5 691.5> 944 152<589.5 643 547 650.5> 1536 20G<299 518 518 518>
VStem: 137 195<469.5 598.5 469.5 621> 901 195<468.5 571>
LayerCount: 2
Back
Fore
SplineSet
617 -29 m 0
 462 -29 345 22 262 119 c 0
 178 219 137 358 137 533 c 0
 137 709 179 850 262 949 c 0
 345 1048 463 1096 631 1096 c 0
 655 1096 659 1095 663 1095 c 0
 692 1092 675 1095 696 1092 c 1
 688 1102 653 1151 627 1182 c 0
 603 1213 578 1241 553 1270 c 1
 274 1178 l 1
 244 1276 l 1
 481 1356 l 1
 299 1556 l 1
 518 1556 l 1
 645 1411 l 1
 934 1505 l 1
 967 1407 l 1
 717 1327 l 1
 848 1186 944 1052 1005 925 c 0
 1066 797 1096 672 1096 528 c 0
 1096 357 1055 219 971 119 c 0
 886 18 766 -29 617 -29 c 0
616 127 m 0
 708 127 778 162 827 233 c 0
 876 305 901 406 901 531 c 0
 901 611 891 679 872 747 c 0
 853 815 826 871 793 918 c 1
 770 927 736 935 717 938 c 0
 690 942 663 944 638 944 c 0
 541 944 461 912 409 840 c 0
 357 768 332 663 332 534 c 0
 332 405 357 304 406 233 c 0
 455 162 525 127 616 127 c 0
EndSplineSet
EndChar

StartChar: dcaron
Encoding: 271 271 137
Width: 1233
Flags: MW
HStem: -29 156<466.5 594.5> 0 127 991 156<466.5 596.5 393.5 645.5> 1181 376<1045 1312 1114 1199> 1536 20G<828 1012 1012 1012>
VStem: 93 194<415.5 702.5 415.5 744> 828 184<141 141 416.5 701.5 977 1556 0 1556>
LayerCount: 2
Back
Fore
SplineSet
1045 1181 m 1xb6
 1114 1557 l 1
 1312 1557 l 1
 1199 1181 l 1
 1045 1181 l 1xb6
526 -29 m 0
 259 -29 93 194 93 561 c 0
 93 927 260 1147 527 1147 c 0
 666 1147 768 1089 828 977 c 1x6e
 828 1556 l 1
 1012 1556 l 1
 1012 0 l 1
 846 0 l 1
 828 141 l 1
 767 29 663 -29 526 -29 c 0
556 127 m 0
 735 127 828 274 828 559 c 0
 828 844 735 991 556 991 c 0
 377 991 287 846 287 559 c 0
 287 272 377 127 556 127 c 0
EndSplineSet
EndChar

StartChar: dcroat
Encoding: 273 273 138
Width: 1233
Flags: MW
HStem: -29 156<543 592.5> 0 21G<876 1042 876 876> 991 156<541.5 593 494.5 633.5> 1286 121<553 858 553 858 1042 1233> 1536 20G<858 1042 1042 1042>
VStem: 123 194<488 630 488 650.5> 858 184<141 141 488 630 977 1286 0 1286 1407 1556>
LayerCount: 2
Back
Fore
SplineSet
559 -29 m 0xbe
 418 -29 311 30 239 129 c 0
 162 234 123 382 123 562 c 0
 123 739 160 888 239 992 c 0
 318 1096 430 1147 559 1147 c 0
 627 1147 686 1133 737 1104 c 0
 788 1075 829 1032 858 977 c 1
 858 1286 l 1
 553 1286 l 1
 553 1407 l 1
 858 1407 l 1
 858 1556 l 1
 1042 1556 l 1x7e
 1042 1407 l 1
 1233 1407 l 1
 1233 1286 l 1
 1042 1286 l 1
 1042 0 l 1
 876 0 l 1
 858 141 l 1
 827 88 791 46 736 15 c 0
 685 -14 626 -29 559 -29 c 0xbe
585 127 m 0xbe
 675 127 743 164 789 237 c 0
 835 310 858 417 858 559 c 0
 858 701 835 809 789 882 c 0
 746 950 681 991 586 991 c 0
 497 991 430 955 385 882 c 0
 340 809 317 701 317 559 c 0
 317 417 340 309 385 236 c 0
 432 160 501 127 585 127 c 0xbe
EndSplineSet
EndChar

StartChar: e
Encoding: 101 101 139
Width: 1233
Flags: MW
HStem: -29 156<619.5 708.5> 516 143<323 323 323 1113 316 323> 991 156<600 689>
VStem: 124 192<466.5 510 510 516 449 652> 929 184<516 660>
LayerCount: 2
Back
Fore
SplineSet
677 -29 m 0
 505 -29 367 24 271 127 c 0
 175 230 124 375 124 558 c 0
 124 746 178 887 267 987 c 0
 364 1095 498 1147 649 1147 c 0
 798 1147 910 1096 990 1003 c 0
 1070 910 1113 777 1113 606 c 2
 1113 516 l 1
 316 516 l 1
 316 510 l 2
 316 388 348 294 412 227 c 0
 473 163 559 127 680 127 c 0
 741 127 802 136 865 155 c 0
 930 174 998 203 1070 240 c 1
 1070 57 l 1
 999 28 933 7 868 -8 c 0
 804 -23 740 -29 677 -29 c 0
323 659 m 1
 929 660 l 1
 926 775 897 856 853 907 c 0
 805 963 733 991 645 991 c 0
 555 991 482 962 425 903 c 0
 368 844 334 762 323 659 c 1
EndSplineSet
EndChar

StartChar: eacute
Encoding: 233 233 140
Width: 1233
Flags: MW
HStem: -29 156<619.5 708.5> 516 143<323 323 323 1113 316 323> 991 156<600 689> 1653 20G<771 969 969 969>
VStem: 124 192<466.5 510 510 516 449 652> 929 184<516 660>
LayerCount: 2
Back
Fore
SplineSet
490 1297 m 1
 771 1673 l 1
 969 1673 l 1
 644 1297 l 1
 490 1297 l 1
677 -29 m 0
 505 -29 367 24 271 127 c 0
 175 230 124 375 124 558 c 0
 124 746 178 887 267 987 c 0
 364 1095 498 1147 649 1147 c 0
 798 1147 910 1096 990 1003 c 0
 1070 910 1113 777 1113 606 c 2
 1113 516 l 1
 316 516 l 1
 316 510 l 2
 316 388 348 294 412 227 c 0
 473 163 559 127 680 127 c 0
 741 127 802 136 865 155 c 0
 930 174 998 203 1070 240 c 1
 1070 57 l 1
 999 28 923 4 868 -8 c 0
 804 -23 740 -29 677 -29 c 0
323 659 m 1
 929 660 l 1
 926 775 897 856 853 907 c 0
 805 963 733 991 645 991 c 0
 555 991 482 962 425 903 c 0
 368 844 334 762 323 659 c 1
EndSplineSet
EndChar

StartChar: ecaron
Encoding: 283 283 141
Width: 1233
Flags: MW
HStem: -29 156<565 739.5> 516 143<323 323 323 1113 316 323> 991 156<556.5 737.5> 1653 20G<333 472 472 472 833 972 972 972>
VStem: 124 192<388 510 510 516 388 735.5> 929 184<516 660>
LayerCount: 2
Back
Fore
SplineSet
579 1297 m 1
 333 1673 l 1
 472 1673 l 1
 652 1428 l 1
 833 1673 l 1
 972 1673 l 1
 726 1297 l 1
 579 1297 l 1
677 -29 m 0
 330 -29 124 195 124 555 c 0
 124 916 333 1147 645 1147 c 0
 941 1147 1113 941 1113 606 c 2
 1113 516 l 1
 316 516 l 1
 316 510 l 2
 316 266 450 127 680 127 c 0
 800 127 925 164 1070 240 c 1
 1070 57 l 1
 929 0 802 -29 677 -29 c 0
323 659 m 1
 929 660 l 1
 925 869 828 991 647 991 c 0
 466 991 346 871 323 659 c 1
EndSplineSet
EndChar

StartChar: ecircumflex
Encoding: 234 234 142
Width: 1233
Flags: MW
HStem: -29 156<619.5 708.5> 516 143<323 323 323 1113 316 323> 991 156<600 689> 1653 20G<558 705 705 705>
VStem: 124 192<466.5 510 510 516 449 652> 929 184<516 660>
LayerCount: 2
Back
Fore
SplineSet
312 1297 m 1
 558 1673 l 1
 705 1673 l 1
 951 1297 l 1
 812 1297 l 1
 631 1542 l 1
 451 1297 l 1
 312 1297 l 1
677 -29 m 0
 505 -29 367 24 271 127 c 0
 175 230 124 375 124 558 c 0
 124 746 178 887 267 987 c 0
 364 1095 498 1147 649 1147 c 0
 798 1147 910 1096 990 1003 c 0
 1070 910 1113 777 1113 606 c 2
 1113 516 l 1
 316 516 l 1
 316 510 l 2
 316 388 348 294 412 227 c 0
 473 163 559 127 680 127 c 0
 741 127 802 136 865 155 c 0
 930 174 998 203 1070 240 c 1
 1070 57 l 1
 999 28 923 4 868 -8 c 0
 804 -23 740 -29 677 -29 c 0
323 659 m 1
 929 660 l 1
 926 775 897 856 853 907 c 0
 805 963 733 991 645 991 c 0
 555 991 482 962 425 903 c 0
 368 844 334 762 323 659 c 1
EndSplineSet
EndChar

StartChar: edieresis
Encoding: 235 235 143
Width: 1233
Flags: MW
HStem: -29 156<619.5 708.5> 516 143<323 323 323 1113 316 323> 991 156<600 689> 1350 202<354 507 364 507 756 898>
VStem: 124 192<466.5 510 510 516 449 652> 334 203<1380 1522 1370 1532> 726 202<1380 1522 1370 1532> 929 184<516 660>
LayerCount: 2
Back
Fore
SplineSet
507 1350 m 2
 364 1350 l 2
 344 1350 334 1360 334 1380 c 2
 334 1522 l 2
 334 1542 344 1552 364 1552 c 2
 507 1552 l 2
 527 1552 537 1542 537 1522 c 2
 537 1380 l 2
 537 1360 527 1350 507 1350 c 2
898 1350 m 2
 756 1350 l 2
 736 1350 726 1360 726 1380 c 2
 726 1522 l 2
 726 1542 736 1552 756 1552 c 2
 898 1552 l 2
 918 1552 928 1542 928 1522 c 2
 928 1380 l 2
 928 1360 918 1350 898 1350 c 2
677 -29 m 0
 505 -29 367 24 271 127 c 0
 175 230 124 375 124 558 c 0
 124 746 178 887 267 987 c 0
 364 1095 498 1147 649 1147 c 0
 798 1147 910 1096 990 1003 c 0
 1070 910 1113 777 1113 606 c 2
 1113 516 l 1
 316 516 l 1
 316 510 l 2
 316 388 348 294 412 227 c 0
 473 163 559 127 680 127 c 0
 741 127 802 136 865 155 c 0
 930 174 998 203 1070 240 c 1
 1070 57 l 1
 999 28 923 4 868 -8 c 0
 804 -23 740 -29 677 -29 c 0
323 659 m 1
 929 660 l 1
 926 775 897 856 853 907 c 0
 805 963 733 991 645 991 c 0
 555 991 482 962 425 903 c 0
 368 844 334 762 323 659 c 1
EndSplineSet
EndChar

StartChar: edotaccent
Encoding: 279 279 144
Width: 1233
Flags: MW
HStem: -29 156<565 739.5> 516 143<323 323 323 1113 316 323> 991 156<556.5 737.5> 1348 204<548 703 558 703>
VStem: 124 192<388 510 510 516 388 735.5> 528 205<1378 1522 1368 1532> 929 184<516 660>
LayerCount: 2
Back
Fore
SplineSet
703 1348 m 2
 558 1348 l 2
 538 1348 528 1358 528 1378 c 2
 528 1522 l 2
 528 1542 538 1552 558 1552 c 2
 703 1552 l 2
 723 1552 733 1542 733 1522 c 2
 733 1378 l 2
 733 1358 723 1348 703 1348 c 2
677 -29 m 0
 330 -29 124 195 124 555 c 0
 124 916 333 1147 645 1147 c 0
 941 1147 1113 941 1113 606 c 2
 1113 516 l 1
 316 516 l 1
 316 510 l 2
 316 266 450 127 680 127 c 0
 800 127 925 164 1070 240 c 1
 1070 57 l 1
 929 0 802 -29 677 -29 c 0
323 659 m 1
 929 660 l 1
 925 869 828 991 647 991 c 0
 466 991 346 871 323 659 c 1
EndSplineSet
EndChar

StartChar: egrave
Encoding: 232 232 145
Width: 1233
Flags: MW
HStem: -29 156<619.5 708.5> 516 143<323 323 323 1113 316 323> 991 156<600 689> 1653 20G<294 492 492 492>
VStem: 124 192<466.5 510 510 516 449 652> 929 184<516 660>
LayerCount: 2
Back
Fore
SplineSet
619 1297 m 1
 294 1673 l 1
 492 1673 l 1
 773 1297 l 1
 619 1297 l 1
677 -29 m 0
 505 -29 367 24 271 127 c 0
 175 230 124 375 124 558 c 0
 124 746 178 887 267 987 c 0
 364 1095 498 1147 649 1147 c 0
 798 1147 910 1096 990 1003 c 0
 1070 910 1113 777 1113 606 c 2
 1113 516 l 1
 316 516 l 1
 316 510 l 2
 316 388 348 294 412 227 c 0
 473 163 559 127 680 127 c 0
 741 127 802 136 865 155 c 0
 930 174 998 203 1070 240 c 1
 1070 57 l 1
 999 28 923 4 868 -8 c 0
 804 -23 740 -29 677 -29 c 0
323 659 m 1
 929 660 l 1
 926 775 897 856 853 907 c 0
 805 963 733 991 645 991 c 0
 555 991 482 962 425 903 c 0
 368 844 334 762 323 659 c 1
EndSplineSet
EndChar

StartChar: emacron
Encoding: 275 275 146
Width: 1233
Flags: MW
HStem: -29 156<565 739.5> 516 143<323 323 323 1113 316 323> 991 156<556.5 737.5> 1348 148<353 951 353 951>
VStem: 124 192<388 510 510 516 388 735.5> 929 184<516 660>
LayerCount: 2
Back
Fore
SplineSet
353 1348 m 1
 353 1496 l 1
 951 1496 l 1
 951 1348 l 1
 353 1348 l 1
677 -29 m 0
 330 -29 124 195 124 555 c 0
 124 916 333 1147 645 1147 c 0
 941 1147 1113 941 1113 606 c 2
 1113 516 l 1
 316 516 l 1
 316 510 l 2
 316 266 450 127 680 127 c 0
 800 127 925 164 1070 240 c 1
 1070 57 l 1
 929 0 802 -29 677 -29 c 0
323 659 m 1
 929 660 l 1
 925 869 828 991 647 991 c 0
 466 991 346 871 323 659 c 1
EndSplineSet
EndChar

StartChar: eogonek
Encoding: 281 281 147
Width: 1233
Flags: MW
HStem: -395 123<880 921.5> -29 156<565 689.5> 516 143<323 323 323 1113 316 323> 991 156<556.5 737.5>
VStem: 124 192<388 510 510 516 388 735.5> 667 139<-212 -191.5> 667 373<-280.5 -242 -375 -191.5> 929 184<516 660>
LayerCount: 2
Back
Fore
SplineSet
1113 516 m 1xfd
 316 516 l 1
 316 510 l 2
 316 266 450 127 680 127 c 0
 800 127 925 164 1070 240 c 1
 1070 57 l 1
 1009 32 950 14 893 -1 c 1
 830 -88 806 -139 806 -184 c 0
 806 -240 844 -272 916 -272 c 0
 957 -272 999 -262 1040 -242 c 1
 1040 -375 l 1
 984 -390 946 -395 897 -395 c 0
 748 -395 667 -340 667 -221 c 0
 667 -162 688 -104 754 -25 c 1xfd
 727 -28 702 -29 677 -29 c 0
 330 -29 124 195 124 555 c 0
 124 916 333 1147 645 1147 c 0xfa
 941 1147 1113 941 1113 606 c 2
 1113 516 l 1xfd
647 991 m 0
 466 991 346 871 323 659 c 1
 929 660 l 1
 925 869 828 991 647 991 c 0
EndSplineSet
EndChar

StartChar: f
Encoding: 102 102 148
Width: 1233
Flags: MW
HStem: 0 21G<466 466 466 650> 977 143<167 466 167 466 650 1035> 1403 153<814 826 826 1035>
VStem: 466 184<0 977 0 977 1120 1198 1198 1219>
LayerCount: 2
Back
Fore
SplineSet
466 0 m 1
 466 977 l 1
 167 977 l 1
 167 1120 l 1
 466 1120 l 1
 466 1198 l 2
 466 1321 494 1412 551 1469 c 0
 607 1527 695 1556 814 1556 c 2
 1035 1556 l 1
 1035 1403 l 1
 826 1403 l 2
 754 1403 713 1388 689 1363 c 0
 663 1336 650 1288 650 1219 c 2
 650 1120 l 1
 1035 1120 l 1
 1035 977 l 1
 650 977 l 1
 650 0 l 1
 466 0 l 1
EndSplineSet
EndChar

StartChar: g
Encoding: 103 103 149
Width: 1233
Flags: MW
HStem: -440 147<580.5 654.5 580.5 678.5> -8 153<577.5 618> 991 156<576.5 617.5 515.5 662.5>
VStem: 151 194<499.5 637.5 499.5 656.5> 886 184<45 72 72 178 178 178 500.5 638.5 971 971>
LayerCount: 2
Back
Fore
SplineSet
601 -440 m 0
 549 -440 498 -435 442 -426 c 0
 387 -417 335 -404 276 -385 c 1
 276 -203 l 1
 341 -234 403 -256 454 -271 c 0
 506 -286 556 -293 605 -293 c 0
 704 -293 771 -267 818 -211 c 0
 863 -158 886 -72 886 45 c 2
 886 178 l 1
 857 116 817 69 766 38 c 0
 715 7 654 -8 582 -8 c 0
 451 -8 346 44 268 149 c 0
 190 254 151 394 151 569 c 0
 151 744 190 885 268 990 c 0
 347 1095 448 1147 583 1147 c 0
 652 1147 713 1133 764 1104 c 0
 815 1075 855 1030 886 971 c 1
 904 1116 l 1
 1070 1116 l 1
 1070 72 l 2
 1070 -95 1030 -223 951 -310 c 0
 872 -397 756 -440 601 -440 c 0
622 145 m 0
 709 145 774 181 819 254 c 0
 864 327 886 432 886 569 c 0
 886 708 864 813 819 884 c 0
 772 960 704 991 621 991 c 0
 532 991 463 955 416 884 c 0
 369 813 345 707 345 568 c 0
 345 431 369 327 417 254 c 0
 465 181 533 145 622 145 c 0
EndSplineSet
EndChar

StartChar: gbreve
Encoding: 287 287 150
Width: 1233
Flags: MW
HStem: -440 147<580.5 654.5 580.5 678.5> -8 153<577.5 618> 991 156<576.5 617.5 515.5 662.5> 1298 137<614.5 672.5 614.5 692> 1298 287<331 692>
VStem: 151 194<499.5 637.5 499.5 656.5> 886 184<45 72 72 178 178 178 500.5 638.5 971 971>
LayerCount: 2
Back
Fore
SplineSet
644 1298 m 0xee
 548 1298 474 1322 421 1370 c 0
 368 1418 338 1490 331 1585 c 1
 450 1585 l 1
 457 1535 476 1497 509 1472 c 0
 540 1447 585 1435 644 1435 c 0
 701 1435 746 1447 777 1472 c 0
 810 1497 830 1535 839 1585 c 1
 958 1585 l 1
 951 1490 921 1418 868 1370 c 0
 815 1322 740 1298 644 1298 c 0xee
601 -440 m 0
 549 -440 498 -435 442 -426 c 0
 387 -417 335 -404 276 -385 c 1
 276 -203 l 1
 341 -234 403 -256 454 -271 c 0
 506 -286 556 -293 605 -293 c 0
 704 -293 771 -267 818 -211 c 0
 862 -158 886 -79 886 45 c 2
 886 178 l 1
 857 116 817 69 766 38 c 0
 715 7 654 -8 582 -8 c 0
 451 -8 346 44 268 149 c 0
 190 254 151 394 151 569 c 0
 151 744 190 885 268 990 c 0
 347 1095 448 1147 583 1147 c 0
 652 1147 713 1133 764 1104 c 0
 815 1075 855 1030 886 971 c 1
 904 1116 l 1
 1070 1116 l 1
 1070 72 l 2
 1070 -95 1030 -223 951 -310 c 0
 872 -397 756 -440 601 -440 c 0
622 145 m 0
 709 145 774 181 819 254 c 0
 864 327 886 432 886 569 c 0
 886 708 864 813 819 884 c 0xee
 772 960 704 991 621 991 c 0
 532 991 463 955 416 884 c 0xf6
 369 813 345 707 345 568 c 0
 345 431 369 327 417 254 c 0
 465 181 533 145 622 145 c 0
EndSplineSet
EndChar

StartChar: gcaron
Encoding: 487 487 151
Width: 1233
Flags: MW
HStem: -440 147<558 703.5 558 755.5> -8 153<532 657.5> 991 125 991 156<531 654.5 451.5 707.5> 1653 20G<325 464 464 464 825 964 964 964>
VStem: 151 194<430.5 708.5 430.5 745.5> 886 184<45 72 72 178 178 178 430.5 707.5 971 971>
LayerCount: 2
Back
Fore
SplineSet
571 1297 m 1xee
 325 1673 l 1
 464 1673 l 1
 644 1428 l 1
 825 1673 l 1
 964 1673 l 1
 718 1297 l 1
 571 1297 l 1xee
601 -440 m 0
 500 -440 388 -421 276 -385 c 1
 276 -203 l 1
 410 -265 509 -293 607 -293 c 0xde
 800 -293 886 -186 886 45 c 2
 886 178 l 1
 830 57 730 -8 585 -8 c 0
 318 -8 151 218 151 570 c 0
 151 921 317 1147 586 1147 c 0
 723 1147 825 1090 886 971 c 1
 904 1116 l 1
 1070 1116 l 1
 1070 72 l 2
 1070 -267 910 -440 601 -440 c 0
620 145 m 0
 796 145 886 292 886 569 c 0
 886 846 796 991 619 991 c 0
 443 991 345 847 345 570 c 0
 345 291 444 145 620 145 c 0
EndSplineSet
EndChar

StartChar: uni0123
Encoding: 291 291 152
Width: 1233
Flags: MW
HStem: -440 147<558 703.5 558 755.5> -8 153<532 657.5> 991 125 991 156<531 654.5 451.5 707.5> 1297 345<514 847 701 753>
VStem: 151 194<430.5 708.5 430.5 745.5> 886 184<45 72 72 178 178 178 430.5 707.5 971 971>
LayerCount: 2
Back
Fore
SplineSet
514 1297 m 1xee
 701 1642 l 1
 847 1642 l 1
 753 1297 l 1
 514 1297 l 1xee
601 -440 m 0
 500 -440 388 -421 276 -385 c 1
 276 -203 l 1
 410 -265 509 -293 607 -293 c 0
 800 -293 886 -186 886 45 c 2
 886 178 l 1
 830 57 730 -8 585 -8 c 0xde
 318 -8 151 218 151 570 c 0
 151 921 317 1147 586 1147 c 0
 723 1147 825 1090 886 971 c 1
 904 1116 l 1
 1070 1116 l 1
 1070 72 l 2
 1070 -267 910 -440 601 -440 c 0
620 145 m 0
 796 145 886 292 886 569 c 0
 886 846 796 991 619 991 c 0
 443 991 345 847 345 570 c 0
 345 291 444 145 620 145 c 0
EndSplineSet
EndChar

StartChar: gdotaccent
Encoding: 289 289 153
Width: 1233
Flags: MW
HStem: -440 147<558 703.5 558 755.5> -8 153<532 657.5> 991 125 991 156<531 654.5 451.5 707.5> 1348 204<561 716 571 716>
VStem: 151 194<430.5 708.5 430.5 745.5> 541 205<1378 1522 1368 1532> 886 184<45 72 72 178 178 178 430.5 707.5 971 971>
LayerCount: 2
Back
Fore
SplineSet
716 1348 m 2xef
 571 1348 l 2
 551 1348 541 1358 541 1378 c 2
 541 1522 l 2
 541 1542 551 1552 571 1552 c 2
 716 1552 l 2
 736 1552 746 1542 746 1522 c 2
 746 1378 l 2
 746 1358 736 1348 716 1348 c 2xef
601 -440 m 0
 500 -440 388 -421 276 -385 c 1
 276 -203 l 1xdf
 410 -265 509 -293 607 -293 c 0
 800 -293 886 -186 886 45 c 2
 886 178 l 1
 830 57 730 -8 585 -8 c 0
 318 -8 151 218 151 570 c 0
 151 921 317 1147 586 1147 c 0
 723 1147 825 1090 886 971 c 1
 904 1116 l 1
 1070 1116 l 1
 1070 72 l 2
 1070 -267 910 -440 601 -440 c 0
620 145 m 0
 796 145 886 292 886 569 c 0
 886 846 796 991 619 991 c 0
 443 991 345 847 345 570 c 0
 345 291 444 145 620 145 c 0
EndSplineSet
EndChar

StartChar: h
Encoding: 104 104 154
Width: 1233
Flags: MW
HStem: 0 21G<195 195 195 379 866 866 866 1051> 987 160<671.5 684> 1536 20G<195 379 379 379>
VStem: 195 184<0 633 952 1556> 866 185<0 694 0 744.5>
LayerCount: 2
Back
Fore
SplineSet
195 0 m 1
 195 1556 l 1
 379 1556 l 1
 379 952 l 1
 412 1017 457 1065 512 1098 c 0
 567 1131 633 1147 710 1147 c 0
 830 1147 912 1107 967 1035 c 0
 1023 960 1051 846 1051 694 c 2
 1051 0 l 1
 866 0 l 1
 866 694 l 2
 866 795 848 869 813 916 c 0
 778 963 722 987 646 987 c 0
 558 987 494 956 449 896 c 0
 402 835 379 748 379 633 c 2
 379 0 l 1
 195 0 l 1
EndSplineSet
EndChar

StartChar: hbar
Encoding: 295 295 155
Width: 1233
Flags: MW
HStem: 0 21G<195 195 195 379 866 866 866 1051> 987 160<634.5 723.5> 1270 164<70 195 70 195 379 732> 1536 20G<195 379 379 379>
VStem: 195 184<0 633 952 1270 1434 1556> 866 185<0 694 0 794.5>
LayerCount: 2
Back
Fore
SplineSet
195 0 m 1
 195 1270 l 1
 70 1270 l 1
 70 1434 l 1
 195 1434 l 1
 195 1556 l 1
 379 1556 l 1
 379 1434 l 1
 732 1434 l 1
 732 1270 l 1
 379 1270 l 1
 379 952 l 1
 444 1081 558 1147 711 1147 c 0
 940 1147 1051 999 1051 694 c 2
 1051 0 l 1
 866 0 l 1
 866 694 l 2
 866 895 799 987 648 987 c 0
 473 987 379 862 379 633 c 2
 379 0 l 1
 195 0 l 1
EndSplineSet
EndChar

StartChar: i
Encoding: 105 105 156
Width: 1233
Flags: MW
HStem: -8 156<805.5 1092 877 1092 877 1092> 976 144<268 513 268 697> 1323 233<513 667 523 667>
VStem: 268 429<976 1120> 513 184<398 976 976 976>
LayerCount: 2
Back
Fore
SplineSet
667 1323 m 2xf0
 523 1323 l 2
 503 1323 493 1333 493 1353 c 2
 493 1526 l 2
 493 1546 503 1556 523 1556 c 2
 667 1556 l 2
 687 1556 697 1546 697 1526 c 2
 697 1353 l 2
 697 1333 687 1323 667 1323 c 2xf0
1092 -8 m 1
 859 -8 l 2xe8
 752 -8 668 23 604 98 c 0
 543 169 513 269 513 398 c 2
 513 976 l 1
 268 976 l 1
 268 1120 l 1
 697 1120 l 1
 697 398 l 2
 697 315 712 252 743 211 c 0
 775 167 820 148 877 148 c 2
 1092 148 l 1
 1092 -8 l 1
EndSplineSet
EndChar

StartChar: dotlessi
Encoding: 305 305 157
Width: 1233
Flags: MW
HStem: -8 156<805.5 1092 877 1092 877 1092> 976 144<268 513 268 697>
VStem: 268 429<976 1120> 513 184<398 976 976 976>
LayerCount: 2
Back
Fore
SplineSet
1092 -8 m 1xe0
 859 -8 l 2
 752 -8 668 23 604 98 c 0
 543 169 513 269 513 398 c 2
 513 976 l 1
 268 976 l 1
 268 1120 l 1
 697 1120 l 1
 697 398 l 2
 697 315 712 252 743 211 c 0xd0
 775 167 820 148 877 148 c 2
 1092 148 l 1
 1092 -8 l 1xe0
EndSplineSet
EndChar

StartChar: iacute
Encoding: 237 237 158
Width: 1233
Flags: MW
HStem: -8 156<805.5 1092 877 1092 877 1092> 976 144<268 513 268 697> 1627 20G<794 992 992 992>
VStem: 268 429<976 1120> 513 184<398 976 976 976>
LayerCount: 2
Back
Fore
SplineSet
513 1271 m 1xf0
 794 1647 l 1
 992 1647 l 1
 667 1271 l 1
 513 1271 l 1xf0
1092 -8 m 1
 859 -8 l 2
 752 -8 668 23 604 98 c 0
 543 169 513 269 513 398 c 2
 513 976 l 1
 268 976 l 1xe8
 268 1120 l 1
 697 1120 l 1
 697 398 l 2
 697 315 712 252 743 211 c 0
 775 167 820 148 877 148 c 2
 1092 148 l 1
 1092 -8 l 1
EndSplineSet
EndChar

StartChar: icircumflex
Encoding: 238 238 159
Width: 1233
Flags: MW
HStem: -8 156<805.5 1092 877 1092 877 1092> 976 144<268 513 268 697> 1628 20G<514 661 661 661>
VStem: 268 429<976 1120> 513 184<398 976 976 976>
LayerCount: 2
Back
Fore
SplineSet
268 1272 m 1xf0
 514 1648 l 1
 661 1648 l 1
 907 1272 l 1
 768 1272 l 1
 587 1517 l 1
 407 1272 l 1
 268 1272 l 1xf0
1092 -8 m 1
 859 -8 l 2
 752 -8 668 23 604 98 c 0xf0
 543 169 513 269 513 398 c 2
 513 976 l 1
 268 976 l 1
 268 1120 l 1xe8
 697 1120 l 1
 697 398 l 2
 697 315 712 252 743 211 c 0
 775 167 820 148 877 148 c 2
 1092 148 l 1
 1092 -8 l 1
EndSplineSet
EndChar

StartChar: idieresis
Encoding: 239 239 160
Width: 1233
Flags: MW
HStem: -8 156<805.5 1092 877 1092 877 1092> 976 144<268 513 268 697> 1350 202<318 471 328 471 720 862>
VStem: 268 429<976 1120> 298 203<1380 1522 1370 1532> 513 184<398 976 976 976> 690 202<1380 1522 1370 1532>
LayerCount: 2
Back
Fore
SplineSet
471 1350 m 2xf0
 328 1350 l 2
 308 1350 298 1360 298 1380 c 2
 298 1522 l 2
 298 1542 308 1552 328 1552 c 2
 471 1552 l 2
 491 1552 501 1542 501 1522 c 2
 501 1380 l 2
 501 1360 491 1350 471 1350 c 2xf0
862 1350 m 2
 720 1350 l 2xea
 700 1350 690 1360 690 1380 c 2
 690 1522 l 2
 690 1542 700 1552 720 1552 c 2
 862 1552 l 2
 882 1552 892 1542 892 1522 c 2xec
 892 1380 l 2
 892 1360 882 1350 862 1350 c 2
1092 -8 m 1
 859 -8 l 2
 752 -8 668 23 604 98 c 0
 543 169 513 269 513 398 c 2
 513 976 l 1
 268 976 l 1
 268 1120 l 1
 697 1120 l 1
 697 398 l 2
 697 315 712 252 743 211 c 0
 775 167 820 148 877 148 c 2
 1092 148 l 1
 1092 -8 l 1
EndSplineSet
EndChar

StartChar: igrave
Encoding: 236 236 161
Width: 1233
Flags: MW
HStem: -8 156<805.5 1092 877 1092 877 1092> 976 144<268 513 268 697> 1627 20G<218 416 416 416>
VStem: 268 429<976 1120> 513 184<398 976 976 976>
LayerCount: 2
Back
Fore
SplineSet
543 1271 m 1xf0
 218 1647 l 1
 416 1647 l 1
 697 1271 l 1
 543 1271 l 1xf0
1092 -8 m 1
 859 -8 l 2
 752 -8 668 23 604 98 c 0
 543 169 513 269 513 398 c 2
 513 976 l 1
 268 976 l 1xe8
 268 1120 l 1
 697 1120 l 1
 697 398 l 2
 697 315 712 252 743 211 c 0
 775 167 820 148 877 148 c 2
 1092 148 l 1
 1092 -8 l 1
EndSplineSet
EndChar

StartChar: imacron
Encoding: 299 299 162
Width: 1233
Flags: MW
HStem: -8 156<805.5 1092 877 1092 877 1092> 976 144<268 513 268 697> 1320 148<268 866 268 866>
VStem: 268 429<976 1120> 513 184<398 976 976 976>
LayerCount: 2
Back
Fore
SplineSet
268 1320 m 1xf0
 268 1468 l 1
 866 1468 l 1
 866 1320 l 1
 268 1320 l 1xf0
1092 -8 m 1
 859 -8 l 2
 752 -8 668 23 604 98 c 0
 543 169 513 269 513 398 c 2
 513 976 l 1
 268 976 l 1xf0
 268 1120 l 1
 697 1120 l 1
 697 398 l 2
 697 315 712 252 743 211 c 0xe8
 775 167 820 148 877 148 c 2
 1092 148 l 1
 1092 -8 l 1
EndSplineSet
EndChar

StartChar: iogonek
Encoding: 303 303 163
Width: 1233
Flags: MW
HStem: -384 123<936 977.5> -8 156<936 1092 936 936> 976 144<268 513 268 697> 1323 233<515 664 526 664>
VStem: 268 429<976 1120> 513 184<398 976 976 976> 723 139<-201 -178.5> 723 369<-269.5 148>
LayerCount: 2
Back
Fore
SplineSet
664 1323 m 2xfa
 526 1323 l 2
 504 1323 493 1333 493 1353 c 2
 493 1526 l 2
 493 1546 504 1556 526 1556 c 2xf9
 664 1556 l 2
 686 1556 697 1546 697 1526 c 2
 697 1353 l 2
 697 1333 686 1323 664 1323 c 2xfa
972 -261 m 0
 1013 -261 1055 -251 1096 -231 c 1
 1096 -364 l 1
 1040 -379 1002 -384 953 -384 c 0xf6
 804 -384 723 -329 723 -210 c 0
 723 -147 746 -92 816 -6 c 1
 729 2 659 34 604 98 c 0
 543 169 513 269 513 398 c 2
 513 976 l 1
 268 976 l 1
 268 1120 l 1
 697 1120 l 1
 697 398 l 2
 697 315 712 252 743 211 c 0
 775 167 820 148 877 148 c 2
 1092 148 l 1
 1092 -8 l 1
 936 -8 l 1
 883 -84 862 -130 862 -173 c 0
 862 -229 900 -261 972 -261 c 0
EndSplineSet
EndChar

StartChar: itilde
Encoding: 297 297 164
Width: 1233
Flags: MW
HStem: -8 156<805.5 1092 877 1092 877 1092> 976 144<268 513 268 697> 1259 282<268 488.5 268 488.5 400.5 794.5>
VStem: 268 429<976 1120> 513 184<398 976 976 976>
LayerCount: 2
Back
Fore
SplineSet
392 1259 m 1xf0
 268 1259 l 1
 268 1433 338 1541 463 1541 c 0
 514 1541 553 1524 602 1480 c 2
 659 1425 l 2
 691 1394 710 1386 729 1386 c 0
 752 1386 771 1398 783 1423 c 0
 794 1447 801 1486 802 1541 c 1
 927 1541 l 1
 927 1367 857 1259 732 1259 c 0xe8
 681 1259 642 1276 593 1320 c 2
 536 1375 l 2
 508 1402 489 1414 466 1414 c 0
 443 1414 424 1402 412 1377 c 0
 399 1351 393 1312 392 1259 c 1xf0
1092 -8 m 1xf0
 859 -8 l 2
 752 -8 668 23 604 98 c 0
 543 169 513 269 513 398 c 2
 513 976 l 1
 268 976 l 1
 268 1120 l 1
 697 1120 l 1
 697 398 l 2
 697 315 712 252 743 211 c 0
 775 167 820 148 877 148 c 2
 1092 148 l 1
 1092 -8 l 1xf0
EndSplineSet
EndChar

StartChar: j
Encoding: 106 106 165
Width: 1233
Flags: MW
HStem: -426 156<238 472 238 472 472 492> 977 143<335 652 335 836> 1323 233<642 796 652 796>
VStem: 652 184<-20 977 977 977>
LayerCount: 2
Back
Fore
SplineSet
796 1323 m 2
 652 1323 l 2
 632 1323 622 1333 622 1353 c 2
 622 1526 l 2
 622 1546 632 1556 652 1556 c 2
 796 1556 l 2
 816 1556 826 1546 826 1526 c 2
 826 1353 l 2
 826 1333 816 1323 796 1323 c 2
238 -426 m 1
 238 -270 l 1
 472 -270 l 2
 532 -270 577 -249 607 -208 c 0
 637 -166 652 -103 652 -20 c 2
 652 977 l 1
 335 977 l 1
 335 1120 l 1
 836 1120 l 1
 836 -20 l 2
 836 -147 807 -249 747 -321 c 0
 687 -393 600 -426 492 -426 c 2
 238 -426 l 1
EndSplineSet
EndChar

StartChar: k
Encoding: 107 107 166
Width: 1233
Flags: MW
HStem: 0 21G<226 226 226 416 967 967 967 1192> 1100 20G<899 1123 1123 1123> 1536 20G<226 416 416 416>
VStem: 226 190<0 449 655 1556>
LayerCount: 2
Back
Fore
SplineSet
226 0 m 1
 226 1556 l 1
 416 1556 l 1
 416 655 l 1
 899 1120 l 1
 1123 1120 l 1
 682 698 l 1
 1192 0 l 1
 967 0 l 1
 553 578 l 1
 416 449 l 1
 416 0 l 1
 226 0 l 1
EndSplineSet
EndChar

StartChar: uni0137
Encoding: 311 311 167
Width: 1233
Flags: MW
HStem: -544 345<532 865 626 678> 0 21G<226 226 226 416 967 967 967 1192> 1100 20G<899 1123 1123 1123> 1536 20G<226 416 416 416>
VStem: 226 190<0 449 655 1556>
LayerCount: 2
Back
Fore
SplineSet
226 0 m 1
 226 1556 l 1
 416 1556 l 1
 416 655 l 1
 899 1120 l 1
 1123 1120 l 1
 682 698 l 1
 1192 0 l 1
 967 0 l 1
 553 578 l 1
 416 449 l 1
 416 0 l 1
 226 0 l 1
532 -544 m 1
 626 -199 l 1
 865 -199 l 1
 678 -544 l 1
 532 -544 l 1
EndSplineSet
EndChar

StartChar: l
Encoding: 108 108 168
Width: 1233
Flags: MW
HStem: -8 156<767.5 1054 839 1054 839 1054> 1412 144<180 475 180 659>
VStem: 180 479<1412 1556> 475 184<398 1412 1412 1412>
LayerCount: 2
Back
Fore
SplineSet
1054 -8 m 1xe0
 821 -8 l 2
 714 -8 630 23 566 98 c 0
 505 169 475 269 475 398 c 2
 475 1412 l 1
 180 1412 l 1
 180 1556 l 1
 659 1556 l 1
 659 398 l 2
 659 315 674 252 705 211 c 0xd0
 737 167 782 148 839 148 c 2
 1054 148 l 1
 1054 -8 l 1xe0
EndSplineSet
EndChar

StartChar: lacute
Encoding: 314 314 169
Width: 1233
Flags: MW
HStem: -8 156<690.5 1034 819 1034 819 1034> 1412 144<160 455 160 639> 1860 20G<577 763 763 763>
VStem: 160 479<1412 1556> 455 184<398 1412 1412 1412>
LayerCount: 2
Back
Fore
SplineSet
380 1616 m 1xf0
 577 1880 l 1
 763 1880 l 1
 534 1616 l 1
 380 1616 l 1xf0
1034 -8 m 1
 801 -8 l 2
 580 -8 455 138 455 398 c 2
 455 1412 l 1
 160 1412 l 1xe8
 160 1556 l 1
 639 1556 l 1
 639 398 l 2
 639 231 699 148 819 148 c 2
 1034 148 l 1
 1034 -8 l 1
EndSplineSet
EndChar

StartChar: lcaron
Encoding: 318 318 170
Width: 1233
Flags: MW
HStem: -8 156<690.5 1034 819 1034 819 1034> 1180 376<160 890 959 1044> 1412 144<160 455 160 639>
VStem: 160 479<1412 1556> 455 184<398 1412 1412 1412>
LayerCount: 2
Back
Fore
SplineSet
1034 -8 m 1xd0
 801 -8 l 2
 580 -8 455 138 455 398 c 2
 455 1412 l 1
 160 1412 l 1
 160 1556 l 1
 639 1556 l 1
 639 398 l 2
 639 231 699 148 819 148 c 2
 1034 148 l 1
 1034 -8 l 1xd0
890 1180 m 1
 959 1556 l 1xa8
 1157 1556 l 1xb0
 1044 1180 l 1
 890 1180 l 1
EndSplineSet
EndChar

StartChar: uni013C
Encoding: 316 316 171
Width: 1233
Flags: MW
HStem: -544 345<403 736 497 549> -8 156<690.5 1034 819 1034 819 1034> 1412 144<160 455 160 639>
VStem: 160 479<1412 1556> 455 184<398 1412 1412 1412>
LayerCount: 2
Back
Fore
SplineSet
1034 -8 m 1xf0
 801 -8 l 2
 580 -8 455 138 455 398 c 2
 455 1412 l 1
 160 1412 l 1
 160 1556 l 1
 639 1556 l 1
 639 398 l 2
 639 231 699 148 819 148 c 2
 1034 148 l 1
 1034 -8 l 1xf0
403 -544 m 1
 497 -199 l 1
 736 -199 l 1xe8
 549 -544 l 1
 403 -544 l 1
EndSplineSet
EndChar

StartChar: lslash
Encoding: 322 322 172
Width: 1233
Flags: MW
HStem: -8 156<747.5 1034 819 1034 819 1034> 1412 144<160 455 160 639>
VStem: 160 479<1412 1556> 455 184<398 690 690 690 981 1412 1412 1412>
LayerCount: 2
Back
Fore
SplineSet
1034 -8 m 1xe0
 801 -8 l 2
 694 -8 610 23 546 98 c 0
 485 169 455 269 455 398 c 2
 455 690 l 1
 156 481 l 1
 76 592 l 1
 455 856 l 1
 455 1412 l 1
 160 1412 l 1
 160 1556 l 1
 639 1556 l 1
 639 981 l 1
 954 1200 l 1xd0
 1034 1090 l 1
 639 815 l 1
 639 398 l 2
 639 315 654 252 685 211 c 0
 717 167 762 148 819 148 c 2
 1034 148 l 1
 1034 -8 l 1xe0
EndSplineSet
EndChar

StartChar: m
Encoding: 109 109 173
Width: 1233
Flags: MW
HStem: 0 21G<109 109 109 276 537 537 537 705 967 967 967 1135> 993 154<379 496.5 864.5 869> 1100 20G<109 260 260 260>
VStem: 109 167<0 641> 537 168<0 641 0 738.5> 967 168<0 641 641 649 0 725.5>
LayerCount: 2
Back
Fore
SplineSet
109 0 m 1xdc
 109 1120 l 1
 260 1120 l 1
 276 1024 l 1
 298 1064 326 1095 359 1116 c 0
 392 1137 429 1147 472 1147 c 0
 521 1147 563 1135 598 1112 c 0
 631 1089 657 1054 676 1006 c 1
 699 1055 728 1090 763 1113 c 0
 798 1136 840 1147 889 1147 c 0
 981 1147 1045 1111 1080 1043 c 0
 1117 974 1135 842 1135 649 c 2
 1135 0 l 1
 967 0 l 1
 967 641 l 2
 967 810 959 895 940 936 c 0
 925 971 897 993 841 993 c 0
 790 993 756 975 736 932 c 0
 713 885 705 800 705 641 c 2
 705 0 l 1
 537 0 l 1
 537 641 l 2
 537 836 524 902 508 937 c 0
 491 972 459 993 407 993 c 0
 351 993 322 969 306 933 c 0
 287 893 276 816 276 641 c 2
 276 0 l 1xbc
 109 0 l 1xdc
EndSplineSet
EndChar

StartChar: n
Encoding: 110 110 174
Width: 1233
Flags: MW
HStem: 0 21G<195 195 195 379 866 866 866 1051> 987 160<671.5 684> 1100 20G<195 361 361 361>
VStem: 195 184<0 633> 866 185<0 694 0 744.5>
LayerCount: 2
Back
Fore
SplineSet
195 0 m 1xd8
 195 1120 l 1
 361 1120 l 1
 379 952 l 1
 412 1017 457 1065 512 1098 c 0
 567 1131 633 1147 710 1147 c 0
 830 1147 912 1107 967 1035 c 0
 1023 960 1051 846 1051 694 c 2
 1051 0 l 1
 866 0 l 1
 866 694 l 2
 866 795 848 869 813 916 c 0
 778 963 722 987 646 987 c 0
 558 987 494 956 449 896 c 0
 402 835 379 748 379 633 c 2
 379 0 l 1xb8
 195 0 l 1xd8
EndSplineSet
EndChar

StartChar: nacute
Encoding: 324 324 175
Width: 1233
Flags: MW
HStem: 0 21G<195 195 195 379 866 866 866 1051> 987 133 987 160<634.5 723.5> 1653 20G<776 974 974 974>
VStem: 195 184<0 633> 866 185<0 694 0 794.5>
LayerCount: 2
Back
Fore
SplineSet
495 1297 m 1xbc
 776 1673 l 1
 974 1673 l 1
 649 1297 l 1
 495 1297 l 1xbc
195 0 m 1
 195 1120 l 1
 361 1120 l 1
 379 952 l 1
 444 1081 558 1147 711 1147 c 0
 940 1147 1051 999 1051 694 c 2
 1051 0 l 1
 866 0 l 1xdc
 866 694 l 2
 866 895 799 987 648 987 c 0
 473 987 379 862 379 633 c 2
 379 0 l 1
 195 0 l 1
EndSplineSet
EndChar

StartChar: ncaron
Encoding: 328 328 176
Width: 1233
Flags: MW
HStem: 0 21G<195 195 195 379 866 866 866 1051> 987 133 987 160<634.5 723.5> 1653 20G<285 424 424 424 785 924 924 924>
VStem: 195 184<0 633> 866 185<0 694 0 794.5>
LayerCount: 2
Back
Fore
SplineSet
531 1297 m 1xbc
 285 1673 l 1
 424 1673 l 1
 604 1428 l 1
 785 1673 l 1
 924 1673 l 1
 678 1297 l 1
 531 1297 l 1xbc
195 0 m 1
 195 1120 l 1
 361 1120 l 1
 379 952 l 1
 444 1081 558 1147 711 1147 c 0xdc
 940 1147 1051 999 1051 694 c 2
 1051 0 l 1
 866 0 l 1
 866 694 l 2
 866 895 799 987 648 987 c 0
 473 987 379 862 379 633 c 2
 379 0 l 1
 195 0 l 1
EndSplineSet
EndChar

StartChar: uni0146
Encoding: 326 326 177
Width: 1233
Flags: MW
HStem: -544 345<456 789 550 602> 0 21G<195 195 195 379 866 866 866 1051> 987 133 987 160<634.5 723.5>
VStem: 195 184<0 633> 866 185<0 694 0 794.5>
LayerCount: 2
Back
Fore
SplineSet
195 0 m 1xdc
 195 1120 l 1
 361 1120 l 1
 379 952 l 1
 444 1081 558 1147 711 1147 c 0
 940 1147 1051 999 1051 694 c 2
 1051 0 l 1
 866 0 l 1
 866 694 l 2
 866 895 799 987 648 987 c 0
 473 987 379 862 379 633 c 2
 379 0 l 1
 195 0 l 1xdc
456 -544 m 1
 550 -199 l 1
 789 -199 l 1
 602 -544 l 1xec
 456 -544 l 1
EndSplineSet
EndChar

StartChar: eng
Encoding: 331 331 178
Width: 1233
Flags: MW
HStem: -426 156<502 687 502 687 687 707> 0 21G<195 379 195 195> 987 133 987 160<634.5 723.5>
VStem: 195 184<0 633> 866 185<-20 694>
LayerCount: 2
Back
Fore
SplineSet
502 -426 m 1xdc
 502 -270 l 1
 687 -270 l 2
 806 -270 866 -187 866 -20 c 2
 866 694 l 2
 866 895 799 987 648 987 c 0
 473 987 379 862 379 633 c 2
 379 0 l 1xec
 195 0 l 1
 195 1120 l 1
 361 1120 l 1
 379 952 l 1
 444 1081 558 1147 711 1147 c 0
 940 1147 1051 999 1051 694 c 2
 1051 -20 l 2
 1051 -281 928 -426 707 -426 c 2
 502 -426 l 1xdc
EndSplineSet
EndChar

StartChar: ntilde
Encoding: 241 241 179
Width: 1233
Flags: MW
HStem: 0 21G<195 195 195 379 866 866 866 1051> 987 160<671.5 684> 1100 20G<195 361 361 361> 1286 282<287 493 287 493 450 783>
VStem: 195 184<0 633> 866 185<0 694 0 744.5>
LayerCount: 2
Back
Fore
SplineSet
411 1286 m 1xdc
 287 1286 l 1
 288 1376 306 1445 339 1494 c 0
 373 1543 420 1568 480 1568 c 0
 506 1568 530 1563 552 1554 c 0
 572 1545 595 1530 621 1507 c 2
 678 1452 l 2
 693 1439 708 1428 716 1423 c 0
 729 1415 735 1413 746 1413 c 0
 771 1413 790 1425 802 1450 c 0
 813 1474 820 1513 821 1568 c 1
 946 1568 l 1
 945 1478 927 1409 894 1360 c 0
 860 1311 813 1286 753 1286 c 0
 727 1286 703 1291 681 1300 c 0
 661 1309 638 1324 612 1347 c 2xbc
 555 1402 l 2
 538 1418 525 1427 517 1432 c 0
 505 1439 498 1441 487 1441 c 0
 462 1441 443 1429 431 1404 c 0
 418 1378 412 1339 411 1286 c 1xdc
195 0 m 1
 195 1120 l 1
 361 1120 l 1
 379 952 l 1
 412 1017 457 1065 512 1098 c 0
 567 1131 633 1147 710 1147 c 0
 830 1147 912 1107 967 1035 c 0
 1023 960 1051 846 1051 694 c 2
 1051 0 l 1
 866 0 l 1
 866 694 l 2
 866 795 848 869 813 916 c 0
 778 963 722 987 646 987 c 0
 558 987 494 956 449 896 c 0
 402 835 379 748 379 633 c 2
 379 0 l 1
 195 0 l 1
EndSplineSet
EndChar

StartChar: o
Encoding: 111 111 180
Width: 1233
Flags: MW
HStem: -29 156<569.5 663 569.5 694.5> 991 156<569.5 663>
VStem: 137 195<488 630 488 654.5> 901 195<488 630>
LayerCount: 2
Back
Fore
SplineSet
616 -29 m 0
 463 -29 343 21 260 121 c 0
 176 225 137 373 137 560 c 0
 137 749 178 895 260 996 c 0
 342 1097 461 1147 616 1147 c 0
 776 1147 893 1095 973 996 c 0
 1055 895 1096 750 1096 561 c 0
 1096 370 1056 221 973 121 c 0
 893 22 773 -29 616 -29 c 0
616 127 m 0
 710 127 781 164 829 237 c 0
 877 310 901 417 901 559 c 0
 901 701 877 809 829 882 c 0
 781 955 710 991 616 991 c 0
 523 991 452 955 404 882 c 0
 356 809 332 701 332 559 c 0
 332 417 356 310 404 237 c 0
 452 164 523 127 616 127 c 0
EndSplineSet
Substitution2: "Single Substitution lookup 16 subtable" ordmasculine
Substitution2: "'aalt' Access All Alternates in Latin lookup 0 subtable" ordmasculine
EndChar

StartChar: oacute
Encoding: 243 243 181
Width: 1233
Flags: MW
HStem: -29 156<569.5 663 569.5 694.5> 991 156<569.5 663> 1653 20G<756 954 954 954>
VStem: 137 195<488 630 488 654.5> 901 195<488 630>
LayerCount: 2
Back
Fore
SplineSet
475 1297 m 1
 756 1673 l 1
 954 1673 l 1
 629 1297 l 1
 475 1297 l 1
616 -29 m 0
 463 -29 343 21 260 121 c 0
 176 225 137 373 137 560 c 0
 137 749 178 895 260 996 c 0
 342 1097 461 1147 616 1147 c 0
 776 1147 893 1095 973 996 c 0
 1055 895 1096 750 1096 561 c 0
 1096 370 1056 221 973 121 c 0
 893 22 773 -29 616 -29 c 0
616 127 m 0
 710 127 781 164 829 237 c 0
 877 310 901 417 901 559 c 0
 901 701 877 809 829 882 c 0
 781 955 710 991 616 991 c 0
 523 991 452 955 404 882 c 0
 356 809 332 701 332 559 c 0
 332 417 356 310 404 237 c 0
 452 164 523 127 616 127 c 0
EndSplineSet
EndChar

StartChar: ocircumflex
Encoding: 244 244 182
Width: 1233
Flags: MW
HStem: -29 156<569.5 663 569.5 694.5> 991 156<569.5 663> 1653 20G<543 690 690 690>
VStem: 137 195<488 630 488 654.5> 901 195<488 630>
LayerCount: 2
Back
Fore
SplineSet
297 1297 m 1
 543 1673 l 1
 690 1673 l 1
 936 1297 l 1
 797 1297 l 1
 616 1542 l 1
 436 1297 l 1
 297 1297 l 1
616 -29 m 0
 463 -29 343 21 260 121 c 0
 176 225 137 373 137 560 c 0
 137 749 178 895 260 996 c 0
 342 1097 461 1147 616 1147 c 0
 776 1147 893 1095 973 996 c 0
 1055 895 1096 750 1096 561 c 0
 1096 370 1056 221 973 121 c 0
 893 22 773 -29 616 -29 c 0
616 127 m 0
 710 127 781 164 829 237 c 0
 877 310 901 417 901 559 c 0
 901 701 877 809 829 882 c 0
 781 955 710 991 616 991 c 0
 523 991 452 955 404 882 c 0
 356 809 332 701 332 559 c 0
 332 417 356 310 404 237 c 0
 452 164 523 127 616 127 c 0
EndSplineSet
EndChar

StartChar: odieresis
Encoding: 246 246 183
Width: 1233
Flags: MW
HStem: -29 156<569.5 663 569.5 694.5> 991 156<569.5 663> 1350 202<339 492 349 492 741 883>
VStem: 137 195<488 630 488 654.5> 319 203<1380 1522 1370 1532> 711 202<1380 1522 1370 1532> 901 195<488 630>
LayerCount: 2
Back
Fore
SplineSet
492 1350 m 2xf2
 349 1350 l 2
 329 1350 319 1360 319 1380 c 2
 319 1522 l 2
 319 1542 329 1552 349 1552 c 2
 492 1552 l 2
 512 1552 522 1542 522 1522 c 2
 522 1380 l 2
 522 1360 512 1350 492 1350 c 2xf2
883 1350 m 2
 741 1350 l 2
 721 1350 711 1360 711 1380 c 2
 711 1522 l 2
 711 1542 721 1552 741 1552 c 2
 883 1552 l 2
 903 1552 913 1542 913 1522 c 2
 913 1380 l 2
 913 1360 903 1350 883 1350 c 2
616 -29 m 0
 463 -29 343 21 260 121 c 0
 176 225 137 373 137 560 c 0
 137 749 178 895 260 996 c 0xec
 342 1097 461 1147 616 1147 c 0
 776 1147 893 1095 973 996 c 0
 1055 895 1096 750 1096 561 c 0
 1096 370 1056 221 973 121 c 0
 893 22 773 -29 616 -29 c 0
616 127 m 0
 710 127 781 164 829 237 c 0
 877 310 901 417 901 559 c 0
 901 701 877 809 829 882 c 0
 781 955 710 991 616 991 c 0
 523 991 452 955 404 882 c 0
 356 809 332 701 332 559 c 0
 332 417 356 310 404 237 c 0
 452 164 523 127 616 127 c 0
EndSplineSet
EndChar

StartChar: ograve
Encoding: 242 242 184
Width: 1233
Flags: MW
HStem: -29 156<569.5 663 569.5 694.5> 991 156<569.5 663> 1653 20G<279 477 477 477>
VStem: 137 195<488 630 488 654.5> 901 195<488 630>
LayerCount: 2
Back
Fore
SplineSet
604 1297 m 1
 279 1673 l 1
 477 1673 l 1
 758 1297 l 1
 604 1297 l 1
616 -29 m 0
 463 -29 343 21 260 121 c 0
 176 225 137 373 137 560 c 0
 137 749 178 895 260 996 c 0
 342 1097 461 1147 616 1147 c 0
 776 1147 893 1095 973 996 c 0
 1055 895 1096 750 1096 561 c 0
 1096 370 1056 221 973 121 c 0
 893 22 773 -29 616 -29 c 0
616 127 m 0
 710 127 781 164 829 237 c 0
 877 310 901 417 901 559 c 0
 901 701 877 809 829 882 c 0
 781 955 710 991 616 991 c 0
 523 991 452 955 404 882 c 0
 356 809 332 701 332 559 c 0
 332 417 356 310 404 237 c 0
 452 164 523 127 616 127 c 0
EndSplineSet
EndChar

StartChar: ohorn
Encoding: 417 417 185
Width: 1233
Flags: MW
HStem: -29 156<417 605.5 417 667> 764 139<1018 1019 980 1087.5> 991 156<417 605.5> 1117 20G<1049 1182 1182 1182>
VStem: 32 195<416.5 702.5 416.5 748.5> 796 195<416.5 597.5 367.5 702.5> 1079 123<977 1018.5 919.5 1033.5>
LayerCount: 2
Back
Fore
SplineSet
1049 1137 m 1xee
 1182 1137 l 1
 1197 1081 1202 1043 1202 994 c 0
 1202 845 1147 764 1028 764 c 0
 1008 764 989 765 970 772 c 1
 984 708 991 637 991 558 c 0
 991 177 823 -29 511 -29 c 0xee
 198 -29 32 174 32 558 c 0
 32 939 200 1147 511 1147 c 0
 702 1147 837 1071 916 922 c 1
 944 909 969 903 991 903 c 0xde
 1047 903 1079 941 1079 1013 c 0
 1079 1054 1069 1096 1049 1137 c 1xee
511 127 m 0xde
 700 127 796 274 796 559 c 0
 796 846 700 991 511 991 c 0
 323 991 227 846 227 559 c 0
 227 274 323 127 511 127 c 0xde
EndSplineSet
EndChar

StartChar: ohungarumlaut
Encoding: 337 337 186
Width: 1233
Flags: MW
HStem: -29 156<522 710.5 522 772> 991 156<522 710.5> 1297 376<344 705 344 705 664 705 535 799 664 664>
VStem: 137 195<416.5 702.5 416.5 748.5> 901 195<416.5 702.5>
LayerCount: 2
Back
Fore
SplineSet
344 1297 m 1
 535 1673 l 1
 705 1673 l 1
 481 1297 l 1
 344 1297 l 1
664 1297 m 1
 868 1673 l 1
 1047 1673 l 1
 799 1297 l 1
 664 1297 l 1
616 -29 m 0
 303 -29 137 174 137 558 c 0
 137 939 305 1147 616 1147 c 0
 927 1147 1096 939 1096 558 c 0
 1096 177 928 -29 616 -29 c 0
616 127 m 0
 805 127 901 274 901 559 c 0
 901 846 805 991 616 991 c 0
 428 991 332 846 332 559 c 0
 332 274 428 127 616 127 c 0
EndSplineSet
EndChar

StartChar: omacron
Encoding: 333 333 187
Width: 1233
Flags: MW
HStem: -29 156<522 710.5 522 772> 991 156<522 710.5> 1347 148<317 915 317 915>
VStem: 137 195<416.5 702.5 416.5 748.5> 901 195<416.5 702.5>
LayerCount: 2
Back
Fore
SplineSet
317 1347 m 1
 317 1495 l 1
 915 1495 l 1
 915 1347 l 1
 317 1347 l 1
616 -29 m 0
 303 -29 137 174 137 558 c 0
 137 939 305 1147 616 1147 c 0
 927 1147 1096 939 1096 558 c 0
 1096 177 928 -29 616 -29 c 0
616 127 m 0
 805 127 901 274 901 559 c 0
 901 846 805 991 616 991 c 0
 428 991 332 846 332 559 c 0
 332 274 428 127 616 127 c 0
EndSplineSet
EndChar

StartChar: oslash
Encoding: 248 248 188
Width: 1233
Flags: MW
HStem: -96 21G<139 139> -29 156<591.5 662.5 591.5 693.5> 991 156<569.5 638> 1192 20G<1081 1081>
VStem: 137 191<560.5 647.5 560.5 654> 901 195<487.5 576>
LayerCount: 2
Back
Fore
SplineSet
139 -96 m 1
 47 -20 l 1
 217 180 l 1
 186 236 171 286 158 349 c 0
 143 417 137 480 137 559 c 0
 137 749 178 895 260 996 c 0
 342 1097 460 1147 615 1147 c 0
 680 1147 744 1139 795 1120 c 0
 844 1103 893 1075 934 1036 c 1
 1081 1212 l 1
 1174 1135 l 1
 1010 940 l 1
 1037 897 1059 843 1074 778 c 0
 1089 713 1096 640 1096 561 c 0
 1096 370 1056 221 973 121 c 0
 891 21 772 -29 615 -29 c 0
 542 -29 486 -18 435 1 c 0
 380 21 339 47 299 90 c 1
 139 -96 l 1
356 340 m 1
 817 897 l 1
 794 930 766 953 733 968 c 0
 699 983 660 991 616 991 c 0
 523 991 452 955 403 884 c 0
 355 815 328 716 328 579 c 0
 328 542 330 508 335 469 c 0
 340 430 347 387 356 340 c 1
615 127 m 0
 710 127 781 164 829 237 c 0
 877 310 901 419 901 556 c 0
 901 596 899 630 895 667 c 0
 892 695 888 732 877 780 c 1
 414 221 l 1
 443 184 469 166 501 151 c 0
 534 136 568 127 615 127 c 0
EndSplineSet
EndChar

StartChar: oslashacute
Encoding: 511 511 189
Width: 1233
Flags: MW
HStem: -96 21G<139 139> -29 156<572 709.5 572 772.5> 991 156<525 659.5> 1653 20G<756 954 954 954>
VStem: 137 191<546 713 546 751> 901 195<414.5 592>
LayerCount: 2
Back
Fore
SplineSet
475 1297 m 1
 756 1673 l 1
 954 1673 l 1
 629 1297 l 1
 475 1297 l 1
139 -96 m 1
 47 -20 l 1
 217 180 l 1
 165 276 137 406 137 562 c 0
 137 940 305 1147 618 1147 c 0
 749 1147 854 1112 934 1036 c 1
 1081 1212 l 1
 1174 1135 l 1
 1010 940 l 1
 1066 852 1096 723 1096 560 c 0
 1096 173 929 -29 616 -29 c 0
 480 -29 374 11 299 90 c 1
 139 -96 l 1
356 340 m 1
 817 897 l 1
 769 964 700 991 619 991 c 0
 431 991 328 842 328 584 c 0
 328 508 337 436 356 340 c 1
615 127 m 0
 804 127 901 277 901 552 c 0
 901 632 893 703 877 780 c 1
 414 221 l 1
 462 158 529 127 615 127 c 0
EndSplineSet
EndChar

StartChar: otilde
Encoding: 245 245 190
Width: 1233
Flags: MW
HStem: -29 156<569.5 663 569.5 694.5> 991 156<569.5 663> 1286 282<287 493 287 493 450 783>
VStem: 137 195<488 630 488 654.5> 901 195<488 630>
LayerCount: 2
Back
Fore
SplineSet
411 1286 m 1
 287 1286 l 1
 288 1376 306 1445 339 1494 c 0
 373 1543 420 1568 480 1568 c 0
 506 1568 530 1563 552 1554 c 0
 572 1545 595 1530 621 1507 c 2
 678 1452 l 2
 693 1439 708 1428 716 1423 c 0
 729 1415 735 1413 746 1413 c 0
 771 1413 790 1425 802 1450 c 0
 813 1474 820 1513 821 1568 c 1
 946 1568 l 1
 945 1478 927 1409 894 1360 c 0
 860 1311 813 1286 753 1286 c 0
 727 1286 703 1291 681 1300 c 0
 661 1309 638 1324 612 1347 c 2
 555 1402 l 2
 538 1418 525 1427 517 1432 c 0
 505 1439 498 1441 487 1441 c 0
 462 1441 443 1429 431 1404 c 0
 418 1378 412 1339 411 1286 c 1
616 -29 m 0
 463 -29 343 21 260 121 c 0
 176 225 137 373 137 560 c 0
 137 749 178 895 260 996 c 0
 342 1097 461 1147 616 1147 c 0
 776 1147 893 1095 973 996 c 0
 1055 895 1096 750 1096 561 c 0
 1096 370 1056 221 973 121 c 0
 893 22 773 -29 616 -29 c 0
616 127 m 0
 710 127 781 164 829 237 c 0
 877 310 901 417 901 559 c 0
 901 701 877 809 829 882 c 0
 781 955 710 991 616 991 c 0
 523 991 452 955 404 882 c 0
 356 809 332 701 332 559 c 0
 332 417 356 310 404 237 c 0
 452 164 523 127 616 127 c 0
EndSplineSet
EndChar

StartChar: oe
Encoding: 339 339 191
Width: 1233
Flags: MW
HStem: -29 152<340 399.5 893 953.5> 514 143<719 1047 719 1210 719 1047> 995 152<336.5 403 308.5 407 864.5 911.5>
VStem: 14 176<459.5 660 459.5 670.5> 557 162<455.5 514 376 642> 1049 161<514 759.5>
LayerCount: 2
Back
Fore
SplineSet
369 -29 m 0
 237 -29 155 21 100 109 c 0
 40 205 14 347 14 558 c 0
 14 783 45 919 99 1008 c 0
 156 1101 244 1147 373 1147 c 0
 433 1147 484 1137 526 1116 c 0
 569 1095 606 1063 637 1020 c 1
 660 1059 695 1092 739 1115 c 0
 783 1138 836 1147 893 1147 c 0
 1008 1147 1090 1108 1138 1029 c 0
 1186 950 1210 808 1210 604 c 2
 1210 514 l 1
 719 514 l 1
 719 430 l 2
 719 322 736 244 769 195 c 0
 802 147 852 123 932 123 c 0
 981 123 1032 131 1076 150 c 0
 1120 167 1157 193 1188 227 c 1
 1188 55 l 1
 1148 24 1102 2 1067 -9 c 0
 1031 -21 980 -29 927 -29 c 0
 859 -29 806 -16 759 5 c 0
 712 26 672 56 637 104 c 1
 597 53 561 24 521 4 c 0
 478 -19 430 -29 369 -29 c 0
372 123 m 0
 441 123 489 151 516 207 c 0
 543 263 557 361 557 550 c 0
 557 734 544 843 516 907 c 0
 488 971 441 995 373 995 c 0
 300 995 256 965 231 912 c 0
 205 857 190 762 190 558 c 0
 190 361 204 263 231 207 c 0
 260 146 308 123 372 123 c 0
719 657 m 1
 1047 657 l 1
 1047 664 1047 674 1048 687 c 0
 1049 700 1049 706 1049 709 c 0
 1049 810 1036 883 1009 928 c 0
 982 973 940 995 883 995 c 0
 825 995 783 972 758 927 c 0
 732 881 719 805 719 700 c 2
 719 657 l 1
EndSplineSet
EndChar

StartChar: p
Encoding: 112 112 192
Width: 1233
Flags: MW
HStem: -426 21G<190 190 190 375> -29 156<636 691.5 602.5 741.5> 991 156<641.5 691.5> 1100 20G<190 357 357 357>
VStem: 190 185<-426 141 488 630> 915 193<487.5 630.5>
LayerCount: 2
Back
Fore
SplineSet
190 -426 m 1xec
 190 1120 l 1
 357 1120 l 1
 375 977 l 1
 406 1033 447 1075 498 1104 c 0
 549 1133 608 1147 675 1147 c 0
 808 1147 916 1095 993 990 c 0
 1070 885 1108 740 1108 557 c 0
 1108 374 1069 230 992 127 c 0
 915 23 809 -29 674 -29 c 0
 598 -29 545 -13 496 15 c 0
 444 45 404 87 375 141 c 1
 375 -426 l 1
 190 -426 l 1xec
647 127 m 0
 736 127 803 163 848 236 c 0
 893 309 915 416 915 559 c 0
 915 702 893 809 848 882 c 0
 803 955 736 991 647 991 c 0
 558 991 490 955 444 882 c 0
 398 809 375 701 375 559 c 0
 375 417 398 310 444 237 c 0xdc
 490 164 558 127 647 127 c 0
EndSplineSet
EndChar

StartChar: thorn
Encoding: 254 254 193
Width: 1233
Flags: MW
HStem: -426 21G<190 190 190 375> -29 156<636 691.5 602.5 741.5> 991 156<641.5 691.5> 1547 20G<190 375 375 375>
VStem: 190 185<-426 141 488 630 977 1567> 915 193<487.5 630.5>
LayerCount: 2
Back
Fore
SplineSet
190 -426 m 1
 190 1567 l 1
 375 1567 l 1
 375 977 l 1
 406 1033 447 1075 498 1104 c 0
 549 1133 608 1147 675 1147 c 0
 808 1147 916 1095 993 990 c 0
 1070 885 1108 740 1108 557 c 0
 1108 374 1069 230 992 127 c 0
 915 23 809 -29 674 -29 c 0
 598 -29 545 -13 496 15 c 0
 444 45 404 87 375 141 c 1
 375 -426 l 1
 190 -426 l 1
647 127 m 0
 736 127 803 163 848 236 c 0
 893 309 915 416 915 559 c 0
 915 702 893 809 848 882 c 0
 803 955 736 991 647 991 c 0
 558 991 490 955 444 882 c 0
 398 809 375 701 375 559 c 0
 375 417 398 310 444 237 c 0
 490 164 558 127 647 127 c 0
EndSplineSet
EndChar

StartChar: q
Encoding: 113 113 194
Width: 1233
Flags: MW
HStem: -430 21G<870 870 870 1055> -33 156<555 603.5> 987 156<555.5 604 504 644>
VStem: 137 195<484 626 484 640.5> 870 185<-430 139 139 139 484.5 626 973 973>
LayerCount: 2
Back
Fore
SplineSet
870 -430 m 1
 870 139 l 1
 841 86 804 43 749 12 c 0
 698 -18 638 -33 569 -33 c 0
 442 -33 333 16 253 123 c 0
 182 218 137 355 137 551 c 0
 137 730 174 880 253 987 c 0
 330 1091 438 1143 570 1143 c 0
 638 1143 697 1129 748 1100 c 0
 799 1071 839 1029 870 973 c 1
 888 1116 l 1
 1055 1116 l 1
 1055 -430 l 1
 870 -430 l 1
599 123 m 0
 687 123 755 158 802 233 c 0
 847 306 870 414 870 555 c 0
 870 697 847 805 802 878 c 0
 755 953 688 987 600 987 c 0
 511 987 445 951 400 878 c 0
 355 805 332 697 332 555 c 0
 332 413 355 305 400 232 c 0
 445 159 511 123 599 123 c 0
EndSplineSet
EndChar

StartChar: r
Encoding: 114 114 195
Width: 1233
Flags: MW
HStem: 0 21G<302 302 302 487> 977 170<810.5 864.5> 1100 20G<302 469 469 469>
VStem: 302 185<0 557>
LayerCount: 2
Back
Fore
SplineSet
302 0 m 1xd0
 302 1120 l 1
 469 1120 l 1
 487 901 l 1
 518 980 566 1041 629 1084 c 0
 692 1126 767 1147 854 1147 c 0
 899 1147 942 1141 982 1130 c 0
 1021 1119 1060 1101 1095 1077 c 1
 1095 889 l 1
 1057 920 1017 942 975 956 c 0
 934 970 889 977 840 977 c 0
 726 977 639 941 578 869 c 0
 517 798 487 694 487 557 c 2
 487 0 l 1xb0
 302 0 l 1xd0
EndSplineSet
EndChar

StartChar: racute
Encoding: 341 341 196
Width: 1233
Flags: MW
HStem: 0 21G<302 302 302 487> 977 143 977 170<764.5 889.5> 1654 20G<822 1020 1020 1020>
VStem: 302 185<0 557>
LayerCount: 2
Back
Fore
SplineSet
541 1298 m 1xb8
 822 1674 l 1
 1020 1674 l 1
 695 1298 l 1
 541 1298 l 1xb8
302 0 m 1
 302 1120 l 1
 469 1120 l 1
 487 901 l 1
 547 1056 673 1147 856 1147 c 0
 945 1147 1023 1125 1095 1077 c 1xd8
 1095 889 l 1
 1015 950 938 977 841 977 c 0
 610 977 487 830 487 557 c 2
 487 0 l 1
 302 0 l 1
EndSplineSet
EndChar

StartChar: rcaron
Encoding: 345 345 197
Width: 1233
Flags: MW
HStem: 0 21G<302 302 302 487> 977 143 977 170<764.5 889.5> 1653 20G<337 476 476 476 837 976 976 976>
VStem: 302 185<0 557>
LayerCount: 2
Back
Fore
SplineSet
583 1297 m 1xb8
 337 1673 l 1
 476 1673 l 1
 656 1428 l 1
 837 1673 l 1
 976 1673 l 1
 730 1297 l 1
 583 1297 l 1xb8
302 0 m 1
 302 1120 l 1
 469 1120 l 1xd8
 487 901 l 1
 547 1056 673 1147 856 1147 c 0
 945 1147 1023 1125 1095 1077 c 1
 1095 889 l 1
 1015 950 938 977 841 977 c 0
 610 977 487 830 487 557 c 2
 487 0 l 1
 302 0 l 1
EndSplineSet
EndChar

StartChar: uni0157
Encoding: 343 343 198
Width: 1233
Flags: MW
HStem: -544 345<228 561 322 374> 0 21G<302 302 302 487> 977 143 977 170<764.5 889.5>
VStem: 302 185<0 557>
LayerCount: 2
Back
Fore
SplineSet
302 0 m 1xd8
 302 1120 l 1
 469 1120 l 1
 487 901 l 1
 547 1056 673 1147 856 1147 c 0
 945 1147 1023 1125 1095 1077 c 1
 1095 889 l 1
 1015 950 938 977 841 977 c 0
 610 977 487 830 487 557 c 2
 487 0 l 1
 302 0 l 1xd8
228 -544 m 1
 322 -199 l 1
 561 -199 l 1
 374 -544 l 1xe8
 228 -544 l 1
EndSplineSet
EndChar

StartChar: s
Encoding: 115 115 199
Width: 1233
Flags: MW
HStem: -29 154<560.5 628.5 557.5 655.5> 993 154<608.5 667.5 573.5 677.5>
VStem: 217 186<804.5 856 804.5 866> 844 186<283 353.5>
LayerCount: 2
Back
Fore
SplineSet
590 -29 m 0
 531 -29 467 -23 410 -12 c 0
 358 -1 284 18 213 41 c 1
 213 231 l 1
 298 188 353 168 410 152 c 0
 471 135 527 125 588 125 c 0
 669 125 732 142 777 175 c 0
 824 210 844 259 844 307 c 0
 844 400 768 455 599 490 c 1
 591 492 l 1
 522 506 l 2
 422 526 343 558 290 611 c 0
 241 660 217 727 217 812 c 0
 217 920 254 1003 326 1060 c 0
 402 1121 508 1147 639 1147 c 0
 696 1147 754 1142 810 1131 c 0
 861 1120 917 1104 973 1081 c 1
 973 901 l 1
 920 932 867 955 814 970 c 0
 761 985 708 993 647 993 c 0
 570 993 506 980 465 953 c 0
 424 926 403 884 403 828 c 0
 403 781 418 741 449 717 c 0
 480 693 546 670 678 645 c 2
 752 631 l 2
 848 612 915 578 960 527 c 0
 1007 476 1030 408 1030 323 c 0
 1030 208 988 125 912 65 c 0
 831 1 721 -29 590 -29 c 0
EndSplineSet
EndChar

StartChar: sacute
Encoding: 347 347 200
Width: 1233
Flags: MW
HStem: -29 154<531.5 669.5 531.5 725> 993 154<564.5 696.5 501.5 705> 1653 20G<782 980 980 980>
VStem: 217 186<804.5 883 804.5 918.5> 844 186<251.5 350.5>
LayerCount: 2
Back
Fore
SplineSet
501 1297 m 1
 782 1673 l 1
 980 1673 l 1
 655 1297 l 1
 501 1297 l 1
587 -29 m 0
 471 -29 354 -6 213 41 c 1
 213 231 l 1
 350 160 475 125 588 125 c 0
 751 125 844 198 844 305 c 0
 844 396 776 452 599 490 c 1
 591 492 l 1
 522 506 l 2
 303 549 217 646 217 810 c 0
 217 1027 364 1147 639 1147 c 0
 754 1147 866 1125 973 1081 c 1
 973 901 l 1
 865 962 765 993 645 993 c 0
 484 993 403 938 403 828 c 0
 403 781 418 741 449 717 c 0
 484 690 561 668 678 645 c 2
 752 631 l 2
 936 596 1030 492 1030 324 c 0
 1030 103 863 -29 587 -29 c 0
EndSplineSet
EndChar

StartChar: scaron
Encoding: 353 353 201
Width: 1233
Flags: MW
HStem: -29 154<560.5 628.5 557.5 655.5> 993 154<608.5 667.5 573.5 677.5> 1653 20G<297 436 436 436 797 936 936 936>
VStem: 217 186<804.5 856 804.5 866> 844 186<283 353.5>
LayerCount: 2
Back
Fore
SplineSet
543 1297 m 1
 297 1673 l 1
 436 1673 l 1
 616 1428 l 1
 797 1673 l 1
 936 1673 l 1
 690 1297 l 1
 543 1297 l 1
590 -29 m 0
 531 -29 467 -23 410 -12 c 0
 358 -1 284 18 213 41 c 1
 213 231 l 1
 298 188 353 168 410 152 c 0
 471 135 527 125 588 125 c 0
 669 125 732 142 777 175 c 0
 824 210 844 259 844 307 c 0
 844 400 768 455 599 490 c 1
 591 492 l 1
 522 506 l 2
 422 526 343 558 290 611 c 0
 241 660 217 727 217 812 c 0
 217 920 254 1003 326 1060 c 0
 402 1121 508 1147 639 1147 c 0
 696 1147 754 1142 810 1131 c 0
 861 1120 917 1104 973 1081 c 1
 973 901 l 1
 920 932 867 955 814 970 c 0
 761 985 708 993 647 993 c 0
 570 993 506 980 465 953 c 0
 424 926 403 884 403 828 c 0
 403 781 418 741 449 717 c 0
 480 693 546 670 678 645 c 2
 752 631 l 2
 848 612 915 578 960 527 c 0
 1007 476 1030 408 1030 323 c 0
 1030 208 988 125 912 65 c 0
 831 1 721 -29 590 -29 c 0
EndSplineSet
EndChar

StartChar: scedilla
Encoding: 351 351 202
Width: 1233
Flags: MW
HStem: -395 123<555.5 567.5 534.5 611.5> -29 21G<560.5 590 590 602> 993 154<608.5 667.5 573.5 677.5>
VStem: 217 186<804.5 856 804.5 866> 395 414<-245.5 -240 -240 -240> 844 186<283 353.5>
LayerCount: 2
Back
Fore
SplineSet
960 527 m 0xf4
 1007 476 1030 408 1030 323 c 0
 1030 208 988 125 912 65 c 0
 859 23 793 -5 716 -18 c 1
 747 -53 768 -88 783 -115 c 0
 798 -146 809 -179 809 -219 c 0
 809 -272 789 -319 749 -350 c 0
 710 -379 653 -395 570 -395 c 0
 541 -395 512 -393 483 -389 c 0
 452 -385 423 -379 395 -371 c 1
 395 -240 l 1
 418 -251 442 -260 467 -265 c 0
 492 -270 523 -272 546 -272 c 0
 589 -272 620 -264 640 -248 c 0
 660 -232 670 -209 670 -180 c 0
 670 -159 663 -134 648 -105 c 0
 637 -82 621 -58 602 -29 c 1
 590 -29 l 2
 531 -29 467 -23 410 -12 c 0
 358 -1 284 18 213 41 c 1
 213 231 l 1
 298 188 353 168 410 152 c 0
 471 135 527 125 588 125 c 0
 669 125 732 142 777 175 c 0
 824 210 844 259 844 307 c 0
 844 400 768 455 599 490 c 1
 591 492 l 1
 522 506 l 2
 422 526 343 558 290 611 c 0
 241 660 217 727 217 812 c 0
 217 920 254 1003 326 1060 c 0
 402 1121 508 1147 639 1147 c 0
 696 1147 754 1142 810 1131 c 0xec
 861 1120 917 1104 973 1081 c 1
 973 901 l 1
 920 932 867 955 814 970 c 0
 761 985 708 993 647 993 c 0
 570 993 506 980 465 953 c 0
 424 926 403 884 403 828 c 0
 403 781 418 741 449 717 c 0
 480 693 546 670 678 645 c 2
 752 631 l 2
 848 612 915 578 960 527 c 0xf4
EndSplineSet
Substitution2: "'locl' Localized Forms in Latin lookup 3 subtable" uni0219
Substitution2: "'locl' Localized Forms in Latin lookup 2 subtable" uni0219
Substitution2: "'aalt' Access All Alternates in Latin lookup 0 subtable" uni0219
EndChar

StartChar: uni0219
Encoding: 537 537 203
Width: 1233
Flags: MW
HStem: -542 345<408 741 502 554> -29 154<531.5 669.5 531.5 725> 993 154<564.5 696.5 501.5 705>
VStem: 217 186<804.5 883 804.5 918.5> 844 186<251.5 350.5>
LayerCount: 2
Back
Fore
SplineSet
587 -29 m 0
 471 -29 354 -6 213 41 c 1
 213 231 l 1
 350 160 475 125 588 125 c 0
 751 125 844 198 844 305 c 0
 844 396 776 452 599 490 c 1
 591 492 l 1
 522 506 l 2
 303 549 217 646 217 810 c 0
 217 1027 364 1147 639 1147 c 0
 754 1147 866 1125 973 1081 c 1
 973 901 l 1
 865 962 765 993 645 993 c 0
 484 993 403 938 403 828 c 0
 403 781 418 741 449 717 c 0
 484 690 561 668 678 645 c 2
 752 631 l 2
 936 596 1030 492 1030 324 c 0
 1030 103 863 -29 587 -29 c 0
408 -542 m 1
 502 -197 l 1
 741 -197 l 1
 554 -542 l 1
 408 -542 l 1
EndSplineSet
EndChar

StartChar: germandbls
Encoding: 223 223 204
Width: 1233
Flags: MW
HStem: -29 152<708.5 764.5 708 794.5> 0 21G<188 375 188 188> 1403 153<569.5 647.5>
VStem: 188 187<0 1133 0 1137 0 1207.5> 528 179<864.5 891> 963 186<280 331.5>
LayerCount: 2
Back
Fore
SplineSet
731 -29 m 0xbc
 686 -29 636 -25 593 -17 c 0
 562 -10 508 1 459 20 c 1
 459 184 l 1
 509 163 557 148 602 138 c 0
 646 128 688 123 728 123 c 0
 801 123 858 140 899 171 c 0
 946 206 963 250 963 310 c 0
 963 353 954 384 929 419 c 0
 896 466 843 502 778 541 c 2
 711 580 l 2
 648 616 603 660 574 703 c 0
 543 748 528 791 528 851 c 0
 528 931 554 1005 609 1062 c 0
 661 1118 738 1158 846 1182 c 1xbc
 845 1253 824 1308 784 1346 c 0
 743 1384 685 1403 610 1403 c 0
 529 1403 470 1381 432 1338 c 0
 394 1294 375 1226 375 1133 c 2
 375 0 l 1
 188 0 l 1
 188 1137 l 2
 188 1278 223 1384 293 1453 c 0
 364 1522 473 1556 610 1556 c 0
 749 1556 854 1519 923 1446 c 0
 994 1371 1029 1262 1030 1119 c 1
 927 1110 848 1085 791 1043 c 0
 735 1002 707 948 707 883 c 0
 707 846 716 821 735 794 c 0
 758 762 788 740 829 713 c 2x7c
 887 676 l 2
 992 609 1055 560 1094 501 c 0
 1131 445 1149 378 1149 306 c 0
 1149 207 1117 122 1037 59 c 0
 964 2 858 -29 731 -29 c 0xbc
EndSplineSet
EndChar

StartChar: t
Encoding: 116 116 205
Width: 1233
Flags: MW
HStem: -4 147<738.5 1032 825 1032 825 1032> 977 143<131 430 131 430 614 1032> 1473 20G<614 614>
VStem: 430 184<365 977 1120 1413 1413 1413>
LayerCount: 2
Back
Fore
SplineSet
1032 -4 m 1
 807 -4 l 2
 670 -4 572 24 515 79 c 0
 458 134 430 229 430 365 c 2
 430 977 l 1
 131 977 l 1
 131 1120 l 1
 430 1120 l 1
 430 1413 l 1
 614 1493 l 1
 614 1120 l 1
 1032 1120 l 1
 1032 977 l 1
 614 977 l 1
 614 365 l 2
 614 283 630 225 661 192 c 0
 692 159 746 143 825 143 c 2
 1032 143 l 1
 1032 -4 l 1
EndSplineSet
EndChar

StartChar: tbar
Encoding: 359 359 206
Width: 1233
Flags: MW
HStem: -4 147<669 1032 825 1032 825 1032> 602 142<201 430 201 430 614 843> 977 143<131 430 131 430 614 1032> 1473 20G<614 614>
VStem: 430 184<365 602 744 977 1120 1423 1423 1423>
LayerCount: 2
Back
Fore
SplineSet
1032 -4 m 1
 807 -4 l 2
 531 -4 430 94 430 365 c 2
 430 602 l 1
 201 602 l 1
 201 744 l 1
 430 744 l 1
 430 977 l 1
 131 977 l 1
 131 1120 l 1
 430 1120 l 1
 430 1423 l 1
 614 1493 l 1
 614 1120 l 1
 1032 1120 l 1
 1032 977 l 1
 614 977 l 1
 614 744 l 1
 843 744 l 1
 843 602 l 1
 614 602 l 1
 614 365 l 2
 614 200 669 143 825 143 c 2
 1032 143 l 1
 1032 -4 l 1
EndSplineSet
EndChar

StartChar: tcaron
Encoding: 357 357 207
Width: 1233
Flags: MW
HStem: -4 147<738.5 1032 825 1032 825 1032> 977 143<131 430 131 430 614 1032> 1306 376<751 1018 820 905>
VStem: 430 184<365 977 1120 1413 1413 1413>
LayerCount: 2
Back
Fore
SplineSet
751 1306 m 1
 820 1682 l 1
 1018 1682 l 1
 905 1306 l 1
 751 1306 l 1
1032 -4 m 1
 807 -4 l 2
 670 -4 572 24 515 79 c 0
 458 134 430 229 430 365 c 2
 430 977 l 1
 131 977 l 1
 131 1120 l 1
 430 1120 l 1
 430 1413 l 1
 614 1493 l 1
 614 1120 l 1
 1032 1120 l 1
 1032 977 l 1
 614 977 l 1
 614 365 l 2
 614 283 630 225 661 192 c 0
 692 159 746 143 825 143 c 2
 1032 143 l 1
 1032 -4 l 1
EndSplineSet
EndChar

StartChar: uni021B
Encoding: 539 539 208
Width: 1233
Flags: MW
HStem: -379 123<661.5 707 638.5 770> -4 147<838 1032 838 838> 977 143<131 430 131 430 614 1032> 1473 20G<614 614>
VStem: 430 184<365 977 1120 1413 1413 1413> 516 414<-260.5 -224 -224 -224> 791 139<-194.5 -170 -260.5 -145.5>
LayerCount: 2
Back
Fore
SplineSet
1032 977 m 1xfa
 614 977 l 1
 614 365 l 2
 614 283 630 225 661 192 c 0
 692 159 746 143 825 143 c 2
 1032 143 l 1
 1032 -4 l 1
 838 -4 l 1
 902 -79 930 -136 930 -204 c 0
 930 -317 850 -379 690 -379 c 0
 633 -379 575 -371 516 -355 c 1
 516 -224 l 1
 557 -247 614 -256 663 -256 c 0
 751 -256 791 -223 791 -166 c 0
 791 -125 770 -82 714 1 c 1
 625 11 558 37 515 79 c 0xfa
 458 134 430 229 430 365 c 2
 430 977 l 1
 131 977 l 1
 131 1120 l 1
 430 1120 l 1
 430 1413 l 1
 614 1493 l 1
 614 1120 l 1
 1032 1120 l 1xf4
 1032 977 l 1xfa
EndSplineSet
EndChar

StartChar: u
Encoding: 117 117 209
Width: 1233
Flags: MW
HStem: -29 160<558 572> 0 21G<884 1051 884 884> 1098 20G<195 379 379 379 866 1051 1051 1051>
VStem: 195 184<424 1118> 866 185<168 168 485 1118 0 1118>
LayerCount: 2
Back
Fore
SplineSet
534 -29 m 0xb8
 420 -29 335 9 279 84 c 0xb8
 223 159 195 272 195 424 c 2
 195 1118 l 1
 379 1118 l 1
 379 424 l 2
 379 323 397 249 433 202 c 0
 468 157 518 131 598 131 c 0
 685 131 751 162 797 223 c 0
 843 284 866 371 866 485 c 2x78
 866 1118 l 1
 1051 1118 l 1
 1051 0 l 1
 884 0 l 1
 866 168 l 1
 833 103 788 54 733 21 c 0
 676 -12 610 -29 534 -29 c 0xb8
EndSplineSet
EndChar

StartChar: uacute
Encoding: 250 250 210
Width: 1233
Flags: MW
HStem: -29 160<558 572> 0 21G<884 1051 884 884> 1624 20G<756 954 954 954>
VStem: 195 184<424 1118> 866 185<168 168 485 1118 0 1118>
LayerCount: 2
Back
Fore
SplineSet
475 1268 m 1xb8
 756 1644 l 1
 954 1644 l 1x78
 629 1268 l 1
 475 1268 l 1xb8
534 -29 m 0
 420 -29 335 9 279 84 c 0
 223 159 195 272 195 424 c 2
 195 1118 l 1
 379 1118 l 1
 379 424 l 2xb8
 379 323 397 249 433 202 c 0
 468 157 518 131 598 131 c 0
 685 131 751 162 797 223 c 0
 843 284 866 371 866 485 c 2
 866 1118 l 1
 1051 1118 l 1
 1051 0 l 1
 884 0 l 1
 866 168 l 1
 833 103 788 54 733 21 c 0
 676 -12 610 -29 534 -29 c 0
EndSplineSet
EndChar

StartChar: ucircumflex
Encoding: 251 251 211
Width: 1233
Flags: MW
HStem: -29 160<558 572> 0 21G<884 1051 884 884> 1624 20G<543 690 690 690>
VStem: 195 184<424 1118> 866 185<168 168 485 1118 0 1118>
LayerCount: 2
Back
Fore
SplineSet
297 1268 m 1xb8
 543 1644 l 1
 690 1644 l 1x78
 936 1268 l 1
 797 1268 l 1
 616 1513 l 1
 436 1268 l 1
 297 1268 l 1xb8
534 -29 m 0
 420 -29 335 9 279 84 c 0
 223 159 195 272 195 424 c 2xb8
 195 1118 l 1
 379 1118 l 1
 379 424 l 2
 379 323 397 249 433 202 c 0
 468 157 518 131 598 131 c 0
 685 131 751 162 797 223 c 0
 843 284 866 371 866 485 c 2
 866 1118 l 1
 1051 1118 l 1
 1051 0 l 1
 884 0 l 1
 866 168 l 1
 833 103 788 54 733 21 c 0
 676 -12 610 -29 534 -29 c 0
EndSplineSet
EndChar

StartChar: udieresis
Encoding: 252 252 212
Width: 1233
Flags: MW
HStem: -29 160<558 572> 0 21G<884 1051 884 884> 1350 202<339 492 349 492 741 883>
VStem: 195 184<424 1118> 319 203<1380 1522 1370 1532> 711 202<1380 1522 1370 1532> 866 185<168 168 485 1118 0 1118>
LayerCount: 2
Back
Fore
SplineSet
492 1350 m 2xb4
 349 1350 l 2
 329 1350 319 1360 319 1380 c 2x72
 319 1522 l 2
 319 1542 329 1552 349 1552 c 2
 492 1552 l 2
 512 1552 522 1542 522 1522 c 2
 522 1380 l 2
 522 1360 512 1350 492 1350 c 2xb4
883 1350 m 2
 741 1350 l 2
 721 1350 711 1360 711 1380 c 2xb4
 711 1522 l 2
 711 1542 721 1552 741 1552 c 2
 883 1552 l 2
 903 1552 913 1542 913 1522 c 2
 913 1380 l 2
 913 1360 903 1350 883 1350 c 2
534 -29 m 0
 420 -29 335 9 279 84 c 0
 223 159 195 272 195 424 c 2
 195 1118 l 1
 379 1118 l 1
 379 424 l 2
 379 323 397 249 433 202 c 0
 468 157 518 131 598 131 c 0
 685 131 751 162 797 223 c 0
 843 284 866 371 866 485 c 2
 866 1118 l 1xac
 1051 1118 l 1
 1051 0 l 1
 884 0 l 1
 866 168 l 1
 833 103 788 54 733 21 c 0
 676 -12 610 -29 534 -29 c 0
EndSplineSet
EndChar

StartChar: ugrave
Encoding: 249 249 213
Width: 1233
Flags: MW
HStem: -29 160<558 572> 0 21G<884 1051 884 884> 1624 20G<279 477 477 477>
VStem: 195 184<424 1118> 866 185<168 168 485 1118 0 1118>
LayerCount: 2
Back
Fore
SplineSet
604 1268 m 1xb8
 279 1644 l 1
 477 1644 l 1x78
 758 1268 l 1
 604 1268 l 1xb8
534 -29 m 0
 420 -29 335 9 279 84 c 0
 223 159 195 272 195 424 c 2
 195 1118 l 1
 379 1118 l 1
 379 424 l 2xb8
 379 323 397 249 433 202 c 0
 468 157 518 131 598 131 c 0
 685 131 751 162 797 223 c 0
 843 284 866 371 866 485 c 2
 866 1118 l 1
 1051 1118 l 1
 1051 0 l 1
 884 0 l 1
 866 168 l 1
 833 103 788 54 733 21 c 0
 676 -12 610 -29 534 -29 c 0
EndSplineSet
EndChar

StartChar: uhorn
Encoding: 432 432 214
Width: 1233
Flags: MW
HStem: -29 160<367.5 454.5> 0 131 764 139<999.5 1011 970.5 1079.5> 764 354 1117 20G<1041 1174 1174 1174>
VStem: 39 184<424 1118> 710 185<168 168 485 801 0 929 929 1118> 1071 123<977 1018.5 919.5 1033.5>
LayerCount: 2
Back
Fore
SplineSet
1041 1137 m 1xaf
 1174 1137 l 1
 1189 1081 1194 1043 1194 994 c 0
 1194 845 1139 764 1020 764 c 0
 979 764 942 774 895 801 c 1
 895 0 l 1x6f
 728 0 l 1
 710 168 l 1
 645 39 531 -29 378 -29 c 0
 149 -29 39 119 39 424 c 2
 39 1118 l 1
 223 1118 l 1
 223 424 l 2
 223 223 293 131 442 131 c 0
 617 131 710 256 710 485 c 2
 710 1118 l 1x97
 895 1118 l 1
 895 929 l 1
 929 912 958 903 983 903 c 0
 1039 903 1071 941 1071 1013 c 0
 1071 1054 1061 1096 1041 1137 c 1xaf
EndSplineSet
EndChar

StartChar: uhungarumlaut
Encoding: 369 369 215
Width: 1233
Flags: MW
HStem: -29 160<523.5 610.5> 0 131 1268 376<344 705 344 705 664 705 535 799 664 664>
VStem: 195 184<424 1118> 866 185<168 168 485 1118 0 1118>
LayerCount: 2
Back
Fore
SplineSet
344 1268 m 1xb8
 535 1644 l 1
 705 1644 l 1
 481 1268 l 1x78
 344 1268 l 1xb8
664 1268 m 1
 868 1644 l 1
 1047 1644 l 1
 799 1268 l 1
 664 1268 l 1
534 -29 m 0
 305 -29 195 119 195 424 c 2
 195 1118 l 1
 379 1118 l 1
 379 424 l 2xb8
 379 223 449 131 598 131 c 0
 773 131 866 256 866 485 c 2
 866 1118 l 1
 1051 1118 l 1
 1051 0 l 1
 884 0 l 1
 866 168 l 1
 801 39 687 -29 534 -29 c 0
EndSplineSet
EndChar

StartChar: umacron
Encoding: 363 363 216
Width: 1233
Flags: MW
HStem: -29 160<523.5 610.5> 0 131 1318 148<317 915 317 915>
VStem: 195 184<424 1118> 866 185<168 168 485 1118 0 1118>
LayerCount: 2
Back
Fore
SplineSet
317 1318 m 1xb8
 317 1466 l 1
 915 1466 l 1
 915 1318 l 1x78
 317 1318 l 1xb8
534 -29 m 0
 305 -29 195 119 195 424 c 2
 195 1118 l 1
 379 1118 l 1
 379 424 l 2
 379 223 449 131 598 131 c 0
 773 131 866 256 866 485 c 2
 866 1118 l 1
 1051 1118 l 1xb8
 1051 0 l 1
 884 0 l 1
 866 168 l 1
 801 39 687 -29 534 -29 c 0
EndSplineSet
EndChar

StartChar: uogonek
Encoding: 371 371 217
Width: 1233
Flags: MW
HStem: -395 123<1040 1081.5> -29 160<523.5 610.5> 0 21G<866 935 866 866 1051 1054 1054 1054> 1098 20G<195 379 379 379 866 1051 1051 1051>
VStem: 195 184<424 1118> 827 139<-212 -188> 827 373<-280.5 -242 -375 -188> 866 185<0 168 168 168 485 1118 0 1118>
LayerCount: 2
Back
Fore
SplineSet
1076 -272 m 0xbc
 1117 -272 1159 -262 1200 -242 c 1
 1200 -375 l 1
 1144 -390 1106 -395 1057 -395 c 0xda
 908 -395 827 -340 827 -221 c 0
 827 -155 853 -93 935 0 c 1
 866 0 l 1
 866 168 l 1xb9
 801 39 687 -29 534 -29 c 0
 305 -29 195 119 195 424 c 2
 195 1118 l 1
 379 1118 l 1
 379 424 l 2
 379 223 449 131 598 131 c 0
 773 131 866 256 866 485 c 2xd9
 866 1118 l 1
 1051 1118 l 1xb9
 1051 0 l 1
 1054 0 l 1
 990 -87 966 -139 966 -184 c 0
 966 -240 1004 -272 1076 -272 c 0xbc
EndSplineSet
EndChar

StartChar: uring
Encoding: 367 367 218
Width: 1233
Flags: MW
HStem: -29 160<523.5 610.5> 0 131 1204 123<588.5 673 588.5 709.5> 1630 123<588.5 673>
VStem: 195 184<424 1118> 357 123<1436 1521.5 1436 1555> 783 123<1437 1521> 866 185<168 168 485 1118 0 1118>
LayerCount: 2
Back
Fore
SplineSet
632 1204 m 0xb9
 478 1204 357 1326 357 1479 c 0
 357 1631 478 1753 632 1753 c 0x79
 787 1753 906 1631 906 1479 c 0
 906 1326 787 1204 632 1204 c 0xb9
631 1327 m 0
 715 1327 783 1395 783 1479 c 0
 783 1563 715 1630 631 1630 c 0
 546 1630 480 1564 480 1479 c 0
 480 1393 546 1327 631 1327 c 0
534 -29 m 0
 305 -29 195 119 195 424 c 2
 195 1118 l 1xb6
 379 1118 l 1
 379 424 l 2
 379 223 449 131 598 131 c 0
 773 131 866 256 866 485 c 2
 866 1118 l 1
 1051 1118 l 1
 1051 0 l 1
 884 0 l 1
 866 168 l 1
 801 39 687 -29 534 -29 c 0
EndSplineSet
EndChar

StartChar: utilde
Encoding: 361 361 219
Width: 1233
Flags: MW
HStem: -29 160<523.5 610.5> 0 131 1257 282<287 507.5 287 507.5 419.5 813.5>
VStem: 195 184<424 1118> 866 185<168 168 485 1118 0 1118>
LayerCount: 2
Back
Fore
SplineSet
411 1257 m 1xb8
 287 1257 l 1
 287 1431 357 1539 482 1539 c 0
 533 1539 572 1522 621 1478 c 2xb8
 678 1423 l 2
 710 1392 729 1384 748 1384 c 0
 771 1384 790 1396 802 1421 c 0
 813 1445 820 1484 821 1539 c 1
 946 1539 l 1
 946 1365 876 1257 751 1257 c 0
 700 1257 661 1274 612 1318 c 2
 555 1373 l 2
 527 1400 508 1412 485 1412 c 0
 462 1412 443 1400 431 1375 c 0x78
 418 1349 412 1310 411 1257 c 1xb8
534 -29 m 0
 305 -29 195 119 195 424 c 2
 195 1118 l 1
 379 1118 l 1
 379 424 l 2
 379 223 449 131 598 131 c 0
 773 131 866 256 866 485 c 2
 866 1118 l 1
 1051 1118 l 1
 1051 0 l 1
 884 0 l 1
 866 168 l 1
 801 39 687 -29 534 -29 c 0
EndSplineSet
EndChar

StartChar: v
Encoding: 118 118 220
Width: 1233
Flags: MW
HStem: 0 21G<498 498 498 735> 1100 20G<100 291 291 291 942 1133 1133 1133>
LayerCount: 2
Back
Fore
SplineSet
498 0 m 1
 100 1120 l 1
 291 1120 l 1
 616 180 l 1
 942 1120 l 1
 1133 1120 l 1
 735 0 l 1
 498 0 l 1
EndSplineSet
EndChar

StartChar: w
Encoding: 119 119 221
Width: 1233
Flags: MW
HStem: 0 21G<262 262 262 438 795 795 795 971> 1100 20G<0 182 182 182 1051 1233 1233 1233>
LayerCount: 2
Back
Fore
SplineSet
262 0 m 1
 0 1120 l 1
 182 1120 l 1
 377 215 l 1
 537 793 l 1
 694 793 l 1
 856 215 l 1
 1051 1120 l 1
 1233 1120 l 1
 971 0 l 1
 795 0 l 1
 616 614 l 1
 438 0 l 1
 262 0 l 1
EndSplineSet
EndChar

StartChar: wacute
Encoding: 7811 7811 222
Width: 1233
Flags: MW
HStem: 0 21G<262 262 262 438 795 795 795 971> 1100 20G<0 182 182 182 1051 1233 1233 1233> 1627 20G<820 1018 1018 1018>
LayerCount: 2
Back
Fore
SplineSet
539 1271 m 1
 820 1647 l 1
 1018 1647 l 1
 693 1271 l 1
 539 1271 l 1
262 0 m 1
 0 1120 l 1
 182 1120 l 1
 377 215 l 1
 537 793 l 1
 694 793 l 1
 856 215 l 1
 1051 1120 l 1
 1233 1120 l 1
 971 0 l 1
 795 0 l 1
 616 614 l 1
 438 0 l 1
 262 0 l 1
EndSplineSet
EndChar

StartChar: wcircumflex
Encoding: 373 373 223
Width: 1233
Flags: MW
HStem: 0 21G<262 262 262 438 795 795 795 971> 1100 20G<0 182 182 182 1051 1233 1233 1233> 1627 20G<543 690 690 690>
LayerCount: 2
Back
Fore
SplineSet
297 1271 m 1
 543 1647 l 1
 690 1647 l 1
 936 1271 l 1
 797 1271 l 1
 616 1516 l 1
 436 1271 l 1
 297 1271 l 1
262 0 m 1
 0 1120 l 1
 182 1120 l 1
 377 215 l 1
 537 793 l 1
 694 793 l 1
 856 215 l 1
 1051 1120 l 1
 1233 1120 l 1
 971 0 l 1
 795 0 l 1
 616 614 l 1
 438 0 l 1
 262 0 l 1
EndSplineSet
EndChar

StartChar: wdieresis
Encoding: 7813 7813 224
Width: 1233
Flags: MW
HStem: 0 21G<262 262 262 438 795 795 795 971> 1100 20G<0 182 182 182 1051 1233 1233 1233> 1320 202<339 492 349 492 741 883>
VStem: 319 203<1350 1492 1340 1502> 711 202<1350 1492 1340 1502>
LayerCount: 2
Back
Fore
SplineSet
492 1320 m 2
 349 1320 l 2
 329 1320 319 1330 319 1350 c 2
 319 1492 l 2
 319 1512 329 1522 349 1522 c 2
 492 1522 l 2
 512 1522 522 1512 522 1492 c 2
 522 1350 l 2
 522 1330 512 1320 492 1320 c 2
883 1320 m 2
 741 1320 l 2
 721 1320 711 1330 711 1350 c 2
 711 1492 l 2
 711 1512 721 1522 741 1522 c 2
 883 1522 l 2
 903 1522 913 1512 913 1492 c 2
 913 1350 l 2
 913 1330 903 1320 883 1320 c 2
262 0 m 1
 0 1120 l 1
 182 1120 l 1
 377 215 l 1
 537 793 l 1
 694 793 l 1
 856 215 l 1
 1051 1120 l 1
 1233 1120 l 1
 971 0 l 1
 795 0 l 1
 616 614 l 1
 438 0 l 1
 262 0 l 1
EndSplineSet
EndChar

StartChar: wgrave
Encoding: 7809 7809 225
Width: 1233
Flags: MW
HStem: 0 21G<262 262 262 438 795 795 795 971> 1100 20G<0 182 182 182 1051 1233 1233 1233> 1627 20G<215 413 413 413>
LayerCount: 2
Back
Fore
SplineSet
540 1271 m 1
 215 1647 l 1
 413 1647 l 1
 694 1271 l 1
 540 1271 l 1
262 0 m 1
 0 1120 l 1
 182 1120 l 1
 377 215 l 1
 537 793 l 1
 694 793 l 1
 856 215 l 1
 1051 1120 l 1
 1233 1120 l 1
 971 0 l 1
 795 0 l 1
 616 614 l 1
 438 0 l 1
 262 0 l 1
EndSplineSet
EndChar

StartChar: x
Encoding: 120 120 226
Width: 1233
Flags: MW
HStem: 0 21G<76 76 76 289 944 944 944 1157> 1100 20G<115 319 319 319 911 1118 1118 1118>
LayerCount: 2
Back
Fore
SplineSet
76 0 m 1
 516 584 l 1
 115 1120 l 1
 319 1120 l 1
 616 715 l 1
 911 1120 l 1
 1118 1120 l 1
 717 584 l 1
 1157 0 l 1
 944 0 l 1
 616 449 l 1
 289 0 l 1
 76 0 l 1
EndSplineSet
EndChar

StartChar: y
Encoding: 121 121 227
Width: 1233
Flags: MW
HStem: -426 154<184 293 184 293 293 323 184 332> 1100 20G<104 299 299 299 958 1153 1153 1153>
LayerCount: 2
Back
Fore
SplineSet
184 -426 m 1
 184 -272 l 1
 293 -272 l 2
 353 -272 393 -252 420 -225 c 0
 449 -194 485 -126 537 18 c 1
 104 1120 l 1
 299 1120 l 1
 631 244 l 1
 958 1120 l 1
 1153 1120 l 1
 858 360 l 2
 763 114 805 229 741 52 c 0
 661 -163 627 -233 608 -268 c 0
 579 -319 545 -358 493 -387 c 0
 447 -413 393 -426 332 -426 c 2
 184 -426 l 1
EndSplineSet
EndChar

StartChar: yacute
Encoding: 253 253 228
Width: 1233
Flags: MW
HStem: -426 154<184 293 184 293 293 323 184 332> 1100 20G<104 299 299 299 958 1153 1153 1153> 1626 20G<756 954 954 954>
LayerCount: 2
Back
Fore
SplineSet
475 1270 m 1
 756 1646 l 1
 954 1646 l 1
 629 1270 l 1
 475 1270 l 1
184 -426 m 1
 184 -272 l 1
 293 -272 l 2
 353 -272 393 -252 420 -225 c 0
 449 -194 485 -126 537 18 c 1
 104 1120 l 1
 299 1120 l 1
 631 244 l 1
 958 1120 l 1
 1153 1120 l 1
 858 360 l 2
 770 136 760 108 741 52 c 0
 674 -135 633 -215 606 -267 c 0
 565 -339 533 -367 494 -388 c 0
 447 -413 387 -426 332 -426 c 2
 184 -426 l 1
EndSplineSet
EndChar

StartChar: ycircumflex
Encoding: 375 375 229
Width: 1233
Flags: MW
HStem: -426 154<184 293 184 293 293 323 184 332> 1100 20G<104 299 299 299 958 1153 1153 1153> 1627 20G<555 702 702 702>
LayerCount: 2
Back
Fore
SplineSet
309 1271 m 1
 555 1647 l 1
 702 1647 l 1
 948 1271 l 1
 809 1271 l 1
 628 1516 l 1
 448 1271 l 1
 309 1271 l 1
184 -426 m 1
 184 -272 l 1
 293 -272 l 2
 353 -272 393 -252 420 -225 c 0
 450 -195 484 -126 537 18 c 1
 104 1120 l 1
 299 1120 l 1
 631 244 l 1
 958 1120 l 1
 1153 1120 l 1
 858 360 l 2
 782 169 801 208 741 52 c 0
 672 -132 639 -217 607 -270 c 0
 548 -370 465 -426 332 -426 c 2
 184 -426 l 1
EndSplineSet
EndChar

StartChar: ydieresis
Encoding: 255 255 230
Width: 1233
Flags: MW
HStem: -426 154<184 293 184 293 293 323 184 332> 1100 20G<104 299 299 299 958 1153 1153 1153> 1320 202<339 492 349 492 741 883>
VStem: 319 203<1350 1492 1340 1502> 711 202<1350 1492 1340 1502>
LayerCount: 2
Back
Fore
SplineSet
492 1320 m 2
 349 1320 l 2
 329 1320 319 1330 319 1350 c 2
 319 1492 l 2
 319 1512 329 1522 349 1522 c 2
 492 1522 l 2
 512 1522 522 1512 522 1492 c 2
 522 1350 l 2
 522 1330 512 1320 492 1320 c 2
883 1320 m 2
 741 1320 l 2
 721 1320 711 1330 711 1350 c 2
 711 1492 l 2
 711 1512 721 1522 741 1522 c 2
 883 1522 l 2
 903 1522 913 1512 913 1492 c 2
 913 1350 l 2
 913 1330 903 1320 883 1320 c 2
184 -426 m 1
 184 -272 l 1
 293 -272 l 2
 353 -272 393 -252 420 -225 c 0
 449 -194 485 -126 537 18 c 1
 104 1120 l 1
 299 1120 l 1
 631 244 l 1
 958 1120 l 1
 1153 1120 l 1
 858 360 l 2
 763 114 805 229 741 52 c 0
 661 -163 627 -233 608 -268 c 0
 579 -319 545 -358 493 -387 c 0
 447 -413 393 -426 332 -426 c 2
 184 -426 l 1
EndSplineSet
EndChar

StartChar: ygrave
Encoding: 7923 7923 231
Width: 1233
Flags: MW
HStem: -426 154<184 293 184 293 293 323 184 332> 1100 20G<104 299 299 299 958 1153 1153 1153> 1627 20G<227 425 425 425>
LayerCount: 2
Back
Fore
SplineSet
552 1271 m 1
 227 1647 l 1
 425 1647 l 1
 706 1271 l 1
 552 1271 l 1
184 -426 m 1
 184 -272 l 1
 293 -272 l 2
 353 -272 393 -252 420 -225 c 0
 449 -194 485 -126 537 18 c 1
 104 1120 l 1
 299 1120 l 1
 631 244 l 1
 958 1120 l 1
 1153 1120 l 1
 858 360 l 2
 754 93 794 190 741 52 c 0
 653 -179 629 -233 608 -270 c 0
 551 -370 457 -426 332 -426 c 2
 184 -426 l 1
EndSplineSet
EndChar

StartChar: z
Encoding: 122 122 232
Width: 1233
Flags: MW
HStem: 0 150<397 1040 397 1040> 975 147<227 846 227 1040>
LayerCount: 2
Back
Fore
SplineSet
203 0 m 1
 203 170 l 1
 846 975 l 1
 227 975 l 1
 227 1122 l 1
 1040 1122 l 1
 1040 954 l 1
 397 150 l 1
 1040 150 l 1
 1040 0 l 1
 203 0 l 1
EndSplineSet
EndChar

StartChar: zacute
Encoding: 378 378 233
Width: 1233
Flags: MW
HStem: 0 150<397 1040 397 1040> 975 147<227 846 227 1040> 1629 20G<842 1040 1040 1040>
LayerCount: 2
Back
Fore
SplineSet
561 1273 m 1
 842 1649 l 1
 1040 1649 l 1
 715 1273 l 1
 561 1273 l 1
203 0 m 1
 203 170 l 1
 846 975 l 1
 227 975 l 1
 227 1122 l 1
 1040 1122 l 1
 1040 954 l 1
 397 150 l 1
 1040 150 l 1
 1040 0 l 1
 203 0 l 1
EndSplineSet
EndChar

StartChar: zcaron
Encoding: 382 382 234
Width: 1233
Flags: MW
HStem: 0 150<397 1040 397 1040> 975 147<227 846 227 1040> 1629 20G<297 436 436 436 797 936 936 936>
LayerCount: 2
Back
Fore
SplineSet
543 1273 m 1
 297 1649 l 1
 436 1649 l 1
 616 1404 l 1
 797 1649 l 1
 936 1649 l 1
 690 1273 l 1
 543 1273 l 1
203 0 m 1
 203 170 l 1
 846 975 l 1
 227 975 l 1
 227 1122 l 1
 1040 1122 l 1
 1040 954 l 1
 397 150 l 1
 1040 150 l 1
 1040 0 l 1
 203 0 l 1
EndSplineSet
EndChar

StartChar: zdotaccent
Encoding: 380 380 235
Width: 1233
Flags: MW
HStem: 0 150<397 1040 397 1040> 975 147<227 846 227 1040> 1322 204<533 688 543 688>
VStem: 513 205<1352 1496 1342 1506>
LayerCount: 2
Back
Fore
SplineSet
688 1322 m 2
 543 1322 l 2
 523 1322 513 1332 513 1352 c 2
 513 1496 l 2
 513 1516 523 1526 543 1526 c 2
 688 1526 l 2
 708 1526 718 1516 718 1496 c 2
 718 1352 l 2
 718 1332 708 1322 688 1322 c 2
203 0 m 1
 203 170 l 1
 846 975 l 1
 227 975 l 1
 227 1122 l 1
 1040 1122 l 1
 1040 954 l 1
 397 150 l 1
 1040 150 l 1
 1040 0 l 1
 203 0 l 1
EndSplineSet
EndChar

StartChar: ordfeminine
Encoding: 170 170 236
Width: 1233
Flags: MW
HStem: 469 123<293 961 293 961> 717 100 1104 115<635.5 684 684 811> 1405 115<577.5 613>
VStem: 270 146<934 983.5 934 992> 811 143<829 829 1075 1104 1104 1104 717 1223 717 1252.5>
LayerCount: 2
Back
Fore
SplineSet
547 698 m 0
 463 698 396 721 345 766 c 0
 295 811 270 872 270 949 c 0
 270 1035 301 1102 363 1149 c 0
 426 1196 514 1219 629 1219 c 2
 811 1219 l 1
 811 1223 l 2
 811 1282 794 1327 751 1359 c 0
 704 1394 643 1405 583 1405 c 0
 539 1405 501 1399 462 1388 c 0
 421 1376 377 1359 332 1337 c 1
 332 1464 l 1
 377 1483 427 1498 468 1506 c 0
 513 1515 552 1520 603 1520 c 0
 721 1520 809 1491 867 1434 c 0
 926 1377 954 1290 954 1165 c 2
 954 717 l 1
 825 717 l 1
 811 829 l 1
 778 786 740 753 697 731 c 0
 653 708 606 698 547 698 c 0
576 817 m 0
 648 817 703 842 746 889 c 0
 789 936 811 998 811 1075 c 2
 811 1104 l 1
 684 1104 l 2
 587 1104 519 1093 478 1070 c 0
 437 1047 416 1009 416 958 c 0
 416 910 433 879 460 856 c 0
 489 830 527 817 576 817 c 0
293 469 m 1
 293 592 l 1
 961 592 l 1
 961 469 l 1
 293 469 l 1
EndSplineSet
EndChar

StartChar: ordmasculine
Encoding: 186 186 237
Width: 1233
Flags: MW
HStem: 469 123<276 952 276 952> 698 117<582.5 648.5 582.5 676.5> 1403 117<582.5 653>
VStem: 244 155<1062 1154.5 1062 1169.5> 834 155<1061.5 1155.5>
LayerCount: 2
Back
Fore
SplineSet
616 698 m 0
 491 698 405 744 345 809 c 0
 282 877 244 977 244 1108 c 0
 244 1231 277 1332 345 1408 c 0
 408 1477 496 1520 617 1520 c 0
 737 1520 826 1478 889 1407 c 0
 956 1332 989 1233 989 1108 c 0
 989 984 956 885 889 810 c 0
 826 741 737 698 616 698 c 0
616 815 m 0
 681 815 737 841 776 893 c 0
 812 941 834 1013 834 1110 c 0
 834 1201 815 1273 777 1325 c 0
 741 1374 689 1403 617 1403 c 0
 548 1403 495 1377 457 1326 c 0
 418 1273 399 1201 399 1108 c 0
 399 1016 418 943 457 891 c 0
 496 840 549 815 616 815 c 0
276 469 m 1
 276 592 l 1
 952 592 l 1
 952 469 l 1
 276 469 l 1
EndSplineSet
EndChar

StartChar: uni0410
Encoding: 1040 1040 238
Width: 1233
Flags: MW
HStem: 0 21G<37 37 37 246 987 987 987 1196> 389 162<403 829 403 877 354 829> 1473 20G<494 739 739 739>
LayerCount: 2
Back
Fore
SplineSet
37 0 m 1
 494 1493 l 1
 739 1493 l 1
 1196 0 l 1
 987 0 l 1
 877 389 l 1
 354 389 l 1
 246 0 l 1
 37 0 l 1
403 551 m 1
 829 551 l 1
 616 1315 l 1
 403 551 l 1
EndSplineSet
EndChar

StartChar: uni0411
Encoding: 1041 1041 239
Width: 1233
Flags: MW
HStem: 0 166<369 608 369 608> 713 164<369 604 369 608 369 604> 1327 166<369 1068 369 369>
VStem: 166 203<166 166 166 713 877 1327> 934 203<335.5 462.5 278.5 527>
LayerCount: 2
Back
Fore
SplineSet
166 0 m 1
 166 1493 l 1
 1068 1493 l 1
 1068 1327 l 1
 369 1327 l 1
 369 877 l 1
 604 877 l 1
 857 867 1017 798 1084 671 c 0
 1121 600 1137 506 1137 419 c 0
 1137 138 967 0 608 0 c 2
 166 0 l 1
369 166 m 1
 608 166 l 2
 843 166 934 242 934 429 c 0
 934 625 833 713 608 713 c 2
 369 713 l 1
 369 166 l 1
EndSplineSet
EndChar

StartChar: uni0412
Encoding: 1042 1042 240
Width: 1233
Flags: MW
HStem: 0 166<369 608 369 608> 713 164<369 604 604 608 369 604> 1327 166<369 604 369 369>
VStem: 166 203<166 166 166 713 877 1327> 881 204<1028.5 1187.5> 934 203<335.5 516.5 273 527>
LayerCount: 2
Back
Fore
SplineSet
166 0 m 1xf4
 166 1493 l 1
 608 1493 l 2
 913 1493 1085 1357 1085 1110 c 0
 1085 931 998 826 823 799 c 1
 1017 770 1137 626 1137 407 c 0
 1137 139 961 0 608 0 c 2
 166 0 l 1xf4
369 877 m 1
 604 877 l 2
 796 877 881 947 881 1110 c 0xf8
 881 1265 804 1327 604 1327 c 2
 369 1327 l 1
 369 877 l 1
369 166 m 1
 608 166 l 2xf8
 843 166 934 242 934 429 c 0
 934 625 833 713 608 713 c 2xf4
 369 713 l 1
 369 166 l 1
EndSplineSet
EndChar

StartChar: uni0413
Encoding: 1043 1043 241
Width: 1233
Flags: MW
HStem: 0 21G<215 215 215 418> 1323 170<418 1139 418 418>
VStem: 215 203<0 1323 0 1493 0 1493>
LayerCount: 2
Back
Fore
SplineSet
215 0 m 1
 215 1493 l 1
 1139 1493 l 1
 1139 1323 l 1
 418 1323 l 1
 418 0 l 1
 215 0 l 1
EndSplineSet
EndChar

StartChar: uni0403
Encoding: 1027 1027 242
Width: 1233
Flags: MW
HStem: 0 21G<215 215 215 418> 1323 170<418 1139 418 418> 1832 20G<744 930 930 930>
VStem: 215 203<0 1323 0 1493 0 1493>
LayerCount: 2
Back
Fore
SplineSet
547 1588 m 1
 744 1852 l 1
 930 1852 l 1
 701 1588 l 1
 547 1588 l 1
215 0 m 1
 215 1493 l 1
 1139 1493 l 1
 1139 1323 l 1
 418 1323 l 1
 418 0 l 1
 215 0 l 1
EndSplineSet
EndChar

StartChar: uni0490
Encoding: 1168 1168 243
Width: 1233
Flags: MW
HStem: 0 21G<215 215 215 418> 1323 170<418 969 215 1139 418 418> 1323 476<972 1139 972 1139>
VStem: 215 203<0 1323 0 1493 0 1493> 970 169
LayerCount: 2
Back
Fore
SplineSet
215 0 m 1xd8
 215 1493 l 1
 969 1493 l 1
 972 1799 l 1
 1139 1799 l 1
 1139 1323 l 1xd8
 418 1323 l 1
 418 0 l 1xb8
 215 0 l 1xd8
EndSplineSet
EndChar

StartChar: uni0414
Encoding: 1044 1044 244
Width: 1233
Flags: MW
HStem: -322 492<33 110 33 110 110 142 33 203 1079 1200> 0 170<411 876 33 203> 1323 170<430 876 430 430>
VStem: 33 170<-322 0 -322 170> 227 203<1027 1323> 876 203<170 1323 1323 1323> 1030 170<-322 0 0 0>
LayerCount: 2
Back
Fore
SplineSet
33 -322 m 1xbc
 33 170 l 1
 110 170 l 2
 174 170 227 668 227 1027 c 2
 227 1493 l 1
 1079 1493 l 1
 1079 170 l 1
 1200 170 l 1
 1200 -322 l 1
 1030 -322 l 1
 1030 0 l 1xba
 203 0 l 1
 203 -322 l 1x7a
 33 -322 l 1xbc
411 170 m 2
 876 170 l 1
 876 1323 l 1xbc
 430 1323 l 1
 430 1026 l 2
 430 727 378 233 370 214 c 0
 366 205 364 197 364 192 c 0
 364 177 380 170 411 170 c 2
EndSplineSet
EndChar

StartChar: uni0415
Encoding: 1045 1045 245
Width: 1233
Flags: MW
HStem: 0 170<399 1102 399 1102> 711 170<399 1053 399 1053> 1323 170<399 1083 399 399>
VStem: 197 202<170 711 881 1323>
LayerCount: 2
Back
Fore
SplineSet
197 0 m 1
 197 1493 l 1
 1083 1493 l 1
 1083 1323 l 1
 399 1323 l 1
 399 881 l 1
 1053 881 l 1
 1053 711 l 1
 399 711 l 1
 399 170 l 1
 1102 170 l 1
 1102 0 l 1
 197 0 l 1
EndSplineSet
EndChar

StartChar: uni0400
Encoding: 1024 1024 246
Width: 1233
Flags: MW
HStem: 0 170<399 1102 399 1102> 711 170<399 1053 399 1053> 1323 170<399 1083 399 399> 1832 20G<377 561 561 561>
VStem: 197 202<170 711 881 1323>
LayerCount: 2
Back
Fore
SplineSet
604 1588 m 1
 377 1852 l 1
 561 1852 l 1
 758 1588 l 1
 604 1588 l 1
197 0 m 1
 197 1493 l 1
 1083 1493 l 1
 1083 1323 l 1
 399 1323 l 1
 399 881 l 1
 1053 881 l 1
 1053 711 l 1
 399 711 l 1
 399 170 l 1
 1102 170 l 1
 1102 0 l 1
 197 0 l 1
EndSplineSet
EndChar

StartChar: uni0401
Encoding: 1025 1025 247
Width: 1233
Flags: MW
HStem: 0 170<399 1102 399 1102> 711 170<399 1053 399 1053> 1323 170<399 1083 399 399> 1649 203<395 548 405 548 797 939>
VStem: 197 202<170 711 881 1323> 375 203<1679 1822 1669 1832> 767 202<1679 1822 1669 1832>
LayerCount: 2
Back
Fore
SplineSet
548 1649 m 2xfa
 405 1649 l 2
 385 1649 375 1659 375 1679 c 2
 375 1822 l 2
 375 1842 385 1852 405 1852 c 2
 548 1852 l 2
 568 1852 578 1842 578 1822 c 2
 578 1679 l 2
 578 1659 568 1649 548 1649 c 2xfa
939 1649 m 2
 797 1649 l 2
 777 1649 767 1659 767 1679 c 2
 767 1822 l 2
 767 1842 777 1852 797 1852 c 2
 939 1852 l 2
 959 1852 969 1842 969 1822 c 2
 969 1679 l 2
 969 1659 959 1649 939 1649 c 2
197 0 m 1
 197 1493 l 1
 1083 1493 l 1
 1083 1323 l 1
 399 1323 l 1
 399 881 l 1
 1053 881 l 1xf6
 1053 711 l 1
 399 711 l 1
 399 170 l 1
 1102 170 l 1
 1102 0 l 1
 197 0 l 1
EndSplineSet
EndChar

StartChar: uni0416
Encoding: 1046 1046 248
Width: 1233
Flags: MW
HStem: 0 21G<15 15 15 212 523 523 523 710 1021 1021 1021 1218> 1473 20G<32 239 239 239 523 710 710 710 994 1201 1201 1201>
VStem: 523 187<0 464 0 464 898 1493>
LayerCount: 2
Back
Fore
SplineSet
15 0 m 1
 319 891 l 1
 32 1493 l 1
 239 1493 l 1
 523 898 l 1
 523 1493 l 1
 710 1493 l 1
 710 898 l 1
 994 1493 l 1
 1201 1493 l 1
 914 891 l 1
 1218 0 l 1
 1021 0 l 1
 799 650 l 1
 710 464 l 1
 710 0 l 1
 523 0 l 1
 523 464 l 1
 434 650 l 1
 212 0 l 1
 15 0 l 1
EndSplineSet
EndChar

StartChar: uni0417
Encoding: 1047 1047 249
Width: 1233
Flags: MW
HStem: -29 170<487 644.5 468 719> 715 166<395 549 395 549> 1350 170<517 651>
VStem: 844 200<1040.5 1192> 879 165 879 200<335.5 511.5 273.5 517>
LayerCount: 2
Back
Fore
SplineSet
553 -29 m 0xe4
 421 -29 274 -3 137 45 c 1
 137 246 l 1
 274 174 404 141 532 141 c 0xe8
 757 141 879 245 879 426 c 0
 879 608 752 715 549 715 c 2
 395 715 l 1
 395 881 l 1
 549 881 l 2
 736 881 844 963 844 1118 c 0
 844 1266 745 1350 557 1350 c 0
 456 1350 326 1326 182 1270 c 1
 182 1456 l 1
 343 1499 465 1520 569 1520 c 0xf0
 853 1520 1044 1361 1044 1122 c 0
 1044 954 952 844 776 799 c 1
 973 747 1079 613 1079 410 c 0
 1079 137 885 -29 553 -29 c 0xe4
EndSplineSet
EndChar

StartChar: uni0418
Encoding: 1048 1048 250
Width: 1233
Flags: MW
HStem: 0 21G<139 139 139 395 899 899 899 1094> 1473 20G<139 334 334 334 838 1094 1094 1094>
VStem: 139 195<264 1493 264 1493 264 1493> 899 195<0 1229 1229 1229>
LayerCount: 2
Back
Fore
SplineSet
139 0 m 1
 139 1493 l 1
 334 1493 l 1
 334 264 l 1
 838 1493 l 1
 1094 1493 l 1
 1094 0 l 1
 899 0 l 1
 899 1229 l 1
 395 0 l 1
 139 0 l 1
EndSplineSet
EndChar

StartChar: uni0419
Encoding: 1049 1049 251
Width: 1233
Flags: MW
HStem: 0 21G<139 139 139 395 899 899 899 1094> 1473 20G<139 334 334 334 838 1094 1094 1094> 1609 131<561.5 671 561.5 712.5> 1609 242<303 712.5>
VStem: 139 195<264 1493 264 1493 264 1493> 899 195<0 1229 1229 1229>
LayerCount: 2
Back
Fore
SplineSet
616 1609 m 0xdc
 423 1609 318 1690 303 1851 c 1
 422 1851 l 1
 438 1779 507 1740 616 1740 c 0
 726 1740 791 1777 811 1851 c 1
 930 1851 l 1
 915 1691 809 1609 616 1609 c 0xdc
139 0 m 1
 139 1493 l 1
 334 1493 l 1
 334 264 l 1
 838 1493 l 1
 1094 1493 l 1
 1094 0 l 1
 899 0 l 1xdc
 899 1229 l 1xec
 395 0 l 1
 139 0 l 1
EndSplineSet
EndChar

StartChar: uni040D
Encoding: 1037 1037 252
Width: 1233
Flags: MW
HStem: 0 21G<139 139 139 395 899 899 899 1094> 1473 20G<139 334 334 334 838 1094 1094 1094> 1831 20G<377 561 561 561>
VStem: 139 195<264 1493 264 1493 264 1493> 899 195<0 1229 1229 1229>
LayerCount: 2
Back
Fore
SplineSet
604 1587 m 1
 377 1851 l 1
 561 1851 l 1
 758 1587 l 1
 604 1587 l 1
139 0 m 1
 139 1493 l 1
 334 1493 l 1
 334 264 l 1
 838 1493 l 1
 1094 1493 l 1
 1094 0 l 1
 899 0 l 1
 899 1229 l 1
 395 0 l 1
 139 0 l 1
EndSplineSet
EndChar

StartChar: uni041A
Encoding: 1050 1050 253
Width: 1233
Flags: MW
HStem: 0 21G<137 137 137 340 981 981 981 1225> 1473 20G<137 340 340 340 971 1208 1208 1208>
VStem: 137 203<0 584 829 1493>
LayerCount: 2
Back
Fore
SplineSet
137 0 m 1
 137 1493 l 1
 340 1493 l 1
 340 829 l 1
 971 1493 l 1
 1208 1493 l 1
 627 883 l 1
 1225 0 l 1
 981 0 l 1
 494 748 l 1
 340 584 l 1
 340 0 l 1
 137 0 l 1
EndSplineSet
EndChar

StartChar: uni040C
Encoding: 1036 1036 254
Width: 1233
Flags: MW
HStem: 0 21G<137 137 137 340 981 981 981 1225> 1473 20G<137 340 340 340 971 1208 1208 1208> 1831 20G<699 885 885 885>
VStem: 137 203<0 584 829 1493>
LayerCount: 2
Back
Fore
SplineSet
502 1587 m 1
 699 1851 l 1
 885 1851 l 1
 656 1587 l 1
 502 1587 l 1
137 0 m 1
 137 1493 l 1
 340 1493 l 1
 340 829 l 1
 971 1493 l 1
 1208 1493 l 1
 627 883 l 1
 1225 0 l 1
 981 0 l 1
 494 748 l 1
 340 584 l 1
 340 0 l 1
 137 0 l 1
EndSplineSet
EndChar

StartChar: uni041B
Encoding: 1051 1051 255
Width: 1233
Flags: MW
HStem: 0 164<14 98.5> 1323 170<493 901 493 493>
VStem: 290 203<1067 1073 1073 1323> 901 203<0 1323 1323 1323>
LayerCount: 2
Back
Fore
SplineSet
14 0 m 1
 14 164 l 1
 203 164 264 239 280 516 c 0
 288 638 290 863 290 1067 c 2
 290 1493 l 1
 1104 1493 l 1
 1104 0 l 1
 901 0 l 1
 901 1323 l 1
 493 1323 l 1
 493 1073 l 1
 493 888 l 2
 493 547 484 253 369 119 c 0
 301 40 183 0 14 0 c 1
EndSplineSet
EndChar

StartChar: uni041C
Encoding: 1052 1052 256
Width: 1233
Flags: MW
HStem: 0 21G<86 86 86 272 958 958 958 1145> 1473 20G<86 356 356 356 874 1145 1145 1145>
VStem: 86 186<0 1319 0 1493 0 1493> 958 187<0 1319 1319 1319>
LayerCount: 2
Back
Fore
SplineSet
86 0 m 1
 86 1493 l 1
 356 1493 l 1
 614 733 l 1
 874 1493 l 1
 1145 1493 l 1
 1145 0 l 1
 958 0 l 1
 958 1319 l 1
 692 532 l 1
 539 532 l 1
 272 1319 l 1
 272 0 l 1
 86 0 l 1
EndSplineSet
EndChar

StartChar: uni041D
Encoding: 1053 1053 257
Width: 1233
Flags: MW
HStem: 0 21G<137 137 137 340 893 893 893 1096> 711 170<340 893 340 893> 1473 20G<137 340 340 340 893 1096 1096 1096>
VStem: 137 203<0 711 881 1493> 893 203<0 711 711 711 881 1493 0 1493>
LayerCount: 2
Back
Fore
SplineSet
137 0 m 1
 137 1493 l 1
 340 1493 l 1
 340 881 l 1
 893 881 l 1
 893 1493 l 1
 1096 1493 l 1
 1096 0 l 1
 893 0 l 1
 893 711 l 1
 340 711 l 1
 340 0 l 1
 137 0 l 1
EndSplineSet
EndChar

StartChar: uni041E
Encoding: 1054 1054 258
Width: 1233
Flags: MW
HStem: -29 164<565 667.5 565 783.5> 1356 164<565 667.5>
VStem: 117 211<636 854.5 636 1005.5> 905 211<634.5 855>
LayerCount: 2
Back
Fore
SplineSet
615 -29 m 0
 280 -29 117 221 117 744 c 0
 117 1267 280 1520 616 1520 c 0
 953 1520 1116 1266 1116 745 c 0
 1116 225 952 -29 615 -29 c 0
616 135 m 0
 719 135 793 182 838 276 c 0
 883 368 905 524 905 745 c 0
 905 965 883 1122 838 1215 c 0
 793 1309 719 1356 616 1356 c 0
 514 1356 441 1309 396 1215 c 0
 351 1120 328 964 328 745 c 0
 328 527 351 371 396 276 c 0
 441 182 514 135 616 135 c 0
EndSplineSet
EndChar

StartChar: uni041F
Encoding: 1055 1055 259
Width: 1233
Flags: MW
HStem: 0 21G<137 137 137 340 893 893 893 1096> 1323 170<340 893 340 340>
VStem: 137 203<0 1323 0 1493 0 1493> 893 203<0 1323 1323 1323>
LayerCount: 2
Back
Fore
SplineSet
137 0 m 1
 137 1493 l 1
 1096 1493 l 1
 1096 0 l 1
 893 0 l 1
 893 1323 l 1
 340 1323 l 1
 340 0 l 1
 137 0 l 1
EndSplineSet
EndChar

StartChar: uni0420
Encoding: 1056 1056 260
Width: 1233
Flags: MW
HStem: 0 21G<197 197 197 399> 600 166<399 633 399 633> 1327 166<399 633 399 399>
VStem: 197 202<0 600 766 1327> 930 211<957.5 1136.5>
LayerCount: 2
Back
Fore
SplineSet
197 0 m 1
 197 1493 l 1
 633 1493 l 2
 968 1493 1141 1342 1141 1046 c 0
 1141 751 970 600 633 600 c 2
 399 600 l 1
 399 0 l 1
 197 0 l 1
399 766 m 1
 633 766 l 2
 821 766 930 868 930 1047 c 0
 930 1226 822 1327 633 1327 c 2
 399 1327 l 1
 399 766 l 1
EndSplineSet
EndChar

StartChar: uni0421
Encoding: 1057 1057 261
Width: 1233
Flags: MW
HStem: -29 164<677.5 772> 1356 164<676.5 771>
VStem: 139 211<643 847.5 643 864.5>
LayerCount: 2
Back
Fore
SplineSet
742 -29 m 0
 555 -29 404 37 297 174 c 0
 192 310 139 503 139 744 c 0
 139 985 191 1179 298 1316 c 0
 405 1453 555 1520 742 1520 c 0
 806 1520 867 1512 915 1500 c 0
 963 1488 1025 1465 1073 1438 c 1
 1073 1231 l 1
 1024 1272 971 1303 914 1324 c 0
 857 1345 801 1356 741 1356 c 0
 612 1356 513 1305 448 1204 c 0
 383 1103 350 950 350 745 c 0
 350 541 383 388 448 287 c 0
 513 186 612 135 743 135 c 0
 803 135 859 146 916 167 c 0
 971 188 1024 219 1073 260 c 1
 1073 53 l 1
 1021 26 968 5 915 -9 c 0
 863 -22 802 -29 742 -29 c 0
EndSplineSet
EndChar

StartChar: uni0422
Encoding: 1058 1058 262
Width: 1233
Flags: MW
HStem: 0 21G<516 516 516 719> 1323 170<47 516 47 1186 719 719 719 1186>
VStem: 516 203<0 1323 0 1323>
LayerCount: 2
Back
Fore
SplineSet
516 0 m 1
 516 1323 l 1
 47 1323 l 1
 47 1493 l 1
 1186 1493 l 1
 1186 1323 l 1
 719 1323 l 1
 719 0 l 1
 516 0 l 1
EndSplineSet
EndChar

StartChar: uni0423
Encoding: 1059 1059 263
Width: 1233
Flags: MW
HStem: 0 172<204 313 204 313 313 352> 1473 20G<124 341 341 341 960 1173 1173 1173>
LayerCount: 2
Back
Fore
SplineSet
204 0 m 1
 204 172 l 1
 313 172 l 2
 422 172 473 240 519 342 c 0
 528 363 533 377 548 416 c 1
 124 1493 l 1
 341 1493 l 1
 652 663 l 1
 960 1493 l 1
 1173 1493 l 1
 761 425 l 2
 721 321 677 224 633 156 c 0
 572 63 489 0 352 0 c 2
 204 0 l 1
EndSplineSet
EndChar

StartChar: uni040E
Encoding: 1038 1038 264
Width: 1233
Flags: MW
HStem: 0 172<204 313 204 313 313 352> 1473 20G<124 341 341 341 960 1173 1173 1173> 1609 131<581.5 692.5 581.5 732.5> 1609 242<323 732.5>
LayerCount: 2
Back
Fore
SplineSet
636 1609 m 0xd0
 443 1609 338 1690 323 1851 c 1
 442 1851 l 1
 458 1779 525 1740 638 1740 c 0
 747 1740 811 1777 831 1851 c 1
 950 1851 l 1
 935 1691 829 1609 636 1609 c 0xd0
204 0 m 1
 204 172 l 1
 313 172 l 2
 422 172 473 240 519 342 c 0
 528 363 533 377 548 416 c 1
 124 1493 l 1
 341 1493 l 1
 652 663 l 1
 960 1493 l 1
 1173 1493 l 1
 761 425 l 2xd0
 721 321 677 224 633 156 c 0xe0
 572 63 489 0 352 0 c 2
 204 0 l 1
EndSplineSet
EndChar

StartChar: uni0424
Encoding: 1060 1060 265
Width: 1233
Flags: MW
HStem: 0 21G<515 515 515 718> 1473 20G<515 718 718 718>
VStem: 66 211<628 894 628 941.5> 515 203<0 152 0 152 316 1207 1371 1493> 956 211<628 894>
CounterMasks: 1 38
LayerCount: 2
Back
Fore
SplineSet
515 0 m 1
 515 152 l 1
 170 168 66 430 66 772 c 0
 66 1111 168 1360 515 1371 c 1
 515 1493 l 1
 718 1493 l 1
 718 1371 l 1
 1078 1358 1167 1099 1167 762 c 0
 1167 406 1067 165 718 152 c 1
 718 0 l 1
 515 0 l 1
515 316 m 1
 515 1207 l 1
 294 1172 277 1027 277 761 c 0
 277 495 294 351 515 316 c 1
718 1207 m 1
 718 316 l 1
 937 351 956 495 956 761 c 0
 956 1027 937 1172 718 1207 c 1
EndSplineSet
EndChar

StartChar: uni0425
Encoding: 1061 1061 266
Width: 1233
Flags: MW
HStem: 0 21G<18 18 18 236 997 997 997 1214> 1473 20G<86 303 303 303 965 1182 1182 1182>
LayerCount: 2
Back
Fore
SplineSet
18 0 m 1
 518 791 l 1
 86 1493 l 1
 303 1493 l 1
 631 930 l 1
 965 1493 l 1
 1182 1493 l 1
 735 791 l 1
 1214 0 l 1
 997 0 l 1
 631 643 l 1
 236 0 l 1
 18 0 l 1
EndSplineSet
EndChar

StartChar: uni0427
Encoding: 1063 1063 267
Width: 1233
Flags: MW
HStem: 0 21G<889 889 889 1092> 577 186<501 604> 1473 20G<137 340 340 340 889 1092 1092 1092>
VStem: 137 203<980 1006 1006 1493> 889 203<0 658 658 658 861 1493 0 1493>
LayerCount: 2
Back
Fore
SplineSet
889 0 m 1
 889 658 l 1
 750 589 664 577 544 577 c 0
 323 577 137 618 137 980 c 2
 137 1493 l 1
 340 1493 l 1
 340 1006 l 2
 340 782 415 763 587 763 c 0
 709 763 774 773 889 861 c 1
 889 1493 l 1
 1092 1493 l 1
 1092 0 l 1
 889 0 l 1
EndSplineSet
EndChar

StartChar: uni0426
Encoding: 1062 1062 268
Width: 1233
Flags: MW
HStem: -322 492<303 1023 1059 1193 303 1193> 0 170<303 856 303 1023> 1473 20G<100 303 303 303 856 1059 1059 1059>
VStem: 100 203<170 1493 170 1493 170 1493> 856 203<170 1493 170 1493> 1023 170<-322 0 0 0>
LayerCount: 2
Back
Fore
SplineSet
1023 -322 m 1xb8
 1023 0 l 1
 100 0 l 1
 100 1493 l 1
 303 1493 l 1xb4
 303 170 l 1
 856 170 l 1
 856 1493 l 1
 1059 1493 l 1
 1059 170 l 1
 1193 170 l 1
 1193 -322 l 1x74
 1023 -322 l 1xb8
EndSplineSet
EndChar

